<svg width="890" height="247" viewBox="0 0 890 247" fill="none" xmlns="http://www.w3.org/2000/svg">
<path d="M8.86034 122.231L7.36033 122.231L7.36033 123.731L8.86033 123.731L8.86034 122.231ZM350.36 122.232L351.86 122.232L351.86 120.732L350.36 120.732L350.36 122.232ZM350.36 162.73L359.021 147.73L341.7 147.73L350.36 162.73ZM8.86038 96.7294L7.36038 96.7294L7.36033 122.231L8.86034 122.231L10.3603 122.231L10.3604 96.7294L8.86038 96.7294ZM8.86034 122.231L8.86033 123.731C176.002 123.731 183.218 123.732 350.36 123.732L350.36 122.232L350.36 120.732C183.213 120.732 176.007 120.731 8.86033 120.731L8.86034 122.231ZM350.36 122.232L348.86 122.232L348.86 149.23L350.36 149.23L351.86 149.23L351.86 122.232L350.36 122.232Z" fill="white" fill-opacity="0.1"/>
<path d="M880.571 122.231L882.071 122.231L882.071 123.731L880.571 123.731L880.571 122.231ZM539.071 122.232L537.571 122.232L537.571 120.732L539.071 120.732L539.071 122.232ZM539.071 162.73L530.41 147.73L547.731 147.73L539.071 162.73ZM880.571 96.7294L882.071 96.7294L882.071 122.231L880.571 122.231L879.071 122.231L879.071 96.7294L880.571 96.7294ZM880.571 122.231L880.571 123.731C713.429 123.731 706.213 123.732 539.071 123.732L539.071 122.232L539.071 120.732C706.218 120.732 713.424 120.731 880.571 120.731L880.571 122.231ZM539.071 122.232L540.571 122.232L540.571 149.23L539.071 149.23L537.571 149.23L537.571 122.232L539.071 122.232Z" fill="white" fill-opacity="0.1"/>
<path d="M452.5 162.73L461.16 147.73L443.84 147.73L452.5 162.73ZM452.5 95.2305L451 95.2305L451 149.23L452.5 149.23L454 149.23L454 95.2305L452.5 95.2305Z" fill="white" fill-opacity="0.1"/>
</svg>
