<svg width="354" height="301" viewBox="0 0 354 301" fill="none" xmlns="http://www.w3.org/2000/svg">
<mask id="mask0_763_4" style="mask-type:alpha" maskUnits="userSpaceOnUse" x="0" y="63" width="354" height="238">
<path d="M0 78C0 69.7157 6.71573 63 15 63H338.801C347.085 63 353.801 69.7157 353.801 78V286C353.801 294.284 347.085 301 338.801 301H15C6.71574 301 0 294.284 0 286V78Z" fill="#AEDFDC"/>
</mask>
<g mask="url(#mask0_763_4)">
<rect x="0.397827" y="63" width="351" height="238" rx="15" fill="#00C2CB" fill-opacity="0.24"/>
</g>
<path d="M117.703 143.077C117.703 169.331 84.2018 192.947 71.295 216.443C51.152 253.111 88.5543 280.141 141.308 280.141C221.681 280.141 315.948 176.35 293.463 94.177C284.337 60.8322 251.395 29.3717 205.463 23.9958C110.076 12.8408 74.0521 58.2075 74.0521 91.6847C74.0521 126.42 117.703 120.725 117.703 143.077Z" fill="#00C2CB"/>
<path opacity="0.7" d="M117.703 143.077C117.703 169.331 84.2018 192.947 71.295 216.443C51.152 253.111 88.5543 280.141 141.308 280.141C221.681 280.141 315.948 176.35 293.463 94.177C284.337 60.8322 251.395 29.3717 205.463 23.9958C110.076 12.8408 74.0521 58.2075 74.0521 91.6847C74.0521 126.42 117.703 120.725 117.703 143.077Z" fill="white"/>
<path d="M290.273 100.745H236.502V222.722H290.273V100.745Z" stroke="#263238" stroke-width="0.75" stroke-linecap="round" stroke-linejoin="round"/>
<path d="M285.553 105.464H241.222V218.002H285.553V105.464Z" stroke="#263238" stroke-width="0.75" stroke-linecap="round" stroke-linejoin="round"/>
<path d="M246.26 155.153L245.05 157.254" stroke="#263238" stroke-width="0.75" stroke-linecap="round" stroke-linejoin="round"/>
<path d="M258.986 133.12L247.657 152.745" stroke="#263238" stroke-width="0.75" stroke-linecap="round" stroke-linejoin="round"/>
<path d="M269.383 115.108L260.799 129.978" stroke="#263238" stroke-width="0.75" stroke-linecap="round" stroke-linejoin="round"/>
<path d="M271.201 111.966L270.286 113.543" stroke="#263238" stroke-width="0.75" stroke-linecap="round" stroke-linejoin="round"/>
<path d="M249.866 208.641L248.837 210.423" stroke="#263238" stroke-width="0.75" stroke-linecap="round" stroke-linejoin="round"/>
<path d="M252.25 204.511L251.161 206.408" stroke="#263238" stroke-width="0.75" stroke-linecap="round" stroke-linejoin="round"/>
<path d="M266.788 179.33L254.586 200.472" stroke="#263238" stroke-width="0.75" stroke-linecap="round" stroke-linejoin="round"/>
<path d="M277.594 160.613L268.041 177.168" stroke="#263238" stroke-width="0.75" stroke-linecap="round" stroke-linejoin="round"/>
<path d="M279.96 156.52L279.015 158.157" stroke="#263238" stroke-width="0.75" stroke-linecap="round" stroke-linejoin="round"/>
<path d="M263.387 195.174L254.586 210.423" stroke="#263238" stroke-width="0.75" stroke-linecap="round" stroke-linejoin="round"/>
<path d="M274.645 175.676L264.669 192.953" stroke="#263238" stroke-width="0.75" stroke-linecap="round" stroke-linejoin="round"/>
<path d="M276.986 171.624L275.807 173.665" stroke="#263238" stroke-width="0.75" stroke-linecap="round" stroke-linejoin="round"/>
<path d="M245.05 170.938L243.714 173.256" stroke="#263238" stroke-width="0.75" stroke-linecap="round" stroke-linejoin="round"/>
<path d="M256.747 150.681L246.122 169.084" stroke="#263238" stroke-width="0.75" stroke-linecap="round" stroke-linejoin="round"/>
<path d="M271.346 125.396L257.999 148.507" stroke="#263238" stroke-width="0.75" stroke-linecap="round" stroke-linejoin="round"/>
<path d="M280.117 110.202L272.375 123.615" stroke="#263238" stroke-width="0.75" stroke-linecap="round" stroke-linejoin="round"/>
<path d="M117.294 100.745H63.5232V222.722H117.294V100.745Z" stroke="#263238" stroke-width="0.75" stroke-linecap="round" stroke-linejoin="round"/>
<path d="M112.574 105.464H68.2429V218.002H112.574V105.464Z" stroke="#263238" stroke-width="0.75" stroke-linecap="round" stroke-linejoin="round"/>
<path d="M73.2816 155.153L72.0716 157.254" stroke="#263238" stroke-width="0.75" stroke-linecap="round" stroke-linejoin="round"/>
<path d="M86.0019 133.12L74.6722 152.745" stroke="#263238" stroke-width="0.75" stroke-linecap="round" stroke-linejoin="round"/>
<path d="M96.4044 115.108L87.8199 129.978" stroke="#263238" stroke-width="0.75" stroke-linecap="round" stroke-linejoin="round"/>
<path d="M98.2165 111.966L97.3074 113.543" stroke="#263238" stroke-width="0.75" stroke-linecap="round" stroke-linejoin="round"/>
<path d="M76.8876 208.641L75.8582 210.423" stroke="#263238" stroke-width="0.75" stroke-linecap="round" stroke-linejoin="round"/>
<path d="M79.2715 204.511L78.1759 206.408" stroke="#263238" stroke-width="0.75" stroke-linecap="round" stroke-linejoin="round"/>
<path d="M93.8098 179.33L81.6013 200.472" stroke="#263238" stroke-width="0.75" stroke-linecap="round" stroke-linejoin="round"/>
<path d="M104.616 160.613L95.056 177.168" stroke="#263238" stroke-width="0.75" stroke-linecap="round" stroke-linejoin="round"/>
<path d="M106.982 156.52L106.03 158.157" stroke="#263238" stroke-width="0.75" stroke-linecap="round" stroke-linejoin="round"/>
<path d="M90.4085 195.174L81.6013 210.423" stroke="#263238" stroke-width="0.75" stroke-linecap="round" stroke-linejoin="round"/>
<path d="M101.666 175.676L91.6908 192.953" stroke="#263238" stroke-width="0.75" stroke-linecap="round" stroke-linejoin="round"/>
<path d="M104.002 171.624L102.828 173.665" stroke="#263238" stroke-width="0.75" stroke-linecap="round" stroke-linejoin="round"/>
<path d="M72.0716 170.938L70.7291 173.256" stroke="#263238" stroke-width="0.75" stroke-linecap="round" stroke-linejoin="round"/>
<path d="M83.7624 150.681L73.1371 169.084" stroke="#263238" stroke-width="0.75" stroke-linecap="round" stroke-linejoin="round"/>
<path d="M98.361 125.396L85.0206 148.507" stroke="#263238" stroke-width="0.75" stroke-linecap="round" stroke-linejoin="round"/>
<path d="M107.132 110.202L99.3904 123.615" stroke="#263238" stroke-width="0.75" stroke-linecap="round" stroke-linejoin="round"/>
<path d="M44.1568 273.567H309.639" stroke="#263238" stroke-linecap="round" stroke-linejoin="round"/>
<path d="M136.377 225.876H131.772V241.534H136.377V225.876Z" fill="#00C2CB"/>
<path opacity="0.2" d="M136.377 225.876H131.772V241.534H136.377V225.876Z" fill="black"/>
<path d="M140.989 227.598H136.383V241.534H140.989V227.598Z" fill="#00C2CB"/>
<path d="M146.738 227.598H143.487V241.534H146.738V227.598Z" fill="#00C2CB"/>
<path opacity="0.9" d="M146.738 227.598H143.487V241.534H146.738V227.598Z" fill="white"/>
<path d="M143.493 226.129H140.543V241.541H143.493V226.129Z" fill="#00C2CB"/>
<path opacity="0.1" d="M143.493 226.129H140.543V241.541H143.493V226.129Z" fill="black"/>
<path d="M151.349 225.876H146.744V241.534H151.349V225.876Z" fill="#00C2CB"/>
<path d="M155.954 227.598H151.349V241.534H155.954V227.598Z" fill="#00C2CB"/>
<path opacity="0.2" d="M155.954 227.598H151.349V241.534H155.954V227.598Z" fill="#263238"/>
<path d="M161.709 227.598H158.459V241.534H161.709V227.598Z" fill="#00C2CB"/>
<path opacity="0.8" d="M161.709 227.598H158.459V241.534H161.709V227.598Z" fill="white"/>
<path d="M158.459 226.129H155.509V241.541H158.459V226.129Z" fill="#00C2CB"/>
<path opacity="0.1" d="M158.459 226.129H155.509V241.541H158.459V226.129Z" fill="black"/>
<path d="M183.682 241.541H188.288V225.883H183.682V241.541Z" fill="#00C2CB"/>
<path opacity="0.2" d="M183.682 241.541H188.288V225.883H183.682V241.541Z" fill="black"/>
<path d="M179.071 241.541H183.676V227.604H179.071V241.541Z" fill="#00C2CB"/>
<path d="M173.322 241.541H176.573V227.604H173.322V241.541Z" fill="#00C2CB"/>
<path opacity="0.9" d="M173.322 241.541H176.573V227.604H173.322V241.541Z" fill="white"/>
<path d="M176.567 241.535H179.517V226.123H176.567V241.535Z" fill="#00C2CB"/>
<path opacity="0.1" d="M176.567 241.535H179.517V226.123H176.567V241.535Z" fill="black"/>
<path d="M168.711 241.541H173.316V225.883H168.711V241.541Z" fill="#00C2CB"/>
<path d="M164.105 241.541H168.711V227.604H164.105V241.541Z" fill="#00C2CB"/>
<path opacity="0.2" d="M164.105 241.541H168.711V227.604H164.105V241.541Z" fill="#263238"/>
<path d="M161.601 241.535H164.551V226.123H161.601V241.535Z" fill="#00C2CB"/>
<path opacity="0.1" d="M161.601 241.535H164.551V226.123H161.601V241.535Z" fill="black"/>
<path d="M210.231 241.541H214.836V225.883H210.231V241.541Z" fill="#00C2CB"/>
<path opacity="0.2" d="M210.231 241.541H214.836V225.883H210.231V241.541Z" fill="black"/>
<path d="M205.619 241.541H210.225V227.604H205.619V241.541Z" fill="#00C2CB"/>
<path d="M199.87 241.541H203.121V227.604H199.87V241.541Z" fill="#00C2CB"/>
<path opacity="0.9" d="M199.87 241.541H203.121V227.604H199.87V241.541Z" fill="white"/>
<path d="M203.115 241.535H206.065V226.123H203.115V241.535Z" fill="#00C2CB"/>
<path opacity="0.1" d="M203.115 241.535H206.065V226.123H203.115V241.535Z" fill="black"/>
<path d="M195.259 241.541H199.864V225.883H195.259V241.541Z" fill="#00C2CB"/>
<path d="M217.834 240.988L220.859 240.177L216.787 224.988L213.763 225.799L217.834 240.988Z" fill="#00C2CB"/>
<path d="M190.654 241.541H195.259V227.604H190.654V241.541Z" fill="#00C2CB"/>
<path opacity="0.2" d="M190.654 241.541H195.259V227.604H190.654V241.541Z" fill="#263238"/>
<path d="M188.149 241.535H191.099V226.123H188.149V241.535Z" fill="#00C2CB"/>
<path opacity="0.1" d="M188.149 241.535H191.099V226.123H188.149V241.535Z" fill="black"/>
<path d="M219.376 261.88L222.469 261.051L218.417 245.927L215.323 246.756L219.376 261.88Z" fill="#00C2CB"/>
<path opacity="0.2" d="M219.376 261.88L222.469 261.051L218.417 245.927L215.323 246.756L219.376 261.88Z" fill="black"/>
<path d="M211.429 261.726H216.034V247.789H211.429V261.726Z" fill="#00C2CB"/>
<path d="M205.667 261.726H208.918V247.789H205.667V261.726Z" fill="#00C2CB"/>
<path opacity="0.9" d="M205.667 261.726H208.918V247.789H205.667V261.726Z" fill="white"/>
<path d="M208.918 261.731H211.868V246.32H208.918V261.731Z" fill="#00C2CB"/>
<path opacity="0.1" d="M208.918 261.731H211.868V246.32H208.918V261.731Z" fill="black"/>
<path d="M201.068 261.731H205.673V246.073H201.068V261.731Z" fill="#00C2CB"/>
<path d="M196.457 261.726H201.062V247.789H196.457V261.726Z" fill="#00C2CB"/>
<path opacity="0.2" d="M196.457 261.726H201.062V247.789H196.457V261.726Z" fill="#263238"/>
<path d="M190.708 261.726H193.958V247.789H190.708V261.726Z" fill="#00C2CB"/>
<path opacity="0.8" d="M190.708 261.726H193.958V247.789H190.708V261.726Z" fill="white"/>
<path d="M193.952 261.731H196.902V246.32H193.952V261.731Z" fill="#00C2CB"/>
<path opacity="0.1" d="M193.952 261.731H196.902V246.32H193.952V261.731Z" fill="black"/>
<path d="M168.735 246.074H164.129V261.732H168.735V246.074Z" fill="#00C2CB"/>
<path opacity="0.2" d="M168.735 246.074H164.129V261.732H168.735V246.074Z" fill="black"/>
<path d="M173.34 247.795H168.735V261.732H173.34V247.795Z" fill="#00C2CB"/>
<path d="M179.095 247.795H175.844V261.732H179.095V247.795Z" fill="#00C2CB"/>
<path opacity="0.9" d="M179.095 247.795H175.844V261.732H179.095V247.795Z" fill="white"/>
<path d="M175.844 246.32H172.895V261.731H175.844V246.32Z" fill="#00C2CB"/>
<path opacity="0.1" d="M175.844 246.32H172.895V261.731H175.844V246.32Z" fill="black"/>
<path d="M183.7 246.074H179.095V261.732H183.7V246.074Z" fill="#00C2CB"/>
<path d="M188.306 247.795H183.7V261.732H188.306V247.795Z" fill="#00C2CB"/>
<path opacity="0.2" d="M188.306 247.795H183.7V261.732H188.306V247.795Z" fill="#263238"/>
<path d="M190.81 246.32H187.86V261.731H190.81V246.32Z" fill="#00C2CB"/>
<path opacity="0.1" d="M190.81 246.32H187.86V261.731H190.81V246.32Z" fill="black"/>
<path d="M142.187 246.074H137.581V261.732H142.187V246.074Z" fill="#00C2CB"/>
<path opacity="0.2" d="M142.187 246.074H137.581V261.732H142.187V246.074Z" fill="black"/>
<path d="M146.792 247.795H142.187V261.732H146.792V247.795Z" fill="#00C2CB"/>
<path d="M152.547 247.795H149.296V261.732H152.547V247.795Z" fill="#00C2CB"/>
<path opacity="0.9" d="M152.547 247.795H149.296V261.732H152.547V247.795Z" fill="white"/>
<path d="M149.296 246.32H146.346V261.731H149.296V246.32Z" fill="#00C2CB"/>
<path opacity="0.1" d="M149.296 246.32H146.346V261.731H149.296V246.32Z" fill="black"/>
<path d="M157.152 246.074H152.547V261.732H157.152V246.074Z" fill="#00C2CB"/>
<path d="M137.572 246.743L134.56 245.936L130.507 261.06L133.519 261.867L137.572 246.743Z" fill="#00C2CB"/>
<path d="M161.758 247.795H157.152V261.732H161.758V247.795Z" fill="#00C2CB"/>
<path opacity="0.2" d="M161.758 247.795H157.152V261.732H161.758V247.795Z" fill="#263238"/>
<path d="M164.262 246.32H161.312V261.731H164.262V246.32Z" fill="#00C2CB"/>
<path opacity="0.1" d="M164.262 246.32H161.312V261.731H164.262V246.32Z" fill="black"/>
<path d="M135.312 273.567H130.706L130.074 264.657H135.944L135.312 273.567Z" fill="#263238"/>
<path d="M223.089 273.567H218.484L217.852 264.657H223.721L223.089 273.567Z" fill="#263238"/>
<path d="M228.164 219.965H125.632C125.046 219.965 124.484 220.198 124.069 220.612C123.655 221.026 123.422 221.588 123.422 222.174V264.061C123.422 264.647 123.655 265.209 124.069 265.624C124.484 266.038 125.046 266.271 125.632 266.271H228.164C228.75 266.271 229.312 266.038 229.726 265.624C230.141 265.209 230.373 264.647 230.373 264.061V222.174C230.373 221.588 230.141 221.026 229.726 220.612C229.312 220.198 228.75 219.965 228.164 219.965ZM225.949 224.39V241.541H127.823V224.39H225.949ZM127.847 261.87V244.701H225.973V261.87H127.847Z" fill="white" stroke="#263238" stroke-width="0.75" stroke-linecap="round" stroke-linejoin="round"/>
<path d="M213.006 131.982H142.06C139.779 131.982 137.93 133.831 137.93 136.112V151.343C137.93 153.624 139.779 155.472 142.06 155.472H213.006C215.287 155.472 217.135 153.624 217.135 151.343V136.112C217.135 133.831 215.287 131.982 213.006 131.982Z" fill="#263238" stroke="#263238" stroke-linecap="round" stroke-linejoin="round"/>
<path d="M211.742 130.718H140.796C138.515 130.718 136.666 132.567 136.666 134.848V150.079C136.666 152.359 138.515 154.208 140.796 154.208H211.742C214.022 154.208 215.871 152.359 215.871 150.079V134.848C215.871 132.567 214.022 130.718 211.742 130.718Z" fill="white" stroke="#263238" stroke-linecap="round" stroke-linejoin="round"/>
<path d="M211.742 130.718H140.796C138.515 130.718 136.666 132.567 136.666 134.848V150.079C136.666 152.359 138.515 154.208 140.796 154.208H211.742C214.022 154.208 215.871 152.359 215.871 150.079V134.848C215.871 132.567 214.022 130.718 211.742 130.718Z" stroke="#263238" stroke-linecap="round" stroke-linejoin="round"/>
<path d="M154.202 149.398H143.77V136.203H150.723L154.202 139.682V149.398Z" fill="#00C2CB"/>
<mask id="mask1_763_4" style="mask-type:luminance" maskUnits="userSpaceOnUse" x="143" y="136" width="12" height="14">
<path d="M154.202 149.398H143.77V136.203H150.723L154.202 139.682V149.398Z" fill="white"/>
</mask>
<g mask="url(#mask1_763_4)">
<path opacity="0.5" d="M154.202 149.398H143.77V136.203H150.723L154.202 139.682V149.398Z" fill="white"/>
</g>
<path d="M154.202 149.398H143.77V136.203H150.723L154.202 139.682V149.398Z" stroke="#263238" stroke-linecap="round" stroke-linejoin="round"/>
<path d="M150.723 139.682H154.202L150.723 136.203V139.682Z" fill="#00C2CB" stroke="#263238" stroke-linecap="round" stroke-linejoin="round"/>
<path d="M146.087 143.204C145.924 143.188 145.771 143.112 145.661 142.99C145.55 142.868 145.488 142.709 145.488 142.544C145.488 142.38 145.55 142.221 145.661 142.099C145.771 141.977 145.924 141.901 146.087 141.885H151.885C152.049 141.901 152.201 141.977 152.312 142.099C152.422 142.221 152.484 142.38 152.484 142.544C152.484 142.709 152.422 142.868 152.312 142.99C152.201 143.112 152.049 143.188 151.885 143.204H146.087Z" fill="#858585" stroke="#263238" stroke-width="0.75" stroke-linecap="round" stroke-linejoin="round"/>
<path d="M146.087 145.979C145.924 145.963 145.771 145.887 145.661 145.765C145.55 145.643 145.488 145.485 145.488 145.32C145.488 145.155 145.55 144.996 145.661 144.874C145.771 144.753 145.924 144.676 146.087 144.661H150.621C150.784 144.676 150.937 144.753 151.048 144.874C151.158 144.996 151.22 145.155 151.22 145.32C151.22 145.485 151.158 145.643 151.048 145.765C150.937 145.887 150.784 145.963 150.621 145.979H146.087Z" fill="#858585" stroke="#263238" stroke-width="0.75" stroke-linecap="round" stroke-linejoin="round"/>
<path d="M180.576 143.962H161.162C160.816 143.985 160.491 144.139 160.254 144.392C160.017 144.645 159.886 144.979 159.886 145.326C159.886 145.673 160.017 146.006 160.254 146.26C160.491 146.513 160.816 146.666 161.162 146.689H180.576V143.962Z" fill="#00C2CB"/>
<path d="M161.162 146.689C160.816 146.666 160.491 146.512 160.254 146.259C160.017 146.006 159.886 145.672 159.886 145.326C159.886 144.979 160.017 144.645 160.254 144.392C160.491 144.139 160.816 143.985 161.162 143.962H207.395C207.582 143.95 207.769 143.976 207.945 144.039C208.121 144.101 208.283 144.2 208.419 144.328C208.556 144.456 208.665 144.61 208.739 144.782C208.814 144.953 208.852 145.138 208.852 145.326C208.852 145.513 208.814 145.698 208.739 145.869C208.665 146.041 208.556 146.196 208.419 146.323C208.283 146.451 208.121 146.55 207.945 146.613C207.769 146.675 207.582 146.701 207.395 146.689H161.162Z" stroke="#263238" stroke-linecap="round" stroke-linejoin="round"/>
<path d="M181.015 140.266H179.553V139.574L180.943 136.281H181.78V139.574H182.141V140.266H181.78V141.151H181.015V140.266ZM181.015 139.574V137.677L180.263 139.58L181.015 139.574Z" fill="#263238"/>
<path d="M182.496 140.001V139.622H183.219V140.055C183.219 140.404 183.369 140.531 183.616 140.531C183.863 140.531 184.013 140.404 184.013 140.055V138.966C184.013 138.616 183.857 138.484 183.616 138.484C183.375 138.484 183.219 138.616 183.219 138.966V139.008H182.496L182.635 136.287H184.652V136.985H183.315L183.255 138.147C183.322 138.033 183.419 137.939 183.536 137.876C183.653 137.814 183.785 137.784 183.917 137.792C184.477 137.792 184.766 138.189 184.766 138.905V140.001C184.766 140.784 184.375 141.205 183.622 141.205C182.87 141.205 182.496 140.784 182.496 140.001Z" fill="#263238"/>
<path d="M185.254 138.213V137.009C185.244 136.907 185.256 136.804 185.289 136.706C185.322 136.609 185.375 136.519 185.444 136.443C185.514 136.367 185.598 136.307 185.692 136.265C185.786 136.224 185.888 136.202 185.991 136.202C186.094 136.202 186.196 136.224 186.29 136.265C186.384 136.307 186.468 136.367 186.538 136.443C186.607 136.519 186.66 136.609 186.693 136.706C186.726 136.804 186.738 136.907 186.728 137.009V138.213C186.738 138.316 186.726 138.419 186.693 138.516C186.66 138.614 186.607 138.704 186.538 138.779C186.468 138.855 186.384 138.916 186.29 138.958C186.196 138.999 186.094 139.02 185.991 139.02C185.888 139.02 185.786 138.999 185.692 138.958C185.598 138.916 185.514 138.855 185.444 138.779C185.375 138.704 185.322 138.614 185.289 138.516C185.256 138.419 185.244 138.316 185.254 138.213ZM186.241 138.249V136.961C186.241 136.75 186.145 136.66 185.994 136.66C185.844 136.66 185.741 136.75 185.741 136.961V138.249C185.741 138.466 185.831 138.556 185.994 138.556C186.157 138.556 186.241 138.46 186.241 138.249ZM187.758 136.287H188.245L186.361 141.157H185.874L187.758 136.287ZM187.391 140.447V139.243C187.381 139.14 187.394 139.037 187.426 138.94C187.459 138.842 187.512 138.753 187.581 138.677C187.651 138.601 187.735 138.54 187.829 138.498C187.924 138.457 188.025 138.436 188.128 138.436C188.231 138.436 188.333 138.457 188.427 138.498C188.521 138.54 188.605 138.601 188.675 138.677C188.744 138.753 188.797 138.842 188.83 138.94C188.863 139.037 188.875 139.14 188.866 139.243V140.447C188.875 140.549 188.863 140.652 188.83 140.75C188.797 140.847 188.744 140.937 188.675 141.013C188.605 141.089 188.521 141.149 188.427 141.191C188.333 141.232 188.231 141.254 188.128 141.254C188.025 141.254 187.924 141.232 187.829 141.191C187.735 141.149 187.651 141.089 187.581 141.013C187.512 140.937 187.459 140.847 187.426 140.75C187.394 140.652 187.381 140.549 187.391 140.447ZM188.378 140.483V139.195C188.378 138.978 188.282 138.888 188.125 138.888C187.969 138.888 187.878 138.978 187.878 139.195V140.483C187.878 140.7 187.969 140.79 188.125 140.79C188.282 140.79 188.378 140.7 188.378 140.483Z" fill="#263238"/>
<path d="M213.006 159.241H142.06C139.779 159.241 137.93 161.09 137.93 163.37V178.601C137.93 180.882 139.779 182.731 142.06 182.731H213.006C215.287 182.731 217.135 180.882 217.135 178.601V163.37C217.135 161.09 215.287 159.241 213.006 159.241Z" fill="#263238" stroke="#263238" stroke-linecap="round" stroke-linejoin="round"/>
<path d="M211.742 157.977H140.796C138.515 157.977 136.666 159.825 136.666 162.106V177.337C136.666 179.618 138.515 181.467 140.796 181.467H211.742C214.022 181.467 215.871 179.618 215.871 177.337V162.106C215.871 159.825 214.022 157.977 211.742 157.977Z" fill="white" stroke="#263238" stroke-linecap="round" stroke-linejoin="round"/>
<path d="M195.891 171.052H161.162C160.816 171.075 160.491 171.229 160.254 171.482C160.017 171.735 159.886 172.069 159.886 172.416C159.886 172.763 160.017 173.096 160.254 173.349C160.491 173.603 160.816 173.756 161.162 173.779H195.891V171.052Z" fill="#00C2CB"/>
<path d="M161.162 173.779C160.816 173.756 160.491 173.603 160.254 173.35C160.017 173.096 159.886 172.763 159.886 172.416C159.886 172.069 160.017 171.735 160.254 171.482C160.491 171.229 160.816 171.075 161.162 171.052H207.395C207.582 171.04 207.769 171.066 207.945 171.129C208.121 171.192 208.283 171.29 208.419 171.418C208.556 171.546 208.665 171.7 208.739 171.872C208.814 172.044 208.852 172.229 208.852 172.416C208.852 172.603 208.814 172.788 208.739 172.96C208.665 173.131 208.556 173.286 208.419 173.414C208.283 173.542 208.121 173.64 207.945 173.703C207.769 173.766 207.582 173.792 207.395 173.779H161.162Z" stroke="#263238" stroke-linecap="round" stroke-linejoin="round"/>
<path d="M179.643 167.115V166.682C179.619 166.485 179.654 166.286 179.743 166.11C179.832 165.933 179.971 165.787 180.143 165.688C179.979 165.593 179.847 165.451 179.763 165.281C179.68 165.11 179.648 164.919 179.673 164.731V164.533C179.673 164.223 179.796 163.926 180.015 163.707C180.234 163.488 180.531 163.365 180.841 163.365C181.151 163.365 181.448 163.488 181.667 163.707C181.886 163.926 182.009 164.223 182.009 164.533V164.731C182.03 164.92 181.997 165.11 181.913 165.28C181.828 165.45 181.696 165.592 181.533 165.688C181.706 165.786 181.846 165.932 181.936 166.109C182.026 166.285 182.062 166.485 182.039 166.682V167.115C182.039 167.435 181.912 167.741 181.686 167.967C181.46 168.192 181.154 168.319 180.835 168.319C180.516 168.319 180.209 168.192 179.984 167.967C179.758 167.741 179.631 167.435 179.631 167.115H179.643ZM181.274 167.073V166.604C181.274 166.236 181.124 166.056 180.841 166.056C180.558 166.056 180.407 166.236 180.407 166.604V167.073C180.407 167.44 180.558 167.621 180.841 167.621C181.124 167.621 181.274 167.44 181.274 167.073ZM181.274 164.876V164.49C181.274 164.171 181.136 164.003 180.871 164.003C180.606 164.003 180.468 164.171 180.468 164.49V164.876C180.468 165.195 180.606 165.363 180.871 165.363C181.136 165.363 181.244 165.195 181.244 164.876H181.274Z" fill="#263238"/>
<path d="M182.496 167.091V166.712H183.219V167.145C183.219 167.495 183.369 167.621 183.616 167.621C183.863 167.621 184.013 167.495 184.013 167.145V166.056C184.013 165.707 183.857 165.574 183.616 165.574C183.375 165.574 183.219 165.707 183.219 166.056V166.098H182.496L182.635 163.377H184.652V164.075H183.315L183.255 165.237C183.322 165.123 183.419 165.029 183.536 164.967C183.653 164.904 183.785 164.875 183.917 164.882C184.477 164.882 184.766 165.279 184.766 165.996V167.091C184.777 167.248 184.756 167.406 184.704 167.554C184.652 167.702 184.57 167.838 184.463 167.953C184.356 168.068 184.226 168.16 184.082 168.223C183.938 168.286 183.782 168.318 183.625 168.318C183.468 168.318 183.312 168.286 183.168 168.223C183.024 168.16 182.895 168.068 182.788 167.953C182.681 167.838 182.598 167.702 182.546 167.554C182.494 167.406 182.473 167.248 182.484 167.091H182.496Z" fill="#263238"/>
<path d="M185.254 165.303V164.099C185.244 163.997 185.256 163.893 185.289 163.796C185.322 163.699 185.375 163.609 185.444 163.533C185.514 163.457 185.598 163.396 185.692 163.355C185.786 163.313 185.888 163.292 185.991 163.292C186.094 163.292 186.196 163.313 186.29 163.355C186.384 163.396 186.468 163.457 186.538 163.533C186.607 163.609 186.66 163.699 186.693 163.796C186.726 163.893 186.738 163.997 186.728 164.099V165.303C186.738 165.406 186.726 165.509 186.693 165.606C186.66 165.704 186.607 165.793 186.538 165.869C186.468 165.945 186.384 166.006 186.29 166.047C186.196 166.089 186.094 166.11 185.991 166.11C185.888 166.11 185.786 166.089 185.692 166.047C185.598 166.006 185.514 165.945 185.444 165.869C185.375 165.793 185.322 165.704 185.289 165.606C185.256 165.509 185.244 165.406 185.254 165.303ZM186.241 165.339V164.051C186.241 163.84 186.145 163.744 185.994 163.744C185.844 163.744 185.741 163.84 185.741 164.051V165.339C185.741 165.556 185.831 165.646 185.994 165.646C186.157 165.646 186.241 165.55 186.241 165.339ZM187.758 163.377H188.245L186.361 168.247H185.874L187.758 163.377ZM187.391 167.537V166.333C187.381 166.23 187.394 166.127 187.426 166.029C187.459 165.932 187.512 165.842 187.581 165.766C187.651 165.69 187.735 165.63 187.829 165.588C187.924 165.547 188.025 165.525 188.128 165.525C188.231 165.525 188.333 165.547 188.427 165.588C188.521 165.63 188.605 165.69 188.675 165.766C188.744 165.842 188.797 165.932 188.83 166.029C188.863 166.127 188.875 166.23 188.866 166.333V167.537C188.875 167.639 188.863 167.742 188.83 167.84C188.797 167.937 188.744 168.027 188.675 168.103C188.605 168.179 188.521 168.239 188.427 168.281C188.333 168.322 188.231 168.344 188.128 168.344C188.025 168.344 187.924 168.322 187.829 168.281C187.735 168.239 187.651 168.179 187.581 168.103C187.512 168.027 187.459 167.937 187.426 167.84C187.394 167.742 187.381 167.639 187.391 167.537ZM188.378 167.573V166.284C188.378 166.068 188.282 165.977 188.125 165.977C187.969 165.977 187.878 166.068 187.878 166.284V167.573C187.878 167.789 187.969 167.88 188.125 167.88C188.282 167.88 188.378 167.789 188.378 167.573Z" fill="#263238"/>
<path d="M154.202 176.488H143.77V163.292H150.723L154.202 166.772V176.488Z" fill="#00C2CB"/>
<mask id="mask2_763_4" style="mask-type:luminance" maskUnits="userSpaceOnUse" x="143" y="163" width="12" height="14">
<path d="M154.202 176.488H143.77V163.292H150.723L154.202 166.772V176.488Z" fill="white"/>
</mask>
<g mask="url(#mask2_763_4)">
<path opacity="0.5" d="M154.202 176.488H143.77V163.292H150.723L154.202 166.772V176.488Z" fill="white" stroke="#263238" stroke-linecap="round" stroke-linejoin="round"/>
</g>
<path d="M154.202 176.488H143.77V163.292H150.723L154.202 166.772V176.488Z" stroke="#263238" stroke-linecap="round" stroke-linejoin="round"/>
<path d="M146.087 170.293C145.924 170.278 145.771 170.202 145.661 170.08C145.55 169.958 145.488 169.799 145.488 169.634C145.488 169.47 145.55 169.311 145.661 169.189C145.771 169.067 145.924 168.991 146.087 168.975H151.885C152.049 168.991 152.201 169.067 152.312 169.189C152.422 169.311 152.484 169.47 152.484 169.634C152.484 169.799 152.422 169.958 152.312 170.08C152.201 170.202 152.049 170.278 151.885 170.293H146.087Z" fill="#858585" stroke="#263238" stroke-width="0.75" stroke-linecap="round" stroke-linejoin="round"/>
<path d="M146.087 173.069C145.924 173.053 145.771 172.977 145.661 172.855C145.55 172.733 145.488 172.574 145.488 172.41C145.488 172.245 145.55 172.086 145.661 171.964C145.771 171.842 145.924 171.766 146.087 171.75H150.621C150.784 171.766 150.937 171.842 151.048 171.964C151.158 172.086 151.22 172.245 151.22 172.41C151.22 172.574 151.158 172.733 151.048 172.855C150.937 172.977 150.784 173.053 150.621 173.069H146.087Z" fill="#858585" stroke="#263238" stroke-width="0.75" stroke-linecap="round" stroke-linejoin="round"/>
<path d="M150.723 166.772H154.202L150.723 163.292V166.772Z" fill="#00C2CB" stroke="#263238" stroke-linecap="round" stroke-linejoin="round"/>
<path d="M222.704 95.5854H132.356C130.075 95.5854 128.226 97.4344 128.226 99.7152V120.707C128.226 122.988 130.075 124.837 132.356 124.837H222.704C224.985 124.837 226.834 122.988 226.834 120.707V99.7152C226.834 97.4344 224.985 95.5854 222.704 95.5854Z" fill="#263238" stroke="#263238" stroke-linecap="round" stroke-linejoin="round"/>
<path d="M221.44 94.3213H131.092C128.811 94.3213 126.962 96.1702 126.962 98.451V119.443C126.962 121.724 128.811 123.572 131.092 123.572H221.44C223.721 123.572 225.57 121.724 225.57 119.443V98.451C225.57 96.1702 223.721 94.3213 221.44 94.3213Z" fill="white" stroke="#263238" stroke-linecap="round" stroke-linejoin="round"/>
<path d="M161.378 121.165H142.06V96.7295H154.937L161.378 103.165V121.165Z" fill="#00C2CB"/>
<mask id="mask3_763_4" style="mask-type:luminance" maskUnits="userSpaceOnUse" x="142" y="96" width="20" height="26">
<path d="M161.378 121.165H142.06V96.7295H154.937L161.378 103.165V121.165Z" fill="white"/>
</mask>
<g mask="url(#mask3_763_4)">
<path opacity="0.7" d="M161.378 121.165H142.06V96.7295H154.937L161.378 103.165V121.165Z" fill="white"/>
</g>
<path d="M161.378 121.165H142.06V96.7295H154.937L161.378 103.165V121.165Z" stroke="#263238" stroke-linecap="round" stroke-linejoin="round"/>
<path d="M154.937 103.165H161.378L154.937 96.7295V103.165Z" fill="#00C2CB" stroke="#263238" stroke-linecap="round" stroke-linejoin="round"/>
<path d="M147.761 106.175H143.968V109.967H147.761V106.175Z" stroke="white" stroke-width="0.75" stroke-linecap="round" stroke-linejoin="round"/>
<path d="M151.662 106.175H147.869V109.967H151.662V106.175Z" stroke="white" stroke-width="0.75" stroke-linecap="round" stroke-linejoin="round"/>
<path d="M155.569 106.175H151.776V109.967H155.569V106.175Z" stroke="white" stroke-width="0.75" stroke-linecap="round" stroke-linejoin="round"/>
<path d="M159.47 106.175H155.677V109.967H159.47V106.175Z" stroke="white" stroke-width="0.75" stroke-linecap="round" stroke-linejoin="round"/>
<path d="M147.761 109.967H143.968V113.76H147.761V109.967Z" stroke="white" stroke-width="0.75" stroke-linecap="round" stroke-linejoin="round"/>
<path d="M151.662 109.967H147.869V113.76H151.662V109.967Z" stroke="white" stroke-width="0.75" stroke-linecap="round" stroke-linejoin="round"/>
<path d="M155.569 109.967H151.776V113.76H155.569V109.967Z" stroke="white" stroke-width="0.75" stroke-linecap="round" stroke-linejoin="round"/>
<path d="M159.47 109.967H155.677V113.76H159.47V109.967Z" stroke="white" stroke-width="0.75" stroke-linecap="round" stroke-linejoin="round"/>
<path d="M147.761 113.76H143.968V117.552H147.761V113.76Z" stroke="white" stroke-width="0.75" stroke-linecap="round" stroke-linejoin="round"/>
<path d="M151.662 113.76H147.869V117.552H151.662V113.76Z" stroke="white" stroke-width="0.75" stroke-linecap="round" stroke-linejoin="round"/>
<path d="M155.569 113.76H151.776V117.552H155.569V113.76Z" stroke="white" stroke-width="0.75" stroke-linecap="round" stroke-linejoin="round"/>
<path d="M159.47 113.76H155.677V117.552H159.47V113.76Z" stroke="white" stroke-width="0.75" stroke-linecap="round" stroke-linejoin="round"/>
<path d="M144.041 117.185L147.869 113.67L149.766 113.76L151.837 110.022L153.673 111.864L155.731 109.703L157.574 106.175" stroke="#00C2CB" stroke-width="2" stroke-linecap="round" stroke-linejoin="round"/>
<path d="M155.4 107.276L157.574 106.175L158.013 108.547" stroke="#00C2CB" stroke-width="2" stroke-linecap="round" stroke-linejoin="round"/>
<path d="M168.975 108.167H167.868V107.433C168.747 107.433 169.072 107.24 169.301 106.596H169.999V113.218H168.957L168.975 108.167Z" fill="#263238"/>
<path d="M171.233 111.659V108.167C171.233 107.747 171.4 107.345 171.697 107.048C171.994 106.751 172.396 106.584 172.816 106.584C173.236 106.584 173.639 106.751 173.936 107.048C174.233 107.345 174.399 107.747 174.399 108.167V111.659C174.399 112.079 174.233 112.481 173.936 112.778C173.639 113.075 173.236 113.242 172.816 113.242C172.396 113.242 171.994 113.075 171.697 112.778C171.4 112.481 171.233 112.079 171.233 111.659ZM173.358 111.725V108.113C173.358 107.644 173.147 107.463 172.816 107.463C172.485 107.463 172.274 107.644 172.274 108.113V111.725C172.274 112.201 172.485 112.381 172.816 112.381C173.147 112.381 173.358 112.201 173.358 111.725Z" fill="#263238"/>
<path d="M175.026 111.659V108.167C175.026 107.747 175.192 107.345 175.489 107.048C175.786 106.751 176.189 106.584 176.609 106.584C177.029 106.584 177.431 106.751 177.728 107.048C178.025 107.345 178.192 107.747 178.192 108.167V111.659C178.192 112.079 178.025 112.481 177.728 112.778C177.431 113.075 177.029 113.242 176.609 113.242C176.189 113.242 175.786 113.075 175.489 112.778C175.192 112.481 175.026 112.079 175.026 111.659ZM177.151 111.725V108.113C177.151 107.644 176.94 107.463 176.609 107.463C176.278 107.463 176.067 107.644 176.067 108.113V111.725C176.067 112.201 176.278 112.381 176.609 112.381C176.94 112.381 177.151 112.201 177.151 111.725Z" fill="#263238"/>
<path d="M178.836 109.221V107.565C178.836 107.299 178.942 107.043 179.131 106.855C179.319 106.666 179.575 106.56 179.842 106.56C180.108 106.56 180.364 106.666 180.552 106.855C180.741 107.043 180.847 107.299 180.847 107.565V109.221C180.847 109.488 180.741 109.743 180.552 109.932C180.364 110.12 180.108 110.226 179.842 110.226C179.575 110.226 179.319 110.12 179.131 109.932C178.942 109.743 178.836 109.488 178.836 109.221ZM180.185 109.269V107.517C180.185 107.222 180.052 107.096 179.842 107.096C179.631 107.096 179.498 107.222 179.498 107.517V109.269C179.498 109.564 179.625 109.684 179.842 109.684C180.058 109.684 180.185 109.564 180.185 109.269ZM182.25 106.596H182.918L180.347 113.218H179.685L182.25 106.596ZM181.744 112.267V110.605C181.744 110.473 181.77 110.343 181.82 110.221C181.871 110.099 181.945 109.988 182.038 109.895C182.132 109.801 182.243 109.727 182.365 109.677C182.486 109.626 182.617 109.6 182.749 109.6C182.881 109.6 183.012 109.626 183.134 109.677C183.256 109.727 183.367 109.801 183.46 109.895C183.553 109.988 183.628 110.099 183.678 110.221C183.729 110.343 183.755 110.473 183.755 110.605V112.267C183.755 112.399 183.729 112.53 183.678 112.652C183.628 112.774 183.553 112.885 183.46 112.978C183.367 113.071 183.256 113.145 183.134 113.196C183.012 113.246 182.881 113.272 182.749 113.272C182.617 113.272 182.486 113.246 182.365 113.196C182.243 113.145 182.132 113.071 182.038 112.978C181.945 112.885 181.871 112.774 181.82 112.652C181.77 112.53 181.744 112.399 181.744 112.267ZM183.092 112.315V110.557C183.092 110.262 182.96 110.142 182.749 110.142C182.539 110.142 182.412 110.262 182.412 110.557V112.315C182.412 112.604 182.533 112.731 182.749 112.731C182.966 112.731 183.092 112.604 183.092 112.315Z" fill="#263238"/>
<path d="M185.44 111.159V108.54C185.44 108.242 185.559 107.955 185.77 107.744C185.981 107.533 186.267 107.415 186.566 107.415C186.864 107.415 187.151 107.533 187.362 107.744C187.573 107.955 187.692 108.242 187.692 108.54V109.058H186.969V108.492C186.969 108.173 186.813 108.041 186.584 108.041C186.355 108.041 186.205 108.173 186.205 108.492V111.213C186.205 111.532 186.355 111.659 186.584 111.659C186.813 111.659 186.969 111.532 186.969 111.213V110.467H187.692V111.159C187.692 111.458 187.573 111.744 187.362 111.955C187.151 112.166 186.864 112.285 186.566 112.285C186.267 112.285 185.981 112.166 185.77 111.955C185.559 111.744 185.44 111.458 185.44 111.159Z" fill="#263238"/>
<path d="M188.107 111.129V108.571C188.107 108.262 188.229 107.967 188.447 107.749C188.665 107.531 188.961 107.409 189.269 107.409C189.577 107.409 189.873 107.531 190.09 107.749C190.308 107.967 190.431 108.262 190.431 108.571V111.129C190.431 111.437 190.308 111.733 190.09 111.951C189.873 112.169 189.577 112.291 189.269 112.291C188.961 112.291 188.665 112.169 188.447 111.951C188.229 111.733 188.107 111.437 188.107 111.129ZM189.666 111.177V108.522C189.666 108.173 189.516 108.041 189.269 108.041C189.022 108.041 188.872 108.173 188.872 108.522V111.177C188.872 111.526 189.028 111.659 189.269 111.659C189.51 111.659 189.666 111.526 189.666 111.177Z" fill="#263238"/>
<path d="M190.942 107.415H192.038L192.526 110.9L193.013 107.415H194.103V112.285H193.381V108.6L192.821 112.285H192.183L191.629 108.6V112.285H190.961L190.942 107.415Z" fill="#263238"/>
<path d="M194.687 107.415H195.813C196.577 107.415 196.95 107.842 196.95 108.619V109.1C196.95 109.877 196.577 110.304 195.813 110.304H195.451V112.285H194.687V107.415ZM195.813 109.606C196.053 109.606 196.186 109.497 196.186 109.148V108.546C196.186 108.197 196.053 108.089 195.813 108.089H195.451V109.582L195.813 109.606Z" fill="#263238"/>
<path d="M197.366 107.415H198.13V111.586H199.388V112.285H197.366V107.415Z" fill="#263238"/>
<path d="M199.774 107.415H201.857V108.113H200.538V109.395H201.58V110.093H200.532V111.586H201.851V112.285H199.774V107.415Z" fill="#263238"/>
<path d="M202.88 108.113H202.086V107.415H204.445V108.113H203.645V112.285H202.88V108.113Z" fill="#263238"/>
<path d="M204.819 107.415H206.902V108.113H205.583V109.395H206.631V110.093H205.583V111.586H206.902V112.285H204.819V107.415Z" fill="#263238"/>
<path d="M207.341 107.415H208.509C209.273 107.415 209.647 107.842 209.647 108.619V111.081C209.647 111.857 209.273 112.285 208.509 112.285H207.341V107.415ZM208.491 111.586C208.738 111.586 208.882 111.46 208.882 111.117V108.582C208.882 108.239 208.738 108.113 208.491 108.113H208.105V111.586H208.491Z" fill="#263238"/>
<path d="M213.006 186.505H142.06C139.779 186.505 137.93 188.354 137.93 190.635V205.866C137.93 208.146 139.779 209.995 142.06 209.995H213.006C215.287 209.995 217.135 208.146 217.135 205.866V190.635C217.135 188.354 215.287 186.505 213.006 186.505Z" fill="#263238" stroke="#263238" stroke-linecap="round" stroke-linejoin="round"/>
<path d="M211.742 185.241H140.796C138.515 185.241 136.666 187.09 136.666 189.371V204.602C136.666 206.882 138.515 208.731 140.796 208.731H211.742C214.022 208.731 215.871 206.882 215.871 204.602V189.371C215.871 187.09 214.022 185.241 211.742 185.241Z" fill="white" stroke="#263238" stroke-linecap="round" stroke-linejoin="round"/>
<path d="M193.441 198.148H161.162C160.801 198.148 160.455 198.292 160.2 198.547C159.944 198.802 159.801 199.148 159.801 199.509C159.801 199.87 159.944 200.216 160.2 200.471C160.455 200.726 160.801 200.869 161.162 200.869H193.441V198.148Z" fill="#00C2CB"/>
<path d="M161.162 200.869C160.801 200.869 160.455 200.726 160.2 200.471C159.944 200.216 159.801 199.87 159.801 199.509C159.801 199.148 159.944 198.802 160.2 198.547C160.455 198.292 160.801 198.148 161.162 198.148H207.395C207.574 198.148 207.751 198.184 207.916 198.252C208.081 198.32 208.231 198.421 208.357 198.547C208.484 198.673 208.584 198.823 208.652 198.988C208.72 199.153 208.756 199.33 208.756 199.509C208.756 199.688 208.72 199.865 208.652 200.03C208.584 200.195 208.484 200.345 208.357 200.471C208.231 200.597 208.081 200.698 207.916 200.766C207.751 200.834 207.574 200.869 207.395 200.869H161.162Z" stroke="#263238" stroke-linecap="round" stroke-linejoin="round"/>
<path d="M154.202 203.585H143.77V190.389H150.723L154.202 193.862V203.585Z" fill="#00C2CB"/>
<mask id="mask4_763_4" style="mask-type:luminance" maskUnits="userSpaceOnUse" x="143" y="190" width="12" height="14">
<path d="M154.202 203.585H143.77V190.389H150.723L154.202 193.862V203.585Z" fill="white"/>
</mask>
<g mask="url(#mask4_763_4)">
<path opacity="0.5" d="M154.202 203.585H143.77V190.389H150.723L154.202 193.862V203.585Z" fill="white"/>
</g>
<path d="M154.202 203.585H143.77V190.389H150.723L154.202 193.862V203.585Z" stroke="#263238" stroke-linecap="round" stroke-linejoin="round"/>
<path d="M146.087 197.39C145.924 197.374 145.771 197.298 145.661 197.176C145.55 197.054 145.488 196.895 145.488 196.73C145.488 196.566 145.55 196.407 145.661 196.285C145.771 196.163 145.924 196.087 146.087 196.071H151.885C152.049 196.087 152.201 196.163 152.312 196.285C152.422 196.407 152.484 196.566 152.484 196.73C152.484 196.895 152.422 197.054 152.312 197.176C152.201 197.298 152.049 197.374 151.885 197.39H146.087Z" fill="#858585" stroke="#263238" stroke-width="0.75" stroke-linecap="round" stroke-linejoin="round"/>
<path d="M146.087 200.159C145.913 200.159 145.747 200.09 145.623 199.967C145.5 199.844 145.431 199.677 145.431 199.503C145.431 199.329 145.5 199.162 145.623 199.039C145.747 198.916 145.913 198.847 146.087 198.847H150.621C150.795 198.847 150.961 198.916 151.085 199.039C151.208 199.162 151.277 199.329 151.277 199.503C151.277 199.677 151.208 199.844 151.085 199.967C150.961 200.09 150.795 200.159 150.621 200.159H146.087Z" fill="#858585" stroke="#263238" stroke-width="0.75" stroke-linecap="round" stroke-linejoin="round"/>
<path d="M150.723 193.862H154.202L150.723 190.389V193.862Z" fill="#00C2CB" stroke="#263238" stroke-linecap="round" stroke-linejoin="round"/>
<path d="M181.232 191.165H179.685V190.473H181.979V191.141L180.775 195.355H179.992L181.232 191.165Z" fill="#263238"/>
<path d="M182.46 194.187V191.629C182.46 191.321 182.583 191.025 182.801 190.807C183.018 190.589 183.314 190.467 183.622 190.467C183.93 190.467 184.226 190.589 184.444 190.807C184.662 191.025 184.784 191.321 184.784 191.629V194.187C184.784 194.495 184.662 194.791 184.444 195.009C184.226 195.227 183.93 195.349 183.622 195.349C183.314 195.349 183.018 195.227 182.801 195.009C182.583 194.791 182.46 194.495 182.46 194.187ZM184.019 194.235V191.58C184.019 191.231 183.863 191.099 183.622 191.099C183.381 191.099 183.225 191.231 183.225 191.58V194.235C183.225 194.584 183.381 194.711 183.622 194.711C183.863 194.711 184.019 194.584 184.019 194.235Z" fill="#263238"/>
<path d="M185.254 192.399V191.195C185.244 191.093 185.256 190.99 185.289 190.892C185.322 190.795 185.375 190.705 185.444 190.629C185.514 190.553 185.598 190.493 185.692 190.451C185.786 190.41 185.888 190.388 185.991 190.388C186.094 190.388 186.196 190.41 186.29 190.451C186.384 190.493 186.468 190.553 186.538 190.629C186.607 190.705 186.66 190.795 186.693 190.892C186.726 190.99 186.738 191.093 186.728 191.195V192.399C186.738 192.502 186.726 192.605 186.693 192.703C186.66 192.8 186.607 192.89 186.538 192.965C186.468 193.041 186.384 193.102 186.29 193.144C186.196 193.185 186.094 193.206 185.991 193.206C185.888 193.206 185.786 193.185 185.692 193.144C185.598 193.102 185.514 193.041 185.444 192.965C185.375 192.89 185.322 192.8 185.289 192.703C185.256 192.605 185.244 192.502 185.254 192.399ZM186.241 192.435V191.147C186.241 190.93 186.145 190.84 185.994 190.84C185.844 190.84 185.741 190.93 185.741 191.147V192.435C185.741 192.646 185.831 192.736 185.994 192.736C186.157 192.736 186.241 192.64 186.241 192.435ZM187.734 190.473H188.221L186.337 195.337H185.85L187.734 190.473ZM187.367 194.633V193.429C187.357 193.326 187.369 193.223 187.402 193.126C187.435 193.028 187.488 192.939 187.557 192.863C187.627 192.787 187.711 192.726 187.805 192.685C187.899 192.643 188.001 192.622 188.104 192.622C188.207 192.622 188.309 192.643 188.403 192.685C188.497 192.726 188.581 192.787 188.651 192.863C188.72 192.939 188.773 193.028 188.806 193.126C188.839 193.223 188.851 193.326 188.841 193.429V194.633C188.851 194.735 188.839 194.838 188.806 194.936C188.773 195.033 188.72 195.123 188.651 195.199C188.581 195.275 188.497 195.335 188.403 195.377C188.309 195.418 188.207 195.44 188.104 195.44C188.001 195.44 187.899 195.418 187.805 195.377C187.711 195.335 187.627 195.275 187.557 195.199C187.488 195.123 187.435 195.033 187.402 194.936C187.369 194.838 187.357 194.735 187.367 194.633ZM188.354 194.663V193.381C188.354 193.164 188.258 193.074 188.101 193.074C187.944 193.074 187.854 193.164 187.854 193.381V194.663C187.854 194.88 187.944 194.97 188.101 194.97C188.258 194.97 188.378 194.88 188.378 194.663H188.354Z" fill="#263238"/>
<path d="M97.6987 66.3404L113.586 54.0596L129.472 66.3404H97.6987Z" fill="#263238" stroke="#263238" stroke-linecap="round" stroke-linejoin="round"/>
<path d="M117.739 53.0964H109.432V60.2H117.739V53.0964Z" fill="#263238" stroke="#263238" stroke-linecap="round" stroke-linejoin="round"/>
<path d="M113.586 35.4458V60.2" stroke="#263238" stroke-width="0.75" stroke-linecap="round" stroke-linejoin="round"/>
<path d="M224.317 66.3404L240.21 54.0596L256.097 66.3404H224.317Z" fill="#263238" stroke="#263238" stroke-linecap="round" stroke-linejoin="round"/>
<path d="M244.364 53.0964H236.056V60.2H244.364V53.0964Z" fill="#263238" stroke="#263238" stroke-linecap="round" stroke-linejoin="round"/>
<path d="M240.21 34.2417V60.1999" stroke="#263238" stroke-width="0.75" stroke-linecap="round" stroke-linejoin="round"/>
<path d="M246.411 258.011L246.074 267.944L251.215 268.191L253.087 258.011H246.411Z" fill="white" stroke="#263238" stroke-linecap="round" stroke-linejoin="round"/>
<path d="M236.351 270.99C238.085 270.388 241.083 269.365 242.209 268.66C243.112 268.095 244.37 266.252 245.303 265.735C245.499 265.65 245.71 265.606 245.923 265.606C246.136 265.606 246.348 265.65 246.543 265.735C246.695 265.903 246.793 266.113 246.826 266.337C246.852 266.434 246.906 266.521 246.981 266.588C247.056 266.655 247.149 266.698 247.249 266.712C247.348 266.726 247.45 266.711 247.541 266.667C247.631 266.624 247.707 266.555 247.759 266.469C247.903 266.186 248.109 265.939 248.361 265.747C249.156 265.301 251.305 265.175 252.009 265.747C253.177 266.704 253.599 270.003 253.815 271.49C253.87 271.815 253.815 273.621 253.815 273.621H235.057V272.796C235.054 272.397 235.178 272.007 235.411 271.683C235.643 271.358 235.973 271.116 236.351 270.99Z" fill="white" stroke="#263238" stroke-linecap="round" stroke-linejoin="round"/>
<path d="M253.827 273.609H235.057V272.784C235.057 272.579 235.091 272.376 235.159 272.182H253.852C253.852 272.814 253.827 273.609 253.827 273.609Z" fill="#858585" stroke="#263238" stroke-linecap="round" stroke-linejoin="round"/>
<path d="M249.656 181.003L245.713 261.792L252.937 262.996C252.937 262.996 257.488 239.614 258.041 231.957C258.174 230.151 258.041 224.703 258.041 224.703L263.152 199.545C263.152 199.545 266.518 196.439 266.909 181.648L249.656 181.003Z" fill="#263238" stroke="#263238" stroke-linecap="round" stroke-linejoin="round"/>
<path opacity="0.7" d="M260.347 212.271C260.624 211.103 260.949 209.953 261.34 208.81C261.401 208.647 261.473 208.497 261.545 208.346C261.724 206.636 262 204.938 262.37 203.259C262.497 202.632 262.835 202.067 263.327 201.658C263.468 201.34 263.677 201.058 263.941 200.832C264.204 200.606 264.515 200.442 264.85 200.352C264.629 198.797 264.291 197.262 263.839 195.758C263.381 194.181 262.635 192.67 262.412 191.039C262.352 190.617 262.111 190.178 262.189 190.13C261.672 189.928 261.165 189.699 260.672 189.443L260.582 189.371C260.12 196.996 260.042 204.639 260.347 212.271Z" fill="black"/>
<path d="M249.312 227.213C250.591 226.917 251.765 226.278 252.708 225.365" stroke="#7F7F7F" stroke-width="0.75" stroke-linecap="round" stroke-linejoin="round"/>
<path d="M244.761 263.327L253.496 264.043L254.147 261.214L244.761 260.479V263.327Z" fill="#00C2CB" stroke="#263238" stroke-linecap="round" stroke-linejoin="round"/>
<path d="M269.985 256.789L271.845 268.402L276.601 268.029L276.445 256.139L269.985 256.789Z" fill="white" stroke="#263238" stroke-linecap="round" stroke-linejoin="round"/>
<path d="M262.021 270.99C263.76 270.388 266.758 269.365 267.878 268.661C268.781 268.095 270.045 266.253 270.972 265.735C271.169 265.65 271.381 265.606 271.596 265.606C271.81 265.606 272.022 265.65 272.219 265.735C272.327 265.847 272.404 265.986 272.441 266.138C272.474 266.254 272.54 266.356 272.631 266.434C272.722 266.512 272.834 266.56 272.953 266.574C273.072 266.587 273.192 266.565 273.298 266.51C273.404 266.455 273.492 266.37 273.549 266.265C273.672 266.057 273.836 265.877 274.031 265.735C274.825 265.29 276.974 265.163 277.679 265.735C278.847 266.692 279.268 269.991 279.485 271.478C279.533 271.803 279.485 273.609 279.485 273.609H260.732V272.784C260.732 272.388 260.856 272.002 261.087 271.68C261.318 271.358 261.645 271.117 262.021 270.99Z" fill="white" stroke="#263238" stroke-linecap="round" stroke-linejoin="round"/>
<path d="M279.503 273.609H260.732V272.784C260.73 272.579 260.763 272.376 260.829 272.182H279.521C279.521 272.814 279.503 273.609 279.503 273.609Z" fill="#858585" stroke="#263238" stroke-linecap="round" stroke-linejoin="round"/>
<path d="M259.709 183.441C259.709 183.441 261.515 193.898 263.177 202.669C264.308 208.617 264.381 226.189 264.381 226.189L270.148 262.472L277.257 261.515C277.257 261.515 277.342 239.181 276.541 232.017C276.36 230.421 276.065 225.684 276.065 225.684C276.065 225.684 276.336 206.733 277.799 200.4C278.847 195.885 280.929 191.141 278.401 181.888L259.709 183.441Z" fill="#263238" stroke="#263238" stroke-linecap="round" stroke-linejoin="round"/>
<path d="M265.94 227.213C266.663 228.214 267.738 228.904 268.95 229.145" stroke="#7F7F7F" stroke-width="0.75" stroke-linecap="round" stroke-linejoin="round"/>
<path d="M268.956 260.841L269.365 263.502L278.178 262.556L278.118 259.691L268.956 260.841Z" fill="#00C2CB" stroke="#263238" stroke-linecap="round" stroke-linejoin="round"/>
<path d="M226.16 135.071L224.215 131.802C224.215 131.802 223.745 126.462 222.662 125.421C221.578 124.379 219.17 121.315 218.827 121.917C218.285 122.88 220.29 124.596 220.29 124.596L220.657 126.583C220.657 126.583 217.412 124.247 216.497 124.247C216.497 124.247 213.909 121.183 212.994 121.177C212.079 121.171 213.367 123.296 213.367 123.296C213.367 123.296 212.494 122.628 212.326 123.043C212.157 123.458 213.451 124.879 213.451 124.879C213.451 124.879 212.952 125.421 213.704 126.583C213.6 126.958 213.601 127.355 213.707 127.73C213.814 128.104 214.021 128.443 214.306 128.708C215.305 129.502 220.675 132.543 220.675 132.543L222.481 136.793L226.16 135.071Z" fill="#858585" stroke="#263238" stroke-linecap="round" stroke-linejoin="round"/>
<path d="M214.162 124.963C214.162 124.963 214.872 125.252 214.577 126.294C214.861 126.697 215.02 127.174 215.035 127.666C215.107 128.581 219.742 128.13 220.994 130.074" stroke="#263238" stroke-width="0.75" stroke-linecap="round" stroke-linejoin="round"/>
<path d="M214.162 123.837L216.052 125.836" stroke="#263238" stroke-width="0.75" stroke-linecap="round" stroke-linejoin="round"/>
<path d="M246.23 134.246L233.823 143.914L225.323 132.332L220.994 134.499C220.994 134.499 227.797 153.293 232.944 153.293C238.416 153.293 248.819 144.504 248.819 144.504C248.819 144.504 249.475 142.824 246.23 134.246Z" fill="#00C2CB" stroke="#263238" stroke-linecap="round" stroke-linejoin="round"/>
<path d="M234.293 144.835C234.583 145.452 234.799 146.101 234.937 146.768" stroke="#263238" stroke-width="0.75" stroke-linecap="round" stroke-linejoin="round"/>
<path d="M246.23 134.246L248.873 169.228V183.761C248.873 183.761 264.098 185.567 279.117 183.375L278.6 168.416L280.123 135.071C280.123 135.071 273.152 130.032 262.448 130.032C251.745 130.032 246.23 134.246 246.23 134.246Z" fill="#00C2CB" stroke="#263238" stroke-linecap="round" stroke-linejoin="round"/>
<path opacity="0.2" d="M279.117 183.375L278.636 169.969C278.377 176.428 271.249 174.002 269.636 173.701C267.908 173.376 265.922 179.071 265.922 179.071C265.922 179.071 259.3 180.209 254.116 179.805C248.933 179.402 248.855 174.67 248.855 174.67V183.761C248.855 183.761 264.097 185.591 279.117 183.375Z" fill="black"/>
<path d="M256.007 168.891C262.391 168.204 268.518 165.998 273.874 162.456L256.007 168.891Z" fill="#00C2CB"/>
<path d="M256.007 168.891C262.391 168.204 268.518 165.998 273.874 162.456" stroke="#263238" stroke-width="0.75" stroke-linecap="round" stroke-linejoin="round"/>
<path d="M253.352 169.072C253.352 169.072 253.864 169.072 254.767 169.005L253.352 169.072Z" fill="#00C2CB"/>
<path d="M253.352 169.072C253.352 169.072 253.864 169.072 254.767 169.005" stroke="#263238" stroke-width="0.75" stroke-linecap="round" stroke-linejoin="round"/>
<path d="M258.505 135.932L255.868 134.974L253.352 137.407L255.194 129.882L257.415 128.136L258.547 128.852L263.604 128.659L267.535 128.979L269.407 128.401L271.406 130.399L266.957 138.906L265.091 135.685L260.973 136.197L258.505 135.932Z" fill="#00C2CB"/>
<mask id="mask5_763_4" style="mask-type:luminance" maskUnits="userSpaceOnUse" x="253" y="128" width="19" height="11">
<path d="M258.505 135.932L255.868 134.974L253.352 137.407L255.194 129.882L257.415 128.136L258.547 128.852L263.604 128.659L267.535 128.979L269.407 128.401L271.406 130.399L266.957 138.906L265.091 135.685L260.973 136.197L258.505 135.932Z" fill="white"/>
</mask>
<g mask="url(#mask5_763_4)">
<path opacity="0.5" d="M258.505 135.932L255.868 134.974L253.352 137.407L255.194 129.882L257.415 128.136L258.547 128.852L263.604 128.659L267.535 128.979L269.407 128.401L271.406 130.399L266.957 138.906L265.091 135.685L260.973 136.197L258.505 135.932Z" fill="white"/>
</g>
<path d="M258.505 135.932L255.868 134.974L253.352 137.407L255.194 129.882L257.415 128.136L258.547 128.852L263.604 128.659L267.535 128.979L269.407 128.401L271.406 130.399L266.957 138.906L265.091 135.685L260.973 136.197L258.505 135.932Z" stroke="#263238" stroke-linecap="round" stroke-linejoin="round"/>
<path d="M267.264 130.375L266.662 121.177L260.847 122.206L259.643 126.529L258.439 130.273L257.867 130.333L259.45 138.93L267.842 130.502L267.264 130.375Z" fill="#858585"/>
<mask id="mask6_763_4" style="mask-type:luminance" maskUnits="userSpaceOnUse" x="257" y="121" width="11" height="18">
<path d="M267.264 130.375L266.662 121.177L260.847 122.206L259.643 126.529L258.439 130.273L257.867 130.333L259.45 138.93L267.842 130.502L267.264 130.375Z" fill="white"/>
</mask>
<g mask="url(#mask6_763_4)">
<path d="M252.967 121.815C252.967 124.151 253.328 129.376 256.536 129.984C259.859 130.616 263.67 126.836 265.037 125.325C265.379 124.949 265.647 124.512 265.825 124.036L266.554 122.104C267.029 122.14 267.506 122.04 267.926 121.815H252.967Z" fill="#263238" stroke="#263238" stroke-width="0.5" stroke-linecap="round" stroke-linejoin="round"/>
</g>
<path d="M267.264 130.375L266.662 121.177L260.847 122.206L259.643 126.529L258.439 130.273L257.867 130.333L259.45 138.93L267.842 130.502L267.264 130.375Z" stroke="#263238" stroke-linecap="round" stroke-linejoin="round"/>
<path d="M256.843 110.004C256.843 110.004 254.092 107.909 255.441 106.259C256.145 105.404 257.06 106.53 257.06 106.53C257.06 106.53 256.573 103.905 258.529 103.52C260.335 103.183 260.263 105.254 260.263 105.254C260.263 105.254 261.196 103.478 262.827 103.875C264.128 104.188 263.628 106.03 263.628 106.03C263.628 106.03 265.362 103.875 267.156 104.826C268.703 105.639 267.427 107.59 267.427 107.59C267.427 107.59 269.269 106.939 270.298 107.975C271.328 109.01 270.298 110.383 270.298 110.383C270.298 110.383 272.327 110.383 272.417 111.9C272.507 113.417 270.846 113.706 270.846 113.706C270.846 113.706 273.194 114.464 273.212 116.306C273.23 118.149 271.659 117.559 271.659 117.559C271.659 117.559 272.634 119.292 271.821 120.213C271.73 120.337 271.611 120.437 271.474 120.506C271.337 120.575 271.186 120.611 271.033 120.611C270.879 120.611 270.728 120.575 270.591 120.506C270.454 120.437 270.335 120.337 270.244 120.213C270.244 120.213 271.261 122.399 269.973 123.037C269.052 123.488 268.51 122.381 268.51 122.381C268.51 122.381 267.734 124.271 266.794 123.115C265.855 121.959 261.196 113.056 261.196 113.056L256.843 110.004Z" fill="#263238" stroke="#263238" stroke-width="0.75" stroke-linecap="round" stroke-linejoin="round"/>
<path d="M256.049 110.088L254.315 113.7C254.137 114.077 254.045 114.488 254.044 114.904V116.036L253.087 118.444C253.038 118.569 252.998 118.698 252.967 118.829C252.66 120.111 251.197 126.998 254.773 128.401C257.927 129.641 262.37 126.649 264.001 125.421C264.408 125.115 264.752 124.732 265.013 124.295L266.096 122.537C266.556 122.675 267.048 122.663 267.501 122.504C267.954 122.345 268.345 122.047 268.619 121.652C269.588 120.262 270.707 119.509 269.377 118.257C268.047 117.005 266.819 119.01 266.819 119.01L266.999 115.476L265.458 112.767L265.38 111.063C265.38 111.063 260.335 110.503 256.952 108.655L256.049 110.088Z" fill="white" stroke="#263238" stroke-width="0.75" stroke-linecap="round" stroke-linejoin="round"/>
<path d="M256.049 110.088L254.315 113.7C254.137 114.077 254.045 114.488 254.044 114.904V116.036L253.087 118.444C253.038 118.569 252.998 118.698 252.967 118.829C252.66 120.111 251.197 126.998 254.773 128.401C257.927 129.641 262.37 126.649 264.001 125.421C264.408 125.115 264.752 124.732 265.013 124.295L266.096 122.537C266.556 122.675 267.048 122.663 267.501 122.504C267.954 122.345 268.345 122.047 268.619 121.652C269.588 120.262 270.707 119.509 269.377 118.257C268.047 117.005 266.819 119.01 266.819 119.01L266.999 115.476L265.458 112.767L265.38 111.063C265.38 111.063 260.335 110.503 256.952 108.655L256.049 110.088Z" fill="#858585" stroke="#263238" stroke-linecap="round" stroke-linejoin="round"/>
<path d="M259.119 122.423C258.144 124.307 256.819 123.994 255.989 123.525" stroke="#263238" stroke-width="0.75" stroke-linecap="round" stroke-linejoin="round"/>
<path d="M259.137 118.143C259.005 118.57 258.734 118.865 258.535 118.805C258.336 118.745 258.27 118.341 258.403 117.914C258.535 117.487 258.806 117.186 259.005 117.252C259.203 117.318 259.27 117.715 259.137 118.143Z" fill="#263238"/>
<path d="M255.116 116.897C254.983 117.33 254.712 117.625 254.514 117.559C254.315 117.493 254.249 117.095 254.381 116.668C254.514 116.24 254.791 115.946 254.983 116.012C255.176 116.078 255.248 116.469 255.116 116.897Z" fill="#263238"/>
<path d="M254.827 114.115C254.986 114.071 255.153 114.059 255.317 114.082C255.481 114.105 255.639 114.161 255.78 114.248C255.921 114.334 256.043 114.449 256.138 114.585C256.233 114.72 256.299 114.874 256.332 115.036" stroke="#263238" stroke-width="0.75" stroke-linecap="round" stroke-linejoin="round"/>
<path d="M258.288 115.758C258.288 115.758 259.691 114.284 260.636 115.849" stroke="#263238" stroke-width="0.75" stroke-linecap="round" stroke-linejoin="round"/>
<path d="M256.362 117.276C256.236 117.851 255.965 118.385 255.575 118.826C255.185 119.267 254.69 119.602 254.134 119.798L255.23 121.538" stroke="#263238" stroke-width="0.75" stroke-linecap="round" stroke-linejoin="round"/>
<path d="M263.351 186.295L263.044 188.155C263 188.462 263.076 188.775 263.257 189.027C263.437 189.279 263.708 189.452 264.013 189.51L283.319 192.676C283.627 192.72 283.939 192.644 284.191 192.464C284.444 192.283 284.617 192.012 284.674 191.707L284.975 189.847L263.351 186.295Z" fill="#00C2CB" stroke="#263238" stroke-width="0.75" stroke-linecap="round" stroke-linejoin="round"/>
<path d="M285.84 178.125L266.313 174.921C265.732 174.825 265.184 175.219 265.089 175.8L263.154 187.591C263.058 188.172 263.452 188.72 264.033 188.816L283.559 192.02C284.14 192.115 284.688 191.722 284.783 191.141L286.719 179.349C286.814 178.769 286.42 178.221 285.84 178.125Z" fill="#00C2CB"/>
<mask id="mask7_763_4" style="mask-type:luminance" maskUnits="userSpaceOnUse" x="263" y="174" width="24" height="19">
<path d="M285.84 178.125L266.313 174.921C265.732 174.825 265.184 175.219 265.089 175.8L263.154 187.591C263.059 188.172 263.452 188.72 264.033 188.816L283.559 192.02C284.14 192.115 284.688 191.722 284.783 191.141L286.719 179.349C286.814 178.769 286.42 178.221 285.84 178.125Z" fill="white"/>
</mask>
<g mask="url(#mask7_763_4)">
<path opacity="0.5" d="M285.84 178.125L266.313 174.921C265.732 174.825 265.184 175.219 265.089 175.8L263.154 187.591C263.059 188.172 263.452 188.72 264.033 188.816L283.559 192.02C284.14 192.115 284.688 191.722 284.783 191.141L286.719 179.349C286.814 178.769 286.42 178.221 285.84 178.125Z" fill="white"/>
</g>
<path d="M285.84 178.125L266.313 174.921C265.732 174.825 265.184 175.219 265.089 175.8L263.154 187.591C263.058 188.172 263.452 188.72 264.033 188.816L283.559 192.02C284.14 192.115 284.688 191.722 284.783 191.141L286.719 179.349C286.814 178.769 286.42 178.221 285.84 178.125Z" stroke="#263238" stroke-linecap="round" stroke-linejoin="round"/>
<path d="M278.305 180.323L277.239 183.935L273.627 186.518C273.116 188.099 272.513 189.649 271.821 191.159C271.775 191.243 271.751 191.338 271.752 191.434C271.752 191.53 271.777 191.624 271.824 191.708C271.871 191.791 271.939 191.862 272.02 191.912C272.102 191.963 272.195 191.991 272.291 191.996C272.79 191.996 273.374 191.761 273.693 190.792C273.693 190.792 273.832 192.694 275.006 191.532C275.006 191.532 275.722 193.375 276.842 191.924C276.842 191.924 279.437 192.309 279.852 190.437C280.267 188.565 280.881 185.266 280.881 185.266L282.531 181.395L278.305 180.323Z" fill="#858585" stroke="#263238" stroke-linecap="round" stroke-linejoin="round"/>
<path d="M273.669 190.051L274.079 187.264" stroke="#263238" stroke-width="0.75" stroke-linecap="round" stroke-linejoin="round"/>
<path d="M274.313 190.232C274.313 190.232 274.596 191.153 275.235 191.002C275.873 190.852 276.782 191.562 278.768 190.726" stroke="#263238" stroke-width="0.75" stroke-linecap="round" stroke-linejoin="round"/>
<path d="M280.123 135.071C280.123 135.071 289.153 160.162 288.984 163.828C288.816 167.495 282.392 183.441 282.392 183.441L277.432 181.864L280.743 163.16L277.775 150.163C277.775 150.163 277.101 140.633 280.123 135.071Z" fill="#00C2CB" stroke="#263238" stroke-linecap="round" stroke-linejoin="round"/>
<path d="M281.857 162.745C282.19 162.49 282.575 162.313 282.986 162.226C283.396 162.14 283.821 162.146 284.228 162.245" stroke="#263238" stroke-width="0.75" stroke-linecap="round" stroke-linejoin="round"/>
<path d="M275.987 182.262C275.807 182.023 275.673 181.754 275.59 181.467C275.243 181.46 274.906 181.585 274.647 181.817C274.389 182.049 274.228 182.37 274.196 182.716C274.165 183.061 274.266 183.406 274.479 183.681C274.691 183.955 275 184.138 275.343 184.194C275.703 184.253 276.072 184.167 276.368 183.955C276.665 183.743 276.866 183.422 276.926 183.062C276.539 182.898 276.211 182.618 275.987 182.262Z" fill="white"/>
<path d="M99.8057 129.304L100.901 134.704L88.7289 135.215L90.842 120.25L99.0412 121.201L99.8057 129.304Z" fill="white"/>
<mask id="mask8_763_4" style="mask-type:luminance" maskUnits="userSpaceOnUse" x="88" y="120" width="13" height="16">
<path d="M99.8057 129.304L100.901 134.704L88.7289 135.215L90.842 120.25L99.0412 121.201L99.8057 129.304Z" fill="white"/>
</mask>
<g mask="url(#mask8_763_4)">
<path d="M105.26 121.11L95.08 124.12C95.2071 125.287 95.449 126.439 95.8024 127.558C96.4044 129.292 100.071 132.374 102.424 132.338C104.778 132.302 105.043 124.801 105.043 124.801L106.464 124.012C106.545 123.966 106.616 123.903 106.671 123.827C106.726 123.751 106.765 123.665 106.784 123.573C106.803 123.482 106.803 123.387 106.783 123.296C106.763 123.204 106.724 123.118 106.669 123.043L105.26 121.11Z" fill="#263238" stroke="#263238" stroke-width="0.75" stroke-linecap="round" stroke-linejoin="round"/>
</g>
<path d="M99.8057 129.304L100.901 134.704L88.7289 135.215L90.842 120.25L99.0412 121.201L99.8057 129.304Z" stroke="#263238" stroke-linecap="round" stroke-linejoin="round"/>
<path d="M100.366 110.28C100.366 110.28 103.321 110.882 103.02 107.673C102.719 104.465 97.2111 106.427 94.3396 106.789C91.468 107.15 82.1972 110.611 85.4781 116.077C85.4781 116.077 83.5457 119.16 90.5048 124.331C90.5048 124.331 93.8098 122.778 95.6218 125.047L97.0365 122.29L100.649 115.945L100.366 110.28Z" fill="#263238" stroke="#263238" stroke-linecap="round" stroke-linejoin="round"/>
<path d="M100.149 109.799C100.149 109.799 102.978 111.376 104.604 109.401C104.604 109.401 104.784 113.615 100.149 109.799Z" fill="#263238" stroke="#263238" stroke-linecap="round" stroke-linejoin="round"/>
<path d="M100.444 109.359C100.444 109.359 104.658 113.796 104.513 116.836V119.611L106.741 122.115C106.803 122.179 106.85 122.257 106.879 122.341C106.908 122.426 106.917 122.516 106.907 122.605C106.896 122.693 106.866 122.779 106.819 122.854C106.772 122.93 106.708 122.994 106.632 123.042L105.338 123.939C105.338 123.939 105.717 131.043 103.49 131.296C101.263 131.549 97.5543 128.888 96.8138 127.323C96.2561 125.886 95.8525 124.395 95.6098 122.874C94.9615 122.698 94.3806 122.333 93.9418 121.824C93.503 121.316 93.2264 120.687 93.1476 120.02C92.8887 117.685 95.2426 117.751 95.8506 119.28L96.3442 120.526L97.8733 120.472C97.8733 120.472 97.0004 118.268 97.5181 117.618C98.0359 116.968 100.071 115.385 99.1375 113.874C98.2044 112.363 98.5175 109.792 100.444 109.359Z" fill="white" stroke="#263238" stroke-linecap="round" stroke-linejoin="round"/>
<path d="M102.852 125.33C103.027 125.641 103.296 125.889 103.62 126.04C103.944 126.19 104.307 126.234 104.658 126.167" stroke="#263238" stroke-width="0.75" stroke-linecap="round" stroke-linejoin="round"/>
<path d="M101.744 116.854C101.744 116.854 102.701 115.524 103.61 116.74" stroke="#263238" stroke-linecap="round" stroke-linejoin="round"/>
<path d="M103.255 119.629C103.255 120.045 103.093 120.388 102.87 120.394C102.647 120.4 102.455 120.069 102.442 119.653C102.43 119.238 102.605 118.895 102.828 118.889C103.051 118.883 103.243 119.196 103.255 119.629Z" fill="#263238"/>
<path d="M83.9491 252.984L82.1912 268.113L87.4226 268.919L90.3062 253.966L83.9491 252.984Z" fill="white" stroke="#263238" stroke-linecap="round" stroke-linejoin="round"/>
<path d="M81.4869 186.138C81.4869 186.138 81.6976 194.903 84.7919 201.068L85.4962 224.329L81.9263 261.81L89.8667 262.568L97.0907 223.366L99.4987 187.848L81.4869 186.138Z" fill="#00C2CB" stroke="#263238" stroke-linecap="round" stroke-linejoin="round"/>
<path opacity="0.2" d="M98.379 204.927L97.7168 200.755L94.7068 187.625L94.1529 187.342L81.5109 186.138C81.5109 186.138 81.5109 187.577 81.7939 189.702L88.0366 193.242C88.1838 195.464 88.6858 197.649 89.5235 199.713C89.5986 199.893 89.626 200.09 89.6031 200.284C89.5802 200.478 89.5079 200.662 89.393 200.82C89.2781 200.978 89.1246 201.104 88.9471 201.185C88.7697 201.266 88.5743 201.301 88.3797 201.284C87.7356 201.236 87.1757 201.284 87.1757 201.706C87.1757 202.681 91.8834 205.83 91.8834 205.83C91.8834 205.83 96.6332 221.181 96.4646 226.851L97.1087 223.36L98.379 204.927Z" fill="black"/>
<path d="M99.9141 253.978L100.486 269.196H105.778L106.343 253.978H99.9141Z" fill="white" stroke="#263238" stroke-linecap="round" stroke-linejoin="round"/>
<path d="M114.206 271.339C112.459 270.807 110.759 270.13 109.125 269.316C108.342 268.829 107.246 267.233 106.44 266.782C106.271 266.709 106.088 266.671 105.904 266.671C105.72 266.671 105.537 266.709 105.368 266.782C104.983 267.095 104.965 268.726 104.965 268.726C104.965 268.726 104.285 267.065 103.791 266.782C103.105 266.397 101.238 266.282 100.63 266.782C99.6191 267.607 99.2519 270.472 99.0532 271.76C99.005 272.043 99.0532 273.609 99.0532 273.609H115.307V272.892C115.308 272.551 115.203 272.218 115.005 271.939C114.808 271.661 114.528 271.451 114.206 271.339Z" fill="#263238" stroke="#263238" stroke-linecap="round" stroke-linejoin="round"/>
<path d="M110.985 186.86L109.685 222.023L107.511 262.171H99.2399C99.2399 262.171 97.5061 231.354 97.9395 222.439L93.5991 201.82C93.5991 201.82 89.042 195.74 90.1256 188.365L110.985 186.86Z" fill="#00C2CB" stroke="#263238" stroke-linecap="round" stroke-linejoin="round"/>
<path d="M98.5054 259.185L98.7763 264.013H107.836L108.541 259.185H98.5054Z" fill="#00C2CB" stroke="#263238" stroke-linecap="round" stroke-linejoin="round"/>
<path d="M81.2641 258.77L81.0775 263.598L90.0955 264.458L91.2573 259.721L81.2641 258.77Z" fill="#00C2CB" stroke="#263238" stroke-linecap="round" stroke-linejoin="round"/>
<path d="M124.698 163.714L112.183 155.755L125.373 142.565L137.894 150.524L124.698 163.714Z" fill="#00C2CB" stroke="#263238" stroke-linecap="round" stroke-linejoin="round"/>
<path d="M125.415 160.993L115.349 154.594L125.957 143.986L136.022 150.386L125.415 160.993Z" fill="white" stroke="#263238" stroke-width="0.75" stroke-linecap="round" stroke-linejoin="round"/>
<path d="M126.149 150.006L127.907 148.248L125.65 146.815L123.892 148.567L126.149 150.006Z" stroke="#263238" stroke-width="0.75" stroke-linecap="round" stroke-linejoin="round"/>
<path d="M123.422 152.739L125.18 150.981L122.916 149.542L121.165 151.3L123.422 152.739Z" stroke="#263238" stroke-width="0.75" stroke-linecap="round" stroke-linejoin="round"/>
<path d="M120.599 155.563L122.351 153.805L120.093 152.366L118.335 154.124L120.599 155.563Z" stroke="#263238" stroke-width="0.75" stroke-linecap="round" stroke-linejoin="round"/>
<path d="M130.454 144.618L128.792 146.286C128.713 146.364 128.653 146.459 128.616 146.564C128.579 146.669 128.567 146.781 128.579 146.891C128.591 147.001 128.628 147.108 128.687 147.202C128.745 147.296 128.825 147.376 128.918 147.436L131.326 148.983C131.592 149.152 131.907 149.226 132.22 149.192C132.533 149.158 132.825 149.018 133.048 148.796L134.583 147.255L130.454 144.618Z" fill="#858585" stroke="#263238" stroke-linecap="round" stroke-linejoin="round"/>
<path d="M85.9176 134.342L88.0908 129.568C88.0908 129.568 100.679 128.16 104.038 138.682L85.9176 134.342Z" fill="#858585" stroke="#263238" stroke-linecap="round" stroke-linejoin="round"/>
<path d="M78.7719 138.412C78.7719 138.412 75.6655 162.209 76.4903 170.643C77.1404 177.313 81.535 182.96 81.535 182.96L88.0487 180.407L84.7377 170.643C84.7377 170.643 85.7671 153.064 86.7423 148.971L78.7719 138.412Z" fill="#858585" stroke="#263238" stroke-linecap="round" stroke-linejoin="round"/>
<path d="M79.6508 181.792L81.4869 183.989L89.0119 181.057L88.0366 178.125L79.6508 181.792Z" fill="#858585" stroke="#263238" stroke-linecap="round" stroke-linejoin="round"/>
<path d="M78.7718 138.411C78.7718 138.411 77.7906 152.083 80.5778 161.691C83.3651 171.299 80.5778 187.077 80.5778 187.077C80.5778 187.077 93.4064 195.379 113.086 189.028C113.086 189.028 110.648 142.312 107.391 139.712C104.134 137.111 85.755 127.184 78.7718 138.411Z" fill="#858585" stroke="#263238" stroke-linecap="round" stroke-linejoin="round"/>
<path opacity="0.2" d="M113.086 189.028C113.086 189.028 112.249 173.015 110.907 159.217C108.059 152.306 103.406 143.101 103.159 156.026C102.798 174.718 114.302 173.617 105.188 176.873C103.15 177.645 100.967 177.958 98.7938 177.79C96.6211 177.621 94.5123 176.975 92.6178 175.898C92.4663 175.821 92.2929 175.797 92.1262 175.832C91.9595 175.866 91.8096 175.957 91.7014 176.088C91.5932 176.219 91.5332 176.384 91.5312 176.554C91.5293 176.724 91.5856 176.89 91.6908 177.024C93.9784 179.932 97.4519 181.744 100.119 182.785C100.36 182.877 100.563 183.046 100.698 183.266C100.832 183.486 100.891 183.744 100.863 184C100.836 184.257 100.724 184.497 100.546 184.683C100.368 184.869 100.133 184.992 99.878 185.03C91.2934 186.301 84.5631 181.738 81.4748 179.083C81.1136 183.682 80.5176 187.077 80.5176 187.077C80.5176 187.077 93.4065 195.379 113.086 189.028Z" fill="black"/>
<path d="M107.403 139.718C108.577 140.256 109.595 141.083 110.363 142.121C111.132 143.159 111.625 144.374 111.798 145.653C112.448 150.132 116.614 163.888 116.614 163.888L117.998 162.991C119.154 163.51 120.106 164.396 120.707 165.512C121.308 166.628 121.524 167.911 121.321 169.162C121.321 169.162 117.938 175.784 114.242 174.537C110.443 173.249 108.318 170.143 106.416 165.062C105.41 162.353 102.509 154.19 102.509 154.19" fill="#858585"/>
<path d="M107.403 139.718C108.577 140.256 109.595 141.083 110.363 142.121C111.132 143.159 111.625 144.374 111.798 145.653C112.448 150.132 116.614 163.888 116.614 163.888L117.998 162.991C119.154 163.51 120.106 164.396 120.707 165.512C121.308 166.628 121.524 167.911 121.321 169.162C121.321 169.162 117.938 175.784 114.242 174.537C110.443 173.249 108.318 170.143 106.416 165.062C105.41 162.353 102.509 154.19 102.509 154.19" stroke="#263238" stroke-linecap="round" stroke-linejoin="round"/>
<path d="M118.275 167.874C118.297 168.227 118.281 168.583 118.227 168.933" stroke="#263238" stroke-width="0.75" stroke-linecap="round" stroke-linejoin="round"/>
<path d="M115.789 170.643C115.789 170.643 116.927 168.837 116.764 164.942C117.311 165.356 117.729 165.918 117.968 166.561" stroke="#263238" stroke-width="0.75" stroke-linecap="round" stroke-linejoin="round"/>
<path d="M118.907 162.612L123.248 159.518C123.465 158.556 123.937 157.67 124.615 156.954C125.293 156.237 126.152 155.717 127.1 155.448C127.1 155.448 129.105 152.137 130.243 152.522C131.381 152.908 128.888 154.256 128.672 155.99L129.593 157.224C129.593 157.224 132.603 156.694 133.337 155.719C133.337 155.719 133.175 157.784 131.983 158.127C131.983 158.127 131.983 159.698 131.17 159.644L125.198 161.33L121.725 167.813L118.907 162.612Z" fill="white" stroke="#263238" stroke-linecap="round" stroke-linejoin="round"/>
<path d="M101.136 177.662C101.822 177.599 102.503 177.482 103.171 177.313" stroke="#263238" stroke-width="0.75" stroke-linecap="round" stroke-linejoin="round"/>
<path d="M84.0754 167.795C84.0754 167.795 90.4747 177.584 99.7274 177.716" stroke="#263238" stroke-width="0.75" stroke-linecap="round" stroke-linejoin="round"/>
<path d="M117.035 162.72C117.035 162.72 121.562 166.14 121.129 170.264L122.76 167.139C122.76 167.139 122.706 164.508 118.961 161.721L117.035 162.72Z" fill="#858585" stroke="#263238" stroke-linecap="round" stroke-linejoin="round"/>
<path d="M99.0533 273.609H115.307V272.892C115.307 272.716 115.279 272.541 115.223 272.375H99.0292C99.0292 272.922 99.0533 273.609 99.0533 273.609Z" fill="white" stroke="#263238" stroke-width="0.75" stroke-linecap="round" stroke-linejoin="round"/>
<path d="M95.6278 271.339C93.881 270.807 92.1816 270.13 90.547 269.316C89.7644 268.829 88.6687 267.233 87.8681 266.782C87.6978 266.709 87.5145 266.671 87.3293 266.671C87.144 266.671 86.9607 266.709 86.7905 266.782C86.4052 267.095 86.3871 268.726 86.3871 268.726C86.3871 268.726 85.7129 267.065 85.2132 266.782C84.527 266.397 82.6608 266.282 82.0527 266.782C81.0414 267.607 80.6742 270.472 80.4755 271.76C80.4273 272.043 80.4755 273.609 80.4755 273.609H96.7295V272.892C96.7307 272.551 96.6252 272.218 96.4277 271.939C96.2301 271.661 95.9505 271.451 95.6278 271.339Z" fill="#263238" stroke="#263238" stroke-linecap="round" stroke-linejoin="round"/>
<path d="M80.4635 273.609H96.7175V272.892C96.7174 272.716 96.6889 272.541 96.6332 272.375H80.4394C80.4394 272.922 80.4635 273.609 80.4635 273.609Z" fill="white" stroke="#263238" stroke-width="0.75" stroke-linecap="round" stroke-linejoin="round"/>
<path d="M104.441 222.673C104.441 222.673 102.713 225.653 99.9141 224.515" stroke="#263238" stroke-width="0.75" stroke-linecap="round" stroke-linejoin="round"/>
<path d="M92.3951 223.721C92.3951 223.721 89.2948 226.37 86.7303 224.516" stroke="#263238" stroke-width="0.75" stroke-linecap="round" stroke-linejoin="round"/>
<path d="M124.747 146.605L125.18 148.76H129.021L125.896 148.031L126.047 146.562L124.747 146.605Z" fill="#00C2CB"/>
</svg>
