<svg width="43" height="39" viewBox="0 0 43 39" fill="none" xmlns="http://www.w3.org/2000/svg">
<g clip-path="url(#clip0_677_101)">
<path d="M21.5 23.627C23.7618 23.627 25.5953 21.7793 25.5953 19.5C25.5953 17.2208 23.7618 15.373 21.5 15.373C19.2383 15.373 17.4048 17.2208 17.4048 19.5C17.4048 21.7793 19.2383 23.627 21.5 23.627Z" fill="white"/>
<path d="M21.5 28.7858C32.8087 28.7858 41.9762 24.6284 41.9762 19.5001C41.9762 14.3717 32.8087 10.2144 21.5 10.2144C10.1913 10.2144 1.0238 14.3717 1.0238 19.5001C1.0238 24.6284 10.1913 28.7858 21.5 28.7858Z" stroke="white"/>
<path d="M13.5202 24.1429C19.1745 34.0124 27.331 39.9346 31.7381 37.3704C36.1452 34.8062 35.1341 24.7267 29.4798 14.8572C23.8255 4.98765 15.669 -0.934506 11.2619 1.62967C6.85477 4.19385 7.86584 14.2734 13.5202 24.1429Z" stroke="white"/>
<path d="M13.5202 14.8571C7.86584 24.7266 6.85477 34.8062 11.2619 37.3703C15.669 39.9345 23.8255 34.0124 29.4798 24.1428C35.1341 14.2733 36.1452 4.19378 31.7381 1.6296C27.331 -0.934576 19.1745 4.98758 13.5202 14.8571Z" stroke="white"/>
</g>
<defs>
<clipPath id="clip0_677_101">
<rect width="43" height="39" fill="white"/>
</clipPath>
</defs>
</svg>
