<svg width="354" height="300" viewBox="0 0 354 300" fill="none" xmlns="http://www.w3.org/2000/svg">
<mask id="mask0_763_3" style="mask-type:alpha" maskUnits="userSpaceOnUse" x="0" y="62" width="354" height="238">
<path d="M0 77C0 68.7157 6.71573 62 15 62H338.801C347.085 62 353.801 68.7157 353.801 77V285C353.801 293.284 347.085 300 338.801 300H15C6.71574 300 0 293.284 0 285V77Z" fill="#AEDFDC"/>
</mask>
<g mask="url(#mask0_763_3)">
<rect x="0.397827" y="62" width="351" height="238" rx="15" fill="#00C2CB" fill-opacity="0.24"/>
</g>
<path d="M301.328 125.466C272.084 75.3779 192.758 93.2159 176.558 68.8559C168.26 56.3999 158.978 41.9219 145.514 34.4039C132.68 27.2039 117.8 24.6779 104.828 25.6259C58.5018 29.0159 38.8638 70.4639 47.7618 115.98C59.6418 176.694 113.462 238.716 177.398 239.148C210.842 239.4 242.798 227.4 267.818 210.522L268.376 210.144C293.396 193.11 323.66 163.704 301.328 125.466Z" fill="#00C2CB"/>
<path opacity="0.7" d="M301.328 125.466C272.084 75.3779 192.758 93.2159 176.558 68.8559C168.26 56.3999 158.978 41.9219 145.514 34.4039C132.68 27.2039 117.8 24.6779 104.828 25.6259C58.5018 29.0159 38.8638 70.4639 47.7618 115.98C59.6418 176.694 113.462 238.716 177.398 239.148C210.842 239.4 242.798 227.4 267.818 210.522L268.376 210.144C293.396 193.11 323.66 163.704 301.328 125.466Z" fill="white"/>
<path d="M74.3118 129.108H71.0598C67.5701 129.108 64.2233 130.494 61.7557 132.962C59.2881 135.429 57.9018 138.776 57.9018 142.266V214.47C57.9018 217.96 59.2881 221.306 61.7557 223.774C64.2233 226.242 67.5701 227.628 71.0598 227.628H115.676C119.166 227.628 122.512 226.242 124.98 223.774C127.448 221.306 128.834 217.96 128.834 214.47" stroke="#263238" stroke-width="1.10311" stroke-linecap="round" stroke-linejoin="round" stroke-dasharray="4.41 4.41"/>
<path d="M125.198 60.978V46.716C125.198 44.582 126.044 42.5351 127.552 41.0244C129.059 39.5138 131.104 38.6627 133.238 38.658H191.258C193.395 38.658 195.445 39.5069 196.956 41.0181C198.467 42.5293 199.316 44.5788 199.316 46.716" stroke="#263238" stroke-width="1.10311" stroke-linecap="round" stroke-linejoin="round" stroke-dasharray="4.41 4.41"/>
<path d="M177.398 283.296C240.862 283.296 292.31 276.108 292.31 267.24C292.31 258.373 240.862 251.184 177.398 251.184C113.934 251.184 62.4858 258.373 62.4858 267.24C62.4858 276.108 113.934 283.296 177.398 283.296Z" fill="#00C2CB"/>
<path opacity="0.5" d="M177.398 283.296C240.862 283.296 292.31 276.108 292.31 267.24C292.31 258.373 240.862 251.184 177.398 251.184C113.934 251.184 62.4858 258.373 62.4858 267.24C62.4858 276.108 113.934 283.296 177.398 283.296Z" fill="white"/>
<path d="M285.722 80.112V188.148C285.722 191.68 284.319 195.067 281.823 197.565C279.326 200.062 275.939 201.466 272.408 201.468H82.3878C78.8562 201.466 75.4697 200.062 72.973 197.565C70.4764 195.067 69.0738 191.68 69.0738 188.148V80.112C69.0738 79.794 69.0738 79.512 69.1158 79.176C69.3497 75.8152 70.8495 72.6683 73.3127 70.3699C75.7758 68.0716 79.0189 66.793 82.3878 66.792H272.408C275.781 66.7934 279.027 68.0754 281.491 70.3787C283.954 72.6821 285.452 75.835 285.68 79.2C285.71 79.488 285.722 79.8 285.722 80.112Z" fill="white" stroke="#263238" stroke-width="1.10311" stroke-linecap="round" stroke-linejoin="round"/>
<path d="M75.5538 84.168H279.92V183.966C279.92 187.276 278.605 190.45 276.265 192.791C273.924 195.131 270.75 196.446 267.44 196.446H88.0398C84.7299 196.446 81.5556 195.131 79.2151 192.791C76.8747 190.45 75.5598 187.276 75.5598 183.966V84.168H75.5538Z" fill="#263238"/>
<path opacity="0.2" d="M279.926 84.168V183.966C279.943 187.257 278.653 190.421 276.339 192.761C274.024 195.102 270.875 196.427 267.584 196.446H87.8958C84.6045 196.427 81.4554 195.102 79.141 192.761C76.8265 190.421 75.5363 187.257 75.5538 183.966V84.168H279.926Z" fill="white"/>
<path d="M285.68 79.2002H69.116C69.3499 75.8394 70.8497 72.6924 73.3128 70.3941C75.7759 68.0958 79.0191 66.8171 82.388 66.8162H272.408C275.777 66.8171 279.02 68.0958 281.483 70.3941C283.946 72.6924 285.446 75.8394 285.68 79.2002Z" fill="#00C2CB" stroke="#263238" stroke-width="1.10311" stroke-miterlimit="10"/>
<path d="M95.7258 72.984C95.7258 73.4503 95.5875 73.9062 95.3284 74.294C95.0693 74.6818 94.7011 74.984 94.2702 75.1625C93.8393 75.341 93.3652 75.3877 92.9078 75.2967C92.4504 75.2057 92.0302 74.9811 91.7005 74.6513C91.3707 74.3216 91.1461 73.9014 91.0551 73.444C90.9642 72.9866 91.0108 72.5125 91.1893 72.0816C91.3678 71.6507 91.67 71.2825 92.0578 71.0234C92.4456 70.7643 92.9015 70.626 93.3678 70.626C93.9932 70.626 94.593 70.8744 95.0352 71.3166C95.4774 71.7588 95.7258 72.3586 95.7258 72.984Z" fill="#263238"/>
<path d="M105.698 72.984C105.698 73.4503 105.56 73.9062 105.3 74.294C105.041 74.6818 104.673 74.984 104.242 75.1625C103.811 75.341 103.337 75.3877 102.88 75.2967C102.422 75.2057 102.002 74.9811 101.672 74.6513C101.343 74.3216 101.118 73.9014 101.027 73.444C100.936 72.9866 100.983 72.5125 101.161 72.0816C101.34 71.6507 101.642 71.2825 102.03 71.0234C102.418 70.7643 102.873 70.626 103.34 70.626C103.965 70.626 104.565 70.8744 105.007 71.3166C105.449 71.7588 105.698 72.3586 105.698 72.984Z" fill="#263238"/>
<path d="M113.312 75.342C114.614 75.342 115.67 74.2863 115.67 72.984C115.67 71.6817 114.614 70.626 113.312 70.626C112.01 70.626 110.954 71.6817 110.954 72.984C110.954 74.2863 112.01 75.342 113.312 75.342Z" fill="#263238"/>
<path d="M279.92 84.168V183.966C279.92 187.276 278.605 190.45 276.265 192.791C273.924 195.131 270.75 196.446 267.44 196.446H88.0398C85.151 196.445 82.3519 195.443 80.1198 193.609C77.8877 191.775 76.3609 189.224 75.7998 186.39V186.354C75.6473 185.563 75.5709 184.759 75.5718 183.954V84.168H279.92Z" stroke="#263238" stroke-width="1.10311" stroke-miterlimit="10"/>
<path d="M279.728 99.5998C278.853 99.1085 277.922 98.7238 276.956 98.4538L275.834 93.4438H271.07L269.96 98.4538C268.988 98.7189 268.053 99.1039 267.176 99.5998L262.874 96.8458L259.508 100.2L262.214 104.502C261.718 105.379 261.334 106.314 261.068 107.286L256.058 108.396V113.16L261.068 114.282C261.331 115.258 261.716 116.198 262.214 117.078L259.46 121.41L262.832 124.776L267.158 122.022C268.033 122.519 268.966 122.906 269.936 123.174L271.052 128.178H275.798L276.914 123.174C277.881 122.903 278.812 122.516 279.686 122.022L279.908 122.166V99.4798L279.728 99.5998ZM273.464 117C272.246 117 271.056 116.639 270.043 115.962C269.031 115.285 268.242 114.323 267.776 113.198C267.31 112.073 267.189 110.835 267.427 109.641C267.665 108.446 268.252 107.349 269.113 106.489C269.975 105.628 271.072 105.042 272.267 104.805C273.461 104.569 274.699 104.691 275.824 105.158C276.949 105.625 277.91 106.415 278.585 107.428C279.261 108.441 279.621 109.632 279.62 110.85C279.62 111.658 279.461 112.458 279.151 113.205C278.842 113.951 278.388 114.63 277.816 115.201C277.245 115.772 276.566 116.225 275.819 116.533C275.072 116.842 274.272 117.001 273.464 117Z" fill="#263238"/>
<path d="M193.868 104.43V94.386L183.308 92.04C182.738 89.9995 181.933 88.0323 180.908 86.178L182.186 84.168H132.326L133.556 86.124C132.519 87.9701 131.712 89.9369 131.156 91.98L120.59 94.332V104.4L131.156 106.758C131.712 108.816 132.518 110.799 133.556 112.662L127.754 121.788L134.864 128.892L143.984 123.084C145.834 124.125 147.802 124.941 149.846 125.514L152.198 136.044H162.218L164.582 125.49C166.619 124.914 168.581 124.098 170.426 123.06L179.552 128.868L186.656 121.764L180.89 112.638C181.912 110.787 182.717 108.824 183.29 106.788L193.868 104.43ZM157.268 112.386C154.701 112.386 152.192 111.625 150.058 110.199C147.923 108.773 146.26 106.746 145.278 104.374C144.295 102.003 144.038 99.3936 144.539 96.8761C145.04 94.3586 146.276 92.0461 148.091 90.2311C149.906 88.4161 152.218 87.1801 154.736 86.6793C157.253 86.1786 159.863 86.4356 162.234 87.4179C164.606 88.4001 166.633 90.0636 168.059 92.1978C169.485 94.332 170.246 96.8412 170.246 99.408C170.247 101.112 169.911 102.8 169.26 104.375C168.608 105.95 167.652 107.381 166.446 108.587C165.241 109.792 163.81 110.748 162.235 111.4C160.66 112.052 158.972 112.387 157.268 112.386Z" fill="#263238"/>
<path d="M127.226 173.4L127.652 165.426L119.39 163.098C119.006 161.459 118.439 159.869 117.698 158.358L122.69 151.35L117.338 145.416L109.862 149.616C108.433 148.717 106.905 147.986 105.308 147.438L103.88 138.966L95.9118 138.6L93.6078 146.886C91.9662 147.254 90.3748 147.818 88.8678 148.566L81.8658 143.58L75.9198 148.926L80.1558 156.408C79.2477 157.831 78.5144 159.358 77.9718 160.956L75.5718 161.352V172.152L77.3238 172.644C77.6873 174.288 78.2494 175.882 78.9978 177.39L75.5538 182.22L75.7818 186.354V186.39L79.3398 190.332L86.8278 186.102C88.2543 187.02 89.7877 187.759 91.3938 188.304L92.7978 196.44L92.8638 196.782L100.832 197.202L101.042 196.44L103.136 188.922C104.785 188.553 106.384 187.989 107.9 187.242L114.89 192.222L120.83 186.882L116.63 179.394C117.53 177.973 118.253 176.448 118.784 174.852L127.226 173.4ZM106.064 160.95C104.699 159.432 102.914 158.353 100.936 157.849C98.9578 157.345 96.8744 157.439 94.9497 158.12C93.0249 158.8 91.3452 160.036 90.123 161.672C88.9009 163.307 88.1912 165.268 88.0837 167.306C87.9762 169.345 88.4758 171.37 89.5193 173.125C90.5627 174.879 92.1031 176.285 93.9457 177.164C95.7882 178.043 97.8501 178.356 99.8705 178.063C101.891 177.77 103.779 176.884 105.296 175.518C107.321 173.688 108.539 171.13 108.683 168.405C108.827 165.679 107.885 163.007 106.064 160.974V160.95Z" fill="#263238"/>
<path d="M190.958 161.514C191.266 160.279 191.429 159.012 191.444 157.74L197.174 154.74L195.59 148.926L189.122 149.226C188.467 148.139 187.688 147.132 186.8 146.226L188.714 140.04L183.494 137.04L179.126 141.804C177.893 141.506 176.632 141.345 175.364 141.324L172.364 135.594L166.556 137.172L166.862 143.646C165.775 144.301 164.768 145.08 163.862 145.968L157.67 144.054L154.67 149.268L159.47 153.63C159.159 154.86 159 156.123 158.996 157.392L153.254 160.392L154.838 166.2L161.318 165.894C161.96 166.986 162.736 167.994 163.628 168.894L161.702 175.05L166.928 178.05L171.272 173.322C172.506 173.632 173.773 173.792 175.046 173.796L178.046 179.532L183.854 177.954L183.596 172.422L183.554 171.474C184.656 170.825 185.675 170.045 186.59 169.152L192.776 171.072L195.332 166.608L195.764 165.852L190.958 161.514ZM177.236 165.042C175.746 165.453 174.168 165.412 172.702 164.924C171.236 164.437 169.948 163.526 169 162.305C168.053 161.084 167.489 159.61 167.381 158.069C167.273 156.528 167.625 154.989 168.392 153.648C169.16 152.307 170.308 151.224 171.692 150.537C173.076 149.85 174.632 149.589 176.165 149.787C177.697 149.986 179.136 150.635 180.298 151.652C181.461 152.67 182.296 154.009 182.696 155.502C183.229 157.491 182.955 159.61 181.932 161.397C180.909 163.184 179.221 164.494 177.236 165.042Z" fill="#263238"/>
<path d="M257.39 171.738L258.71 163.758L250.634 160.512C250.451 158.812 250.062 157.139 249.476 155.532L255.29 149.058L250.586 142.458L242.57 145.86C241.239 144.793 239.785 143.891 238.238 143.172L237.77 134.478L229.79 133.158L226.52 141.198C224.827 141.397 223.162 141.79 221.558 142.368L215.066 136.554L208.496 141.258L211.904 149.268C210.966 150.439 210.151 151.704 209.474 153.042C209.384 153.228 209.288 153.414 209.204 153.6L200.516 154.08L199.19 162.048L200.498 162.576L207.266 165.306C207.451 166.999 207.839 168.663 208.424 170.262L202.598 176.778L207.308 183.378L215.318 179.958C216.644 181.035 218.097 181.945 219.644 182.67L220.094 191.322L228.068 192.642L231.332 184.662C233.029 184.477 234.697 184.086 236.3 183.498L242.78 189.312L249.38 184.602L245.972 176.586C247.057 175.254 247.974 173.793 248.702 172.236L257.39 171.738ZM235.01 171.378C233.331 172.583 231.333 173.262 229.268 173.331C227.203 173.4 225.164 172.855 223.409 171.764C221.653 170.674 220.261 169.088 219.407 167.206C218.554 165.325 218.277 163.232 218.613 161.193C218.949 159.155 219.882 157.261 221.293 155.753C222.705 154.244 224.533 153.188 226.545 152.718C228.557 152.249 230.663 152.386 232.597 153.113C234.531 153.841 236.206 155.125 237.41 156.804C239.022 159.057 239.674 161.858 239.222 164.591C238.77 167.324 237.25 169.765 234.998 171.378H235.01Z" fill="#263238"/>
<path d="M149.246 112.662H86.4978C82.1536 112.662 78.6318 116.184 78.6318 120.528V207.402C78.6318 211.746 82.1536 215.268 86.4978 215.268H149.246C153.59 215.268 157.112 211.746 157.112 207.402V120.528C157.112 116.184 153.59 112.662 149.246 112.662Z" fill="#00C2CB" stroke="#263238" stroke-width="1.10311" stroke-miterlimit="10"/>
<path opacity="0.2" d="M149.246 112.662H86.4978C82.1536 112.662 78.6318 116.184 78.6318 120.528V207.402C78.6318 211.746 82.1536 215.268 86.4978 215.268H149.246C153.59 215.268 157.112 211.746 157.112 207.402V120.528C157.112 116.184 153.59 112.662 149.246 112.662Z" fill="black"/>
<path d="M164.414 128.28V215.154C164.415 216.188 164.212 217.211 163.817 218.166C163.422 219.121 162.843 219.989 162.112 220.72C161.382 221.451 160.514 222.031 159.559 222.427C158.605 222.822 157.581 223.026 156.548 223.026H93.7998C92.7668 223.025 91.7441 222.821 90.7901 222.425C89.836 222.029 88.9693 221.449 88.2395 220.718C87.5096 219.987 86.9309 219.119 86.5363 218.165C86.1417 217.21 85.939 216.187 85.9398 215.154V128.28C85.9398 126.195 86.7677 124.195 88.2416 122.72C89.7155 121.245 91.7147 120.416 93.7998 120.414H156.548C158.634 120.414 160.635 121.243 162.11 122.718C163.585 124.193 164.414 126.194 164.414 128.28Z" fill="white" stroke="#263238" stroke-width="1.10311" stroke-linecap="round" stroke-linejoin="round"/>
<path d="M164.414 128.28V132.93H85.9398V128.28C85.9398 126.195 86.7677 124.195 88.2416 122.72C89.7155 121.245 91.7147 120.416 93.7998 120.414H156.548C158.634 120.414 160.635 121.243 162.11 122.718C163.585 124.193 164.414 126.194 164.414 128.28Z" fill="#00C2CB" stroke="#263238" stroke-width="1.10311" stroke-miterlimit="10"/>
<path d="M112.628 138.318H93.3198V141.558H112.628V138.318Z" fill="#00C2CB"/>
<path d="M112.628 167.352H93.3198V170.592H112.628V167.352Z" fill="#00C2CB"/>
<path d="M112.628 193.68H93.3198V196.92H112.628V193.68Z" fill="#00C2CB"/>
<path d="M148.154 146.34H93.3198V148.716H148.154V146.34Z" fill="#263238"/>
<path d="M138.266 150.882H93.3198V153.198H138.266V150.882Z" fill="#263238"/>
<path d="M144.152 155.352H93.3198V157.668H144.152V155.352Z" fill="#263238"/>
<path d="M144.152 159.816H93.3198V162.132H144.152V159.816Z" fill="#263238"/>
<path d="M148.154 172.668H93.3198V175.044H148.154V172.668Z" fill="#263238"/>
<path d="M138.266 177.21H93.3198V179.526H138.266V177.21Z" fill="#263238"/>
<path d="M144.152 181.68H93.3198V183.996H144.152V181.68Z" fill="#263238"/>
<path d="M148.154 201.576H93.3198V203.952H148.154V201.576Z" fill="#263238"/>
<path d="M138.266 206.124H93.3198V208.44H138.266V206.124Z" fill="#263238"/>
<path d="M144.152 210.594H93.3198V212.91H144.152V210.594Z" fill="#263238"/>
<path d="M252.86 60.174V95.286C252.86 96.5181 252.617 97.7381 252.145 98.8762C251.674 100.014 250.982 101.049 250.111 101.919C249.239 102.79 248.205 103.481 247.066 103.952C245.928 104.423 244.708 104.665 243.476 104.664H162.608C161.376 104.665 160.156 104.423 159.017 103.952C157.879 103.481 156.844 102.79 155.973 101.919C155.101 101.049 154.41 100.014 153.938 98.8762C153.467 97.7381 153.224 96.5181 153.224 95.286V60.174C153.225 57.6857 154.215 55.2998 155.974 53.5403C157.734 51.7808 160.12 50.7916 162.608 50.79H243.476C245.965 50.79 248.351 51.7787 250.111 53.5385C251.871 55.2984 252.86 57.6852 252.86 60.174Z" fill="white" stroke="#222221" stroke-width="1.10311" stroke-miterlimit="10"/>
<path d="M252.86 60.174V60.978H153.224V60.174C153.225 57.6857 154.215 55.2998 155.974 53.5403C157.734 51.7808 160.12 50.7916 162.608 50.79H243.476C245.965 50.79 248.351 51.7787 250.111 53.5385C251.871 55.2984 252.86 57.6852 252.86 60.174Z" fill="#00C2CB" stroke="#263238" stroke-width="1.10311" stroke-miterlimit="10"/>
<path d="M167.864 57.5639C167.663 57.7657 167.406 57.9032 167.127 57.959C166.847 58.0149 166.557 57.9865 166.294 57.8777C166.031 57.7688 165.806 57.5842 165.647 57.3473C165.489 57.1104 165.404 56.8319 165.404 56.5469C165.404 56.262 165.489 55.9834 165.647 55.7466C165.806 55.5097 166.031 55.3251 166.294 55.2162C166.557 55.1073 166.847 55.079 167.127 55.1349C167.406 55.1907 167.663 55.3282 167.864 55.5299C168.132 55.8007 168.282 56.1661 168.282 56.5469C168.282 56.9278 168.132 57.2932 167.864 57.5639Z" fill="#263238"/>
<path d="M174.536 57.5639C174.335 57.7657 174.078 57.9032 173.799 57.959C173.519 58.0149 173.229 57.9865 172.966 57.8777C172.703 57.7688 172.478 57.5842 172.319 57.3473C172.161 57.1104 172.076 56.8319 172.076 56.5469C172.076 56.262 172.161 55.9834 172.319 55.7466C172.478 55.5097 172.703 55.3251 172.966 55.2162C173.229 55.1073 173.519 55.079 173.799 55.1349C174.078 55.1907 174.335 55.3282 174.536 55.5299C174.804 55.8007 174.954 56.1661 174.954 56.5469C174.954 56.9278 174.804 57.2932 174.536 57.5639Z" fill="#263238"/>
<path d="M181.208 57.5639C181.007 57.7657 180.75 57.9032 180.471 57.959C180.191 58.0149 179.901 57.9865 179.638 57.8777C179.375 57.7688 179.15 57.5842 178.991 57.3473C178.833 57.1104 178.748 56.8319 178.748 56.5469C178.748 56.262 178.833 55.9834 178.991 55.7466C179.15 55.5097 179.375 55.3251 179.638 55.2162C179.901 55.1073 180.191 55.079 180.471 55.1349C180.75 55.1907 181.007 55.3282 181.208 55.5299C181.476 55.8007 181.626 56.1661 181.626 56.5469C181.626 56.9278 181.476 57.2932 181.208 57.5639Z" fill="#263238"/>
<path d="M192.146 67.4341H159.578V95.5861H192.146V67.4341Z" stroke="#263238" stroke-width="1.10311" stroke-linecap="round" stroke-linejoin="round" stroke-dasharray="4.41 4.41"/>
<path d="M234.656 67.4341H197.174V69.4141H234.656V67.4341Z" fill="#263238"/>
<path d="M225.926 71.532H197.174V73.506H225.926V71.532Z" fill="#263238"/>
<path d="M239.984 75.6118H197.174V77.6098H239.984V75.6118Z" fill="#263238"/>
<path d="M233.63 79.5898H197.174V81.5878H233.63V79.5898Z" fill="#263238"/>
<path d="M255.584 147.318H237.254C235.09 147.318 233.336 149.072 233.336 151.236V161.994C233.336 164.158 235.09 165.912 237.254 165.912H255.584C257.748 165.912 259.502 164.158 259.502 161.994V151.236C259.502 149.072 257.748 147.318 255.584 147.318Z" fill="white" stroke="#263238" stroke-width="1.10311" stroke-linecap="round" stroke-linejoin="round"/>
<path d="M241.778 152.91L236.744 156.066L241.418 160.206" stroke="#263238" stroke-width="1.10311" stroke-linecap="round" stroke-linejoin="round"/>
<path d="M250.946 160.506L255.47 156.654L250.25 153.234" stroke="#263238" stroke-width="1.10311" stroke-linecap="round" stroke-linejoin="round"/>
<path d="M244.226 162.882L247.94 151.23" stroke="#263238" stroke-width="1.10311" stroke-linecap="round" stroke-linejoin="round"/>
<path d="M205.514 264.282C205.514 264.282 188.114 269.268 185.684 270.132C183.476 270.912 177.488 273.012 172.994 272.358C172.56 272.295 172.131 272.203 171.71 272.082C167.156 270.726 165.11 269.46 164.51 266.598C163.91 263.736 166.178 261.624 168.362 260.274C170.546 258.924 182.39 257.514 182.39 257.514L185.252 258.354L205.514 264.282Z" fill="#00C2CB"/>
<path d="M172.994 272.358C172.56 272.295 172.131 272.203 171.71 272.082C167.156 270.726 165.11 269.46 164.51 266.598C163.91 263.736 166.178 261.624 168.362 260.274C170.546 258.924 182.39 257.514 182.39 257.514L185.252 258.354C182.66 259.554 173.012 260.208 170.906 261.42C168.8 262.632 167.786 264.912 169.028 268.02C169.694 269.64 171.47 271.23 172.994 272.358Z" fill="white"/>
<path d="M202.898 264.99C202.898 264.99 189.83 268.374 184.646 270.54C179.462 272.706 169.58 273.654 166.046 269.19C162.512 264.726 165.638 260.874 169.16 260.016C172.682 259.158 179.804 257.808 183.692 258.354" stroke="#263238" stroke-width="1.10311" stroke-linecap="round" stroke-linejoin="round"/>
<path d="M173.252 272.124C173.252 272.124 166.604 268.476 168.812 263.364C170.444 259.596 179.312 260.412 183.704 258.354" stroke="#263238" stroke-width="1.10311" stroke-linecap="round" stroke-linejoin="round"/>
<path d="M258.512 273.168C258.332 274.968 257.702 276.654 255.902 277.716C254.702 278.424 252.998 278.844 250.556 278.82C244.454 278.742 232.982 274.38 232.982 274.38L222.242 268.44L227.828 259.602L229.358 257.202L233.306 258.09C233.306 258.09 236.576 259.944 239.864 261.42C243.152 262.896 251.138 263.22 253.952 265.482C256.766 267.744 258.818 270.204 258.512 273.168Z" fill="#00C2CB"/>
<path d="M258.512 273.168C258.332 274.968 257.702 276.654 255.902 277.716C256.42 275.947 256.314 274.053 255.602 272.352C254.402 269.658 250.496 267.282 245.36 266.886C240.224 266.49 236.294 264.09 234.236 263.016C232.628 262.182 229.238 260.358 227.828 259.602L229.358 257.202L233.306 258.09C233.306 258.09 236.576 259.944 239.864 261.42C243.152 262.896 251.138 263.22 253.952 265.482C256.766 267.744 258.818 270.204 258.512 273.168Z" fill="white"/>
<path d="M224.624 270.108C232.355 274.602 240.899 277.52 249.764 278.694C251.72 278.928 253.994 278.964 255.302 277.494C255.65 277.069 255.909 276.579 256.063 276.052C256.218 275.526 256.265 274.973 256.202 274.428C255.968 271.668 253.646 269.484 251.102 268.386C248.558 267.288 245.756 267.036 243.05 266.43C240.359 265.823 237.757 264.871 235.31 263.598C233.366 262.584 231.488 261.354 229.346 260.898C227.204 260.442 224.654 260.994 223.508 262.866" stroke="#263238" stroke-width="1.10311" stroke-linecap="round" stroke-linejoin="round"/>
<path d="M254.582 278.244C255.587 277.763 256.466 277.053 257.148 276.172C257.831 275.29 258.298 274.262 258.512 273.168C258.902 270.57 257.42 267.954 255.338 266.358C253.256 264.762 250.646 264.006 248.072 263.472C245.498 262.938 242.864 262.578 240.398 261.6C236.636 260.124 232.922 257.22 228.998 258.258" stroke="#263238" stroke-width="1.10311" stroke-linecap="round" stroke-linejoin="round"/>
<path d="M236.744 177.156L218.57 170.244L218.342 170.154C218.342 170.154 218.408 169.674 218.462 168.954C218.576 167.502 218.636 165.138 217.952 164.34C216.938 163.14 214.07 164.148 211.268 162.864C208.466 161.58 203.288 163.878 203.288 163.878C203.288 163.878 199.544 163.188 197.888 165.888C197.048 168.066 197.336 171.288 197.336 171.288L196.994 171.408C194.828 172.218 183.044 176.652 180.554 178.434C177.8 180.384 174.752 200.406 173.774 206.286C172.796 212.166 171.056 217.464 171.938 219.486C172.82 221.508 185.48 231.258 192.764 233.772C200.048 236.286 225.878 235.572 225.878 235.572C225.878 235.572 226.298 235.458 227.048 235.218C231.416 233.814 246.914 228.018 255.14 214.41C255.152 214.434 247.184 188.316 236.744 177.156ZM187.64 210.834C186.302 211.782 187.04 215.454 187.04 215.454L184.766 213.45L190.478 199.404L192.914 210.204C192.914 210.204 188.978 209.892 187.64 210.834ZM233.336 219.756C232.706 220.08 235.136 213.33 233.984 211.8C232.832 210.27 229.358 210.414 229.358 210.414L229.652 208.572L231.71 198.012L232.394 197.202C232.394 197.202 239.462 209.316 240.728 213.588C240.728 213.6 233.024 219.756 233.336 219.756Z" fill="#00C2CB"/>
<path d="M202.43 133.35L193.046 143.31C193.046 143.31 191.756 144.456 192.266 147.342C192.776 150.228 193.976 152.742 194.882 152.91C195.599 153.036 196.326 153.1 197.054 153.102C197.054 153.102 199.064 157.458 200.492 159.168C200.492 159.168 200.984 165.894 200.72 167.76C200.72 167.76 204.092 170.706 207.266 171.078C210.44 171.45 215.342 166.59 215.342 166.59L216.542 160.638C216.542 160.638 219.422 156.27 219.614 155.106C219.806 153.942 221.126 154.242 221.774 153.666C222.422 153.09 223.916 150.528 224.174 148.104C224.432 145.68 224.438 142.896 221.624 143.712C219.182 143.058 220.712 137.898 220.712 137.898L216.422 134.118L202.43 133.35Z" fill="white"/>
<path opacity="0.5" d="M218.57 170.244C218.428 170.615 218.266 170.977 218.084 171.33C216.536 174.246 209.792 179.808 209.792 179.808L207.752 173.538L206.636 179.808C204.386 178.824 197.522 172.878 197.522 172.878C197.522 172.878 197.288 172.32 197.006 171.45L197.348 171.33C197.348 171.33 197.06 168.084 197.9 165.93C199.544 163.23 203.3 163.92 203.3 163.92C203.3 163.92 208.478 161.622 211.28 162.906C214.082 164.19 216.95 163.194 217.964 164.382C218.978 165.57 218.354 170.178 218.354 170.178L218.57 170.244Z" fill="white"/>
<path opacity="0.2" d="M236.744 177.156L218.57 170.244L218.342 170.154C218.342 170.154 218.408 169.674 218.462 168.954L218.084 171.312L215.396 174.96C218.269 176.018 221.075 177.252 223.796 178.656C225.099 179.354 226.161 180.427 226.846 181.737C227.531 183.047 227.806 184.532 227.636 186L224.288 214.65L222.914 230.916L227.06 235.218C231.428 233.814 246.926 228.018 255.152 214.41C255.152 214.434 247.184 188.316 236.744 177.156ZM233.336 219.756C232.706 220.08 235.136 213.33 233.984 211.8C232.832 210.27 229.358 210.414 229.358 210.414L229.652 208.572L231.71 198.012L232.394 197.202C232.394 197.202 239.462 209.316 240.728 213.588C240.728 213.6 233.024 219.756 233.336 219.756Z" fill="black"/>
<path opacity="0.2" d="M194.12 211.8L191.294 202.356C191.294 202.356 186.224 185.07 182.75 180.81L183.662 192.966C183.662 192.966 180.662 207.486 177.92 211.8C175.178 216.114 174.566 217.2 177.92 217.2C181.274 217.2 189.44 223.704 189.44 223.704L188.81 218.304L194.12 211.8ZM186.998 215.454L184.724 213.45L190.436 199.404L192.872 210.204C192.872 210.204 188.96 209.91 187.622 210.852C186.284 211.794 186.998 215.454 186.998 215.454Z" fill="black"/>
<path d="M200.492 159.168C200.492 159.168 201.008 164.262 200.492 166.59" stroke="#263238" stroke-width="1.10311" stroke-linecap="round" stroke-linejoin="round"/>
<path d="M215.864 165.906C215.869 164.268 216.059 162.636 216.428 161.04" stroke="#263238" stroke-width="1.10311" stroke-linecap="round" stroke-linejoin="round"/>
<path d="M217.226 137.148C217.226 137.148 220.31 141.018 220.148 143.946C219.986 146.874 219.758 150.342 219.836 153.738C219.914 157.134 214.382 164.25 211.538 164.88C208.694 165.51 206.246 165.672 204.428 163.854C202.61 162.036 200.792 159.51 198.428 156.27C196.064 153.03 196.628 145.92 196.628 145.92" stroke="#263238" stroke-width="1.10311" stroke-linecap="round" stroke-linejoin="round"/>
<path d="M209.798 148.626C209.61 149.689 209.53 150.769 209.558 151.848C209.496 152.758 209.779 153.657 210.35 154.368C210.692 154.716 211.184 154.998 211.25 155.478C211.248 155.694 211.188 155.906 211.076 156.09C210.964 156.275 210.805 156.426 210.614 156.528C210.229 156.722 209.858 156.943 209.504 157.188" stroke="#263238" stroke-width="1.10311" stroke-linecap="round" stroke-linejoin="round"/>
<path d="M204.92 157.56C204.92 157.56 205.274 159.858 208.352 160.338" stroke="#263238" stroke-width="1.10311" stroke-linecap="round" stroke-linejoin="round"/>
<path d="M205.238 150.378C205.238 151.044 204.95 151.578 204.596 151.578C204.242 151.578 203.954 151.044 203.954 150.378C203.954 149.712 204.242 149.178 204.596 149.178C204.95 149.178 205.238 149.718 205.238 150.378Z" fill="#263238"/>
<path d="M214.424 150.666C214.424 151.332 214.136 151.866 213.782 151.866C213.428 151.866 213.14 151.326 213.14 150.666C213.14 150.006 213.428 149.466 213.782 149.466C214.136 149.466 214.424 150 214.424 150.666Z" fill="#263238"/>
<path d="M212.57 147.756C212.57 147.756 215.57 144.756 218.084 148.104" stroke="#263238" stroke-width="2.20621" stroke-linecap="round" stroke-linejoin="round"/>
<path d="M206.252 147.816C206.252 147.816 204.356 145.692 201.368 147.816" stroke="#263238" stroke-width="2.20621" stroke-linecap="round" stroke-linejoin="round"/>
<path d="M200.72 162C200.72 162 202.55 167.04 206.636 168.474C210.722 169.908 216.146 162.474 216.146 162.474L215.864 161.508C215.864 161.508 212.306 166.128 208.352 165.342C204.398 164.556 200.492 159.192 200.492 159.192L200.72 162Z" fill="#263238"/>
<path d="M197.054 152.91C197.054 152.91 194.618 153.768 193.97 151.872C193.322 149.976 191.102 144.978 193.046 143.31C194.99 141.642 196.55 145.512 196.55 145.512" stroke="#263238" stroke-width="1.10311" stroke-linecap="round" stroke-linejoin="round"/>
<path d="M219.83 153.942C219.83 153.942 222.092 154.398 222.74 152.502C223.388 150.606 225.608 145.608 223.664 143.94C221.72 142.272 220.16 146.142 220.16 146.142" stroke="#263238" stroke-width="1.10311" stroke-linecap="round" stroke-linejoin="round"/>
<path d="M196.55 150.378C197.396 150.245 198.16 149.794 198.686 149.118C199.007 148.524 199.211 147.875 199.286 147.204C199.509 145.928 199.621 144.635 199.622 143.34C199.595 142.834 199.642 142.327 199.76 141.834C199.94 141.338 200.217 140.883 200.576 140.496C201.422 139.5 202.448 138.66 203.258 137.628C203.692 137.141 204.022 136.571 204.229 135.952C204.435 135.333 204.513 134.678 204.458 134.028C206.314 135.558 208.483 136.664 210.812 137.266C213.141 137.868 215.574 137.953 217.94 137.514C222.23 136.674 226.34 132.912 225.842 128.184C225.748 127.391 225.408 126.648 224.87 126.058C224.332 125.468 223.623 125.062 222.842 124.896C220.724 124.368 218.822 125.496 216.902 126.222C213.404 127.542 209.978 125.274 206.444 124.896C203.444 124.566 199.706 124.944 198.134 127.95C198.134 127.95 192.734 128.586 190.334 133.05C187.934 137.514 192.476 143.688 192.476 143.688C192.476 143.688 194.276 141.48 196.634 145.944L196.55 150.378Z" fill="#263238"/>
<path d="M217.598 136.008C217.598 136.008 216.194 143.328 219.86 146.874C219.86 146.874 220.664 144.672 221.474 144.132C222.058 142.833 222.305 141.408 222.193 139.988C222.081 138.568 221.613 137.199 220.832 136.008C218.12 131.748 217.598 136.008 217.598 136.008Z" fill="#263238"/>
<path opacity="0.2" d="M224.282 127.68C223.96 128.678 223.414 129.591 222.686 130.346C221.959 131.102 221.068 131.682 220.082 132.042C214.994 134.118 210.056 131.82 204.956 131.37C200.798 130.998 196.208 134.754 195.914 139.026" stroke="white" stroke-width="1.10311" stroke-linecap="round" stroke-linejoin="round"/>
<path opacity="0.2" d="M192.776 137.898C192.838 136.212 193.379 134.579 194.335 133.189C195.292 131.799 196.624 130.71 198.176 130.05" stroke="white" stroke-width="1.10311" stroke-linecap="round" stroke-linejoin="round"/>
<path d="M199.316 165.906C201.553 168.238 204.253 170.077 207.242 171.306C207.242 171.306 213.332 169.536 216.428 165.306" stroke="#263238" stroke-width="1.10311" stroke-linecap="round" stroke-linejoin="round"/>
<path d="M205.539 155.263C208.244 154.023 209.431 150.824 208.19 148.12C206.95 145.415 203.751 144.228 201.047 145.469C198.342 146.709 197.155 149.907 198.396 152.612C199.636 155.317 202.835 156.504 205.539 155.263Z" stroke="#263238" stroke-width="1.10311" stroke-linecap="round" stroke-linejoin="round"/>
<path d="M215.98 155.738C218.934 155.375 221.034 152.687 220.671 149.733C220.309 146.78 217.62 144.679 214.667 145.042C211.713 145.405 209.613 148.093 209.976 151.047C210.338 154 213.027 156.1 215.98 155.738Z" stroke="#263238" stroke-width="1.10311" stroke-linecap="round" stroke-linejoin="round"/>
<path d="M200.492 163.896C199.946 164.039 199.435 164.291 198.988 164.636C198.542 164.982 198.17 165.414 197.894 165.906C196.94 167.586 197.516 172.872 197.516 172.872C197.516 172.872 202.442 177.744 206.636 179.802L207.872 172.848L209.792 179.802C209.792 179.802 216.284 175.212 218.084 171.33C218.084 171.33 218.684 166.8 218.084 165.33C217.947 164.922 217.688 164.566 217.341 164.311C216.994 164.056 216.576 163.916 216.146 163.908" stroke="#263238" stroke-width="1.10311" stroke-linecap="round" stroke-linejoin="round"/>
<path d="M192.776 210.42C192.776 210.42 190.85 197.52 188.288 192.258" stroke="#263238" stroke-width="1.10311" stroke-linecap="round" stroke-linejoin="round"/>
<path d="M182.75 180.81C184.241 182.93 185.573 185.158 186.734 187.476" stroke="#263238" stroke-width="1.10311" stroke-linecap="round" stroke-linejoin="round"/>
<path d="M233.336 190.44C233.853 188.283 234.562 186.177 235.454 184.146" stroke="#263238" stroke-width="1.10311" stroke-linecap="round" stroke-linejoin="round"/>
<path d="M229.358 210.42C229.358 210.42 230.744 201.576 232.4 194.292" stroke="#263238" stroke-width="1.10311" stroke-linecap="round" stroke-linejoin="round"/>
<path d="M231.71 198C233.049 196.224 234.933 194.934 237.074 194.328" stroke="#263238" stroke-width="1.10311" stroke-linecap="round" stroke-linejoin="round"/>
<path d="M218.348 170.154C218.348 170.154 229.526 174.624 236.744 177.162C236.744 177.162 245.624 185.508 255.146 214.434C255.146 214.434 246.422 229.11 229.826 233.814" stroke="#263238" stroke-width="1.10311" stroke-linecap="round" stroke-linejoin="round"/>
<path d="M232.706 220.278L240.728 213.6C240.728 213.6 244.97 210.378 249.38 212.58" stroke="#263238" stroke-width="1.10311" stroke-linecap="round" stroke-linejoin="round"/>
<path d="M232.4 197.202C232.4 197.202 239.03 207 240.728 213.6" stroke="#263238" stroke-width="1.10311" stroke-linecap="round" stroke-linejoin="round"/>
<path d="M187.088 215.826L184.742 213.6C184.742 213.6 181.262 213 177.314 215.634" stroke="#263238" stroke-width="1.10311" stroke-linecap="round" stroke-linejoin="round"/>
<path d="M184.742 213.6C184.742 213.6 187.658 204 190.532 199.086" stroke="#263238" stroke-width="1.10311" stroke-linecap="round" stroke-linejoin="round"/>
<path d="M197.348 171.33C197.348 171.33 181.262 177.366 179.684 179.13C178.106 180.894 172.112 214.644 171.95 218.508C171.812 221.964 184.34 229.722 190.55 232.992" stroke="#263238" stroke-width="1.10311" stroke-linecap="round" stroke-linejoin="round"/>
<path d="M209.378 182.736C209.378 182.946 209.316 183.151 209.199 183.326C209.082 183.501 208.916 183.637 208.722 183.717C208.528 183.797 208.315 183.818 208.109 183.777C207.903 183.736 207.713 183.635 207.565 183.487C207.416 183.338 207.315 183.149 207.274 182.943C207.233 182.737 207.254 182.523 207.335 182.329C207.415 182.135 207.551 181.97 207.726 181.853C207.9 181.736 208.106 181.674 208.316 181.674C208.456 181.673 208.594 181.7 208.723 181.753C208.852 181.806 208.97 181.884 209.069 181.983C209.167 182.082 209.246 182.199 209.299 182.328C209.352 182.458 209.379 182.596 209.378 182.736Z" fill="#263238"/>
<path d="M227.99 239.268H191.39C191.162 239.268 190.944 239.177 190.783 239.016C190.622 238.856 190.532 238.637 190.532 238.41C190.532 238.182 190.622 237.964 190.783 237.803C190.944 237.642 191.162 237.552 191.39 237.552H227.99C228.217 237.552 228.436 237.642 228.596 237.803C228.757 237.964 228.848 238.182 228.848 238.41C228.848 238.637 228.757 238.856 228.596 239.016C228.436 239.177 228.217 239.268 227.99 239.268Z" fill="#263238"/>
<path d="M229.274 236.4L234.176 213.36C234.252 213.003 234.247 212.633 234.162 212.278C234.076 211.923 233.913 211.591 233.683 211.307C233.452 211.024 233.162 210.795 232.832 210.639C232.502 210.482 232.141 210.401 231.776 210.402H188.996C188.634 210.402 188.276 210.482 187.949 210.637C187.621 210.792 187.333 211.018 187.103 211.298C186.873 211.578 186.709 211.906 186.621 212.257C186.533 212.608 186.525 212.975 186.596 213.33L190.994 235.602C191.102 236.149 191.393 236.643 191.819 237.002C192.246 237.361 192.782 237.563 193.34 237.576L226.814 238.344C227.386 238.357 227.945 238.169 228.394 237.815C228.843 237.46 229.154 236.959 229.274 236.4Z" fill="white" stroke="#263238" stroke-width="1.10311" stroke-linecap="round" stroke-linejoin="round"/>
<path d="M213.662 223.698C213.661 224.373 213.459 225.032 213.084 225.593C212.708 226.154 212.174 226.59 211.55 226.848C210.926 227.105 210.24 227.172 209.578 227.039C208.916 226.907 208.308 226.581 207.832 226.104C207.355 225.626 207.03 225.018 206.899 224.356C206.768 223.694 206.836 223.007 207.094 222.384C207.353 221.76 207.79 221.228 208.352 220.853C208.913 220.478 209.573 220.278 210.248 220.278C210.697 220.278 211.141 220.366 211.556 220.538C211.97 220.71 212.347 220.962 212.664 221.28C212.981 221.598 213.232 221.975 213.404 222.39C213.575 222.804 213.663 223.249 213.662 223.698Z" fill="#263238"/>
<path d="M220.376 212.604H225.458" stroke="#263238" stroke-width="1.10311" stroke-linecap="round" stroke-linejoin="round"/>
<path d="M196.106 212.604H215.396" stroke="#263238" stroke-width="1.10311" stroke-linecap="round" stroke-linejoin="round"/>
<path d="M229.358 260.862L225.458 271.098C225.458 271.098 215.51 268.59 202.772 265.98C189.446 263.25 175.532 259.716 168.314 247.05C167.438 245.508 166.85 243.684 167.264 241.956C168.302 237.582 173.996 236.394 177.746 235.956C180.103 235.701 182.473 235.569 184.844 235.56C186.044 235.56 190.034 234.906 191 235.62C192.451 236.679 194 237.597 195.626 238.362C197.756 239.268 228.848 237.552 228.848 237.552C229.389 236.372 229.72 235.107 229.826 233.814C234.716 231.33 246.026 229.23 250.826 230.16C258.344 231.618 262.73 236.004 261.896 240.6C261.062 245.196 244.454 257.52 229.358 260.862Z" fill="#263238"/>
<path d="M229.358 260.862C229.358 260.862 219.896 258.354 212.168 253.134C204.44 247.914 198.404 241.854 187.634 243.108" stroke="white" stroke-width="1.10311" stroke-linecap="round" stroke-linejoin="round"/>
<path d="M210.398 251.904C215.282 250.5 218.864 247.338 222.782 244.308C226.914 240.991 231.352 238.074 236.036 235.596" stroke="white" stroke-width="1.10311" stroke-linecap="round" stroke-linejoin="round"/>
<path d="M208.676 151.23H210.11" stroke="#263238" stroke-width="1.10311" stroke-linecap="round" stroke-linejoin="round"/>
</svg>
