<svg width="354" height="300" viewBox="0 0 354 300" fill="none" xmlns="http://www.w3.org/2000/svg">
<mask id="mask0_763_2" style="mask-type:alpha" maskUnits="userSpaceOnUse" x="0" y="62" width="354" height="238">
<path d="M0 77C0 68.7157 6.71573 62 15 62H338.801C347.085 62 353.801 68.7157 353.801 77V285C353.801 293.284 347.085 300 338.801 300H15C6.71574 300 0 293.284 0 285V77Z" fill="#AEDFDC"/>
</mask>
<g mask="url(#mask0_763_2)">
<rect x="0.397827" y="62" width="351" height="238" rx="15" fill="#00C2CB" fill-opacity="0.24"/>
</g>
<path opacity="0.7" d="M58.1558 100.254C58.1558 100.254 41.4278 143.454 64.9358 186.954C88.4438 230.454 136.864 253.434 175.618 273.084C214.372 292.734 254.614 283.164 273.736 250.98C292.858 218.796 266.632 195.822 266.596 149.928C266.56 104.034 273.466 91.8841 248.596 53.1121C223.726 14.3401 162.76 5.75409 116.656 34.5121C70.5518 63.2701 58.1558 100.254 58.1558 100.254Z" fill="white"/>
<path d="M58.7978 258.996H185.512C186.022 258.18 186.538 257.364 187.066 256.566C200.698 235.818 222.526 221.022 246.364 214.08C257.044 210.972 268.612 209.124 277.192 202.044C286.024 194.766 290.08 183.15 291.832 171.84C293.962 158.148 292.81 142.794 283.516 132.516C272.602 120.45 254.314 119.094 240.094 111.186C215.62 97.566 206.134 66.552 183.868 49.56C169.798 38.826 150.814 34.668 133.798 37.02C109.684 40.362 86.9978 56.52 80.1878 80.22C78.2301 87.1227 77.531 94.3215 78.1238 101.472C79.2098 115.602 82.2518 129.912 79.3838 143.79C76.2218 159.084 66.2738 171.99 60.3278 186.444C52.9238 204.444 51.9278 224.604 55.0658 243.792C55.9057 248.951 57.1536 254.035 58.7978 258.996Z" fill="#00C2CB"/>
<path opacity="0.7" d="M58.7978 258.996H185.512C186.022 258.18 186.538 257.364 187.066 256.566C200.698 235.818 222.526 221.022 246.364 214.08C257.044 210.972 268.612 209.124 277.192 202.044C286.024 194.766 290.08 183.15 291.832 171.84C293.962 158.148 292.81 142.794 283.516 132.516C272.602 120.45 254.314 119.094 240.094 111.186C215.62 97.566 206.134 66.552 183.868 49.56C169.798 38.826 150.814 34.668 133.798 37.02C109.684 40.362 86.9978 56.52 80.1878 80.22C78.2301 87.1227 77.531 94.3215 78.1238 101.472C79.2098 115.602 82.2518 129.912 79.3838 143.79C76.2218 159.084 66.2738 171.99 60.3278 186.444C52.9238 204.444 51.9278 224.604 55.0658 243.792C55.9057 248.951 57.1536 254.035 58.7978 258.996Z" fill="white"/>
<path d="M42.5918 258.996H293.584" stroke="#263238" stroke-linecap="round" stroke-linejoin="round"/>
<path d="M184.798 68.0341V58.6141L177.742 58.0141C177.329 56.5408 176.745 55.1211 176.002 53.7841L180.556 48.3841L173.896 41.7241L168.496 46.2781C167.17 45.5317 165.76 44.9456 164.296 44.5321L163.696 37.4761H154.198L153.598 44.5321C152.134 44.9456 150.724 45.5317 149.398 46.2781L143.998 41.7241L137.338 48.3841L141.892 53.7841C141.148 55.1211 140.564 56.5408 140.152 58.0141L133.096 58.6141V68.0341L140.152 68.6341C140.566 70.097 141.15 71.5065 141.892 72.8341L137.338 78.2341L143.998 84.8941L149.398 80.3401C150.724 81.0864 152.134 81.6725 153.598 82.0861L154.198 89.1421H163.618L164.218 82.0861C165.692 81.6731 167.112 81.087 168.448 80.3401L173.848 84.8941L180.508 78.2341L175.954 72.8341C176.695 71.5065 177.279 70.097 177.694 68.6341L184.798 68.0341ZM158.938 74.2681C156.773 74.2681 154.657 73.6262 152.858 72.4237C151.058 71.2211 149.655 69.5119 148.827 67.5122C147.999 65.5124 147.782 63.3119 148.204 61.189C148.626 59.0661 149.669 57.116 151.199 55.5855C152.73 54.055 154.68 53.0126 156.803 52.5904C158.926 52.1681 161.126 52.3848 163.126 53.2131C165.126 54.0415 166.835 55.4442 168.037 57.2439C169.24 59.0436 169.882 61.1596 169.882 63.3241C169.881 64.7631 169.597 66.1878 169.045 67.5168C168.493 68.8458 167.685 70.053 166.666 71.0694C165.648 72.0858 164.439 72.8914 163.108 73.4403C161.778 73.9892 160.353 74.2704 158.914 74.2681H158.938Z" stroke="#263238" stroke-linecap="round" stroke-linejoin="round"/>
<path d="M286.012 160.104V155.592L282.628 155.298C282.429 154.593 282.149 153.912 281.794 153.27L283.978 150.672L280.798 147.48L278.206 149.664C277.565 149.307 276.885 149.027 276.178 148.83L275.884 145.446H271.366L271.078 148.83C270.371 149.026 269.69 149.306 269.05 149.664L266.452 147.48L263.26 150.672L265.444 153.27C265.084 153.911 264.802 154.591 264.604 155.298L261.22 155.592V160.104L264.604 160.398C264.802 161.105 265.084 161.786 265.444 162.426L263.242 165L266.434 168.192L269.032 166.008C269.672 166.367 270.353 166.647 271.06 166.842L271.348 170.226H275.866L276.16 166.842C276.867 166.646 277.547 166.366 278.188 166.008L280.78 168.192L283.978 165L281.794 162.402C282.149 161.761 282.429 161.08 282.628 160.374L286.012 160.104ZM273.61 163.104C272.571 163.105 271.556 162.799 270.691 162.222C269.827 161.646 269.153 160.827 268.755 159.868C268.357 158.908 268.252 157.853 268.454 156.834C268.656 155.815 269.155 154.879 269.889 154.144C270.623 153.409 271.559 152.909 272.577 152.706C273.596 152.503 274.652 152.606 275.612 153.003C276.571 153.401 277.391 154.073 277.969 154.937C278.546 155.8 278.854 156.816 278.854 157.854C278.853 158.544 278.716 159.226 278.452 159.863C278.187 160.5 277.8 161.078 277.312 161.565C276.824 162.052 276.245 162.438 275.607 162.701C274.97 162.964 274.287 163.099 273.598 163.098L273.61 163.104Z" stroke="#263238" stroke-linecap="round" stroke-linejoin="round"/>
<path d="M282.598 77.88C283.077 75.8064 283.011 73.644 282.405 71.6037C281.8 69.5633 280.676 67.7146 279.144 66.2378C277.611 64.7609 275.722 63.7063 273.661 63.1768C271.6 62.6472 269.436 62.6607 267.382 63.216C266.13 60.9965 264.195 59.2408 261.864 58.2108C259.533 57.1808 256.932 56.9316 254.448 57.5003C251.964 58.069 249.731 59.4251 248.08 61.3666C246.43 63.3081 245.451 65.731 245.29 68.274C243.984 68.0243 242.64 68.0472 241.344 68.3413C240.047 68.6354 238.825 69.1944 237.754 69.9831C236.684 70.7719 235.788 71.7734 235.123 72.9248C234.458 74.0762 234.038 75.3527 233.89 76.674C232.552 76.8147 231.316 77.4494 230.422 78.4537C229.527 79.4581 229.04 80.76 229.055 82.1047C229.07 83.4493 229.586 84.74 230.503 85.7242C231.419 86.7084 232.67 87.3152 234.01 87.426H279.178C280.284 87.4179 281.361 87.0703 282.263 86.4303C283.165 85.7903 283.849 84.8887 284.222 83.8475C284.595 82.8062 284.639 81.6755 284.349 80.6083C284.058 79.541 283.447 78.5887 282.598 77.88Z" stroke="#263238" stroke-linecap="round" stroke-linejoin="round"/>
<path d="M257.776 83.2979V95.7479" stroke="#263238" stroke-linecap="round" stroke-linejoin="round"/>
<path d="M257.776 75.834V80.808" stroke="#263238" stroke-linecap="round" stroke-linejoin="round"/>
<path d="M257.776 71.178V73.842" stroke="#263238" stroke-linecap="round" stroke-linejoin="round"/>
<path d="M255.424 94.2959L257.776 97.2059L260.128 94.2959" stroke="#263238" stroke-linecap="round" stroke-linejoin="round"/>
<path d="M144.982 223.89C145.46 221.816 145.392 219.654 144.786 217.614C144.179 215.574 143.055 213.725 141.522 212.249C139.99 210.772 138.101 209.718 136.039 209.188C133.978 208.658 131.815 208.672 129.76 209.226C128.509 207.005 126.574 205.248 124.243 204.217C121.912 203.186 119.309 202.937 116.825 203.507C114.34 204.076 112.107 205.434 110.457 207.378C108.808 209.321 107.832 211.746 107.674 214.29C107.081 214.177 106.478 214.118 105.874 214.116C103.5 214.115 101.209 214.987 99.4383 216.568C97.6674 218.148 96.5408 220.326 96.2738 222.684C94.9365 222.824 93.6994 223.458 92.8048 224.462C91.9101 225.466 91.4222 226.768 91.4365 228.112C91.4507 229.457 91.9661 230.748 92.8819 231.732C93.7976 232.717 95.0478 233.325 96.3878 233.436H141.598C142.702 233.425 143.777 233.074 144.676 232.433C145.575 231.792 146.256 230.89 146.627 229.849C146.998 228.809 147.041 227.68 146.75 226.614C146.459 225.549 145.848 224.598 145 223.89H144.982Z" stroke="#263238" stroke-linecap="round" stroke-linejoin="round"/>
<path d="M120.142 231.09V218.646" stroke="#263238" stroke-linecap="round" stroke-linejoin="round"/>
<path d="M120.142 238.56V233.58" stroke="#263238" stroke-linecap="round" stroke-linejoin="round"/>
<path d="M120.142 243.216V240.552" stroke="#263238" stroke-linecap="round" stroke-linejoin="round"/>
<path d="M122.494 220.098L120.142 217.188L117.79 220.098" stroke="#263238" stroke-linecap="round" stroke-linejoin="round"/>
<path d="M49.4858 65.9399H200.356C201.031 65.9399 201.678 66.208 202.155 66.6851C202.632 67.1622 202.9 67.8092 202.9 68.4839V75.5999H46.9418V68.4839C46.9418 67.8092 47.2099 67.1622 47.6869 66.6851C48.164 66.208 48.8111 65.9399 49.4858 65.9399Z" fill="#00C2CB" stroke="#263238" stroke-linecap="round" stroke-linejoin="round"/>
<path d="M211.396 77.3818H53.7698V188.304H211.396V77.3818Z" fill="white" stroke="#263238" stroke-linecap="round" stroke-linejoin="round"/>
<path d="M213.808 70.764C213.808 71.2387 213.667 71.7027 213.403 72.0974C213.14 72.4921 212.765 72.7997 212.326 72.9813C211.888 73.163 211.405 73.2105 210.94 73.1179C210.474 73.0253 210.046 72.7967 209.711 72.4611C209.375 72.1254 209.147 71.6978 209.054 71.2322C208.961 70.7667 209.009 70.2841 209.191 69.8456C209.372 69.407 209.68 69.0322 210.074 68.7685C210.469 68.5048 210.933 68.364 211.408 68.364C212.044 68.364 212.655 68.6169 213.105 69.067C213.555 69.517 213.808 70.1275 213.808 70.764Z" fill="white" stroke="#263238" stroke-linecap="round" stroke-linejoin="round"/>
<path d="M205.312 70.764C205.312 71.2387 205.171 71.7027 204.907 72.0974C204.644 72.4921 204.269 72.7997 203.83 72.9813C203.392 73.163 202.909 73.2105 202.444 73.1179C201.978 73.0253 201.55 72.7967 201.215 72.4611C200.879 72.1254 200.651 71.6978 200.558 71.2322C200.465 70.7667 200.513 70.2841 200.695 69.8456C200.876 69.407 201.184 69.0322 201.578 68.7685C201.973 68.5048 202.437 68.364 202.912 68.364C203.548 68.364 204.159 68.6169 204.609 69.067C205.059 69.517 205.312 70.1275 205.312 70.764Z" fill="white" stroke="#263238" stroke-linecap="round" stroke-linejoin="round"/>
<path d="M196.798 70.764C196.798 71.2387 196.657 71.7027 196.393 72.0974C196.13 72.4921 195.755 72.7997 195.316 72.9813C194.878 73.163 194.395 73.2105 193.93 73.1179C193.464 73.0253 193.036 72.7967 192.701 72.4611C192.365 72.1254 192.137 71.6978 192.044 71.2322C191.951 70.7667 191.999 70.2841 192.181 69.8456C192.362 69.407 192.67 69.0322 193.064 68.7685C193.459 68.5048 193.923 68.364 194.398 68.364C195.034 68.364 195.645 68.6169 196.095 69.067C196.545 69.517 196.798 70.1275 196.798 70.764Z" fill="white" stroke="#263238" stroke-linecap="round" stroke-linejoin="round"/>
<path d="M206.62 82.1401H200.38" stroke="#263238" stroke-width="2" stroke-linecap="round" stroke-linejoin="round"/>
<path d="M206.62 84.6719H200.38" stroke="#263238" stroke-width="2" stroke-linecap="round" stroke-linejoin="round"/>
<path d="M206.62 87.2041H200.38" stroke="#263238" stroke-width="2" stroke-linecap="round" stroke-linejoin="round"/>
<path d="M64.6838 147.588H111.922" stroke="#263238" stroke-width="2" stroke-linecap="round" stroke-linejoin="round"/>
<path d="M64.6838 151.314H111.922" stroke="#263238" stroke-width="2" stroke-linecap="round" stroke-linejoin="round"/>
<path d="M64.6838 155.106H101.932" stroke="#263238" stroke-width="2" stroke-linecap="round" stroke-linejoin="round"/>
<path d="M164.854 78.6299V78.9299" stroke="#263238" stroke-linecap="round" stroke-linejoin="round"/>
<path d="M164.854 80.73V185.268" stroke="#263238" stroke-linecap="round" stroke-linejoin="round" stroke-dasharray="1 3"/>
<path d="M164.854 186.168V186.468" stroke="#263238" stroke-linecap="round" stroke-linejoin="round"/>
<path d="M55.6658 163.428H55.9658" stroke="#263238" stroke-linecap="round" stroke-linejoin="round"/>
<path d="M57.7598 163.428H207.784" stroke="#263238" stroke-linecap="round" stroke-linejoin="round" stroke-dasharray="1 2.99"/>
<path d="M208.684 163.428H208.984" stroke="#263238" stroke-linecap="round" stroke-linejoin="round"/>
<path d="M165.892 162.39H163.822V164.46H165.892V162.39Z" fill="white" stroke="#263238" stroke-linecap="round" stroke-linejoin="round"/>
<path d="M156.592 143.544H128.956" stroke="#263238" stroke-linecap="round" stroke-linejoin="round"/>
<path d="M157.126 156.324C157.126 156.324 157.126 143.478 142.774 143.478C128.422 143.478 128.398 156.324 128.398 156.324" stroke="#263238" stroke-linecap="round" stroke-linejoin="round"/>
<path d="M157.126 157.536C157.795 157.536 158.338 156.993 158.338 156.324C158.338 155.654 157.795 155.112 157.126 155.112C156.456 155.112 155.914 155.654 155.914 156.324C155.914 156.993 156.456 157.536 157.126 157.536Z" fill="#00C2CB" stroke="#263238" stroke-linecap="round" stroke-linejoin="round"/>
<path d="M127.198 156.324C127.198 156.087 127.268 155.855 127.4 155.657C127.532 155.46 127.719 155.306 127.939 155.215C128.158 155.125 128.399 155.101 128.632 155.147C128.865 155.193 129.079 155.308 129.246 155.476C129.414 155.643 129.528 155.857 129.575 156.09C129.621 156.323 129.597 156.564 129.506 156.783C129.416 157.003 129.262 157.19 129.065 157.322C128.867 157.454 128.635 157.524 128.398 157.524C128.08 157.524 127.774 157.398 127.549 157.173C127.324 156.948 127.198 156.642 127.198 156.324Z" fill="#00C2CB" stroke="#263238" stroke-linecap="round" stroke-linejoin="round"/>
<path d="M156.064 144.54H158.188V142.416H156.064V144.54Z" fill="#00C2CB" stroke="#263238" stroke-linecap="round" stroke-linejoin="round"/>
<path d="M141.712 144.54H143.836V142.416H141.712V144.54Z" fill="#00C2CB" stroke="#263238" stroke-linecap="round" stroke-linejoin="round"/>
<path d="M127.36 144.54H129.484V142.416H127.36V144.54Z" fill="#00C2CB" stroke="#263238" stroke-linecap="round" stroke-linejoin="round"/>
<path d="M81.8558 104.922V100.674L78.6818 100.404C78.4934 99.7401 78.2297 99.1 77.8958 98.496L79.9478 96.06L76.9478 93.06L74.5058 95.112C73.904 94.7738 73.2633 94.5098 72.5978 94.326L72.3218 91.146H68.0858L67.8098 94.326C67.146 94.509 66.5072 94.773 65.9078 95.112L63.4658 93.06L60.4658 96.06L62.5178 98.496C62.1815 99.0988 61.9176 99.7392 61.7318 100.404L58.5518 100.674V104.922L61.7318 105.192C61.9187 105.856 62.1825 106.497 62.5178 107.1L60.4658 109.536L63.4658 112.536L65.9078 110.484C66.5034 110.822 67.1381 111.086 67.7978 111.27L68.0738 114.45H72.3158L72.5918 111.27C73.2552 111.086 73.8939 110.822 74.4938 110.484L76.9358 112.536L79.9358 109.536L77.8838 107.1C78.2167 106.496 78.4803 105.856 78.6698 105.192L81.8558 104.922ZM70.1978 107.73C69.2224 107.73 68.2688 107.441 67.4578 106.899C66.6467 106.357 66.0145 105.587 65.6413 104.685C65.268 103.784 65.1703 102.793 65.3606 101.836C65.5509 100.879 66.0206 100 66.7104 99.3105C67.4001 98.6208 68.2789 98.1511 69.2356 97.9608C70.1924 97.7705 71.184 97.8681 72.0852 98.2414C72.9864 98.6147 73.7567 99.2469 74.2986 100.058C74.8406 100.869 75.1298 101.823 75.1298 102.798C75.1298 104.106 74.6102 105.361 73.6853 106.285C72.7603 107.21 71.5059 107.73 70.1978 107.73Z" fill="#00C2CB" stroke="#263238" stroke-linecap="round" stroke-linejoin="round"/>
<path d="M96.2798 114.438V111.534L94.1018 111.342C93.9765 110.888 93.7973 110.451 93.5678 110.04L94.9718 108.372L92.9138 106.32L91.2458 107.724C90.8338 107.495 90.3969 107.314 89.9438 107.184L89.7578 105H86.8538L86.6618 107.178C86.2087 107.308 85.7719 107.489 85.3598 107.718L83.6918 106.314L81.6338 108.366L83.0438 110.034C82.81 110.444 82.6286 110.881 82.5038 111.336L80.3258 111.528V114.432L82.5038 114.618C82.6275 115.073 82.8089 115.511 83.0438 115.92L81.6338 117.6L83.6918 119.652L85.3598 118.248C85.7719 118.477 86.2087 118.658 86.6618 118.788L86.8538 120.96H89.7578L89.9438 118.788C90.3969 118.658 90.8338 118.477 91.2458 118.248L92.9138 119.652L94.9718 117.6L93.5978 115.926C93.8283 115.515 94.0077 115.078 94.1318 114.624L96.2798 114.438ZM88.3058 116.358C87.6372 116.359 86.9833 116.162 86.4269 115.791C85.8704 115.42 85.4365 114.893 85.1801 114.275C84.9237 113.658 84.8563 112.978 84.9864 112.322C85.1166 111.667 85.4384 111.064 85.9112 110.591C86.384 110.119 86.9865 109.797 87.6423 109.667C88.2981 109.536 88.9778 109.604 89.5953 109.86C90.2128 110.117 90.7403 110.551 91.111 111.107C91.4818 111.663 91.679 112.317 91.6778 112.986C91.6762 113.88 91.3205 114.737 90.6884 115.369C90.0564 116.001 89.1997 116.356 88.3058 116.358Z" fill="#00C2CB" stroke="#263238" stroke-linecap="round" stroke-linejoin="round"/>
<path d="M170.782 170.484H194.02" stroke="#263238" stroke-width="2" stroke-linecap="round" stroke-linejoin="round"/>
<path d="M170.782 174.21H194.02" stroke="#263238" stroke-width="2" stroke-linecap="round" stroke-linejoin="round"/>
<path d="M170.782 178.002H184.03" stroke="#263238" stroke-width="2" stroke-linecap="round" stroke-linejoin="round"/>
<path d="M140.164 179.55H127.93C127.134 179.55 126.371 179.234 125.809 178.671C125.246 178.109 124.93 177.345 124.93 176.55C124.93 175.754 125.246 174.991 125.809 174.428C126.371 173.866 127.134 173.55 127.93 173.55H140.164C140.959 173.55 141.723 173.866 142.285 174.428C142.848 174.991 143.164 175.754 143.164 176.55C143.164 177.345 142.848 178.109 142.285 178.671C141.723 179.234 140.959 179.55 140.164 179.55Z" fill="#00C2CB" stroke="#263238" stroke-linecap="round" stroke-linejoin="round"/>
<path d="M162.964 179.55H150.73C149.934 179.55 149.171 179.234 148.608 178.671C148.046 178.109 147.73 177.345 147.73 176.55C147.73 175.754 148.046 174.991 148.608 174.428C149.171 173.866 149.934 173.55 150.73 173.55H162.964C163.759 173.55 164.523 173.866 165.085 174.428C165.648 174.991 165.964 175.754 165.964 176.55C165.964 177.345 165.648 178.109 165.085 178.671C164.523 179.234 163.759 179.55 162.964 179.55Z" fill="#00C2CB" stroke="#263238" stroke-linecap="round" stroke-linejoin="round"/>
<path d="M198.424 115.182H172.48V141.126H198.424V115.182Z" fill="white" stroke="#263238" stroke-linecap="round" stroke-linejoin="round"/>
<path d="M172.48 115.182L198.424 141.126" stroke="#263238" stroke-linecap="round" stroke-linejoin="round"/>
<path d="M198.424 115.182L172.48 141.126" stroke="#263238" stroke-linecap="round" stroke-linejoin="round"/>
<path d="M182.656 85.728V91.782L179.986 94.452H173.932V85.728H182.656Z" fill="white" stroke="#263238" stroke-linecap="round" stroke-linejoin="round"/>
<path d="M182.656 91.7817L179.986 94.4517V91.7817H182.656Z" fill="white" stroke="#263238" stroke-linecap="round" stroke-linejoin="round"/>
<path d="M89.8778 132.546V138.6L87.2078 141.276H81.1538V132.546H89.8778Z" fill="white" stroke="#263238" stroke-linecap="round" stroke-linejoin="round"/>
<path d="M89.8778 138.6L87.2078 141.276V138.6H89.8778Z" fill="white" stroke="#263238" stroke-linecap="round" stroke-linejoin="round"/>
<path d="M56.9138 169.848V175.902L54.2438 178.572H48.1838V169.848H56.9138Z" fill="white" stroke="#263238" stroke-linecap="round" stroke-linejoin="round"/>
<path d="M56.9138 175.902L54.2438 178.572V175.902H56.9138Z" fill="white" stroke="#263238" stroke-linecap="round" stroke-linejoin="round"/>
<path d="M226.6 99.7681H194.404V119.946H226.6V99.7681Z" fill="#263238" stroke="#263238" stroke-linecap="round" stroke-linejoin="round"/>
<path d="M226.6 99.7681H194.404V102.834H226.6V99.7681Z" fill="#00C2CB" stroke="#263238" stroke-linecap="round" stroke-linejoin="round"/>
<path d="M197.686 105.42H205.918" stroke="white" stroke-linecap="round" stroke-linejoin="round"/>
<path d="M201.802 107.718H216.046" stroke="white" stroke-linecap="round" stroke-linejoin="round"/>
<path d="M199.984 109.86H204.178" stroke="white" stroke-linecap="round" stroke-linejoin="round"/>
<path d="M201.802 112.386H211.396" stroke="white" stroke-linecap="round" stroke-linejoin="round"/>
<path d="M197.686 114.678H205.918" stroke="white" stroke-linecap="round" stroke-linejoin="round"/>
<path d="M105.514 180.954H73.3178V201.132H105.514V180.954Z" fill="#263238" stroke="#263238" stroke-linecap="round" stroke-linejoin="round"/>
<path d="M105.514 180.954H73.3178V184.02H105.514V180.954Z" fill="#00C2CB" stroke="#263238" stroke-linecap="round" stroke-linejoin="round"/>
<path d="M76.6058 186.612H84.8318" stroke="white" stroke-linecap="round" stroke-linejoin="round"/>
<path d="M80.7158 188.904H94.9598" stroke="white" stroke-linecap="round" stroke-linejoin="round"/>
<path d="M78.8978 191.046H83.0918" stroke="white" stroke-linecap="round" stroke-linejoin="round"/>
<path d="M80.7158 193.572H90.3098" stroke="white" stroke-linecap="round" stroke-linejoin="round"/>
<path d="M76.6058 195.87H84.8318" stroke="white" stroke-linecap="round" stroke-linejoin="round"/>
<path d="M117.598 34.8H88.0178C87.6714 34.8016 87.3396 34.9399 87.0947 35.1849C86.8497 35.4299 86.7114 35.7616 86.7098 36.108V49.908C86.7114 50.2539 86.8499 50.5851 87.095 50.8291C87.3402 51.0731 87.672 51.2101 88.0178 51.21H101.278L102.79 56.61L104.308 51.21H117.598C117.944 51.2101 118.275 51.0731 118.521 50.8291C118.766 50.5851 118.904 50.2539 118.906 49.908V36.108C118.904 35.7616 118.766 35.4299 118.521 35.1849C118.276 34.9399 117.944 34.8016 117.598 34.8Z" fill="#00C2CB" stroke="#263238" stroke-linecap="round" stroke-linejoin="round"/>
<path d="M91.6178 38.748H113.968" stroke="#263238" stroke-width="2" stroke-linecap="round" stroke-linejoin="round"/>
<path d="M91.6178 41.5801H113.968" stroke="#263238" stroke-width="2" stroke-linecap="round" stroke-linejoin="round"/>
<path d="M91.6178 44.4121H113.968" stroke="#263238" stroke-width="2" stroke-linecap="round" stroke-linejoin="round"/>
<path d="M91.6178 47.2441H108.46" stroke="#263238" stroke-width="2" stroke-linecap="round" stroke-linejoin="round"/>
<path d="M166.12 132.948C162.946 133.218 158.92 129.426 158.92 129.426C158.843 129.506 158.748 129.566 158.643 129.603C158.539 129.64 158.427 129.652 158.317 129.638C158.207 129.624 158.101 129.584 158.009 129.523C157.917 129.461 157.841 129.378 157.786 129.282C157.27 128.538 155.032 126.816 154.906 125.328C154.78 123.84 157.42 121.428 157.42 121.428C155.386 121.98 155.17 120.786 155.17 120.786C155.17 120.786 158.596 117.96 159.796 117.882C160.264 117.852 162.304 119.028 164.278 120.612C166.342 122.274 170.218 128.124 170.218 128.124C170.218 128.124 183.328 137.646 186.64 140.082C191.014 143.298 196.198 149.004 196.198 149.004C196.198 149.004 213.598 156.852 218.398 161.166L211.906 176.538C211.906 176.538 196.084 165.936 194.506 163.248C192.928 160.56 191.344 162.174 189.76 160.416C188.176 158.658 186.658 156.648 186.658 156.648C183.841 155.288 181.284 153.444 179.104 151.2C175.408 147.402 172.15 141.6 170.104 138.108C169.045 136.196 167.701 134.456 166.12 132.948Z" fill="white" stroke="#263238" stroke-linecap="round" stroke-linejoin="round"/>
<path d="M167.086 130.704C167.086 130.704 162.364 129.558 161.956 126.444C161.776 125.654 161.43 124.912 160.942 124.266C160.942 124.266 156.538 124.05 156.814 122.256L162.694 121.734C164.834 122.556 166.636 124.073 167.812 126.042" fill="white"/>
<path d="M167.086 130.704C167.086 130.704 162.364 129.558 161.956 126.444C161.776 125.654 161.43 124.912 160.942 124.266C160.942 124.266 156.538 124.05 156.814 122.256L162.694 121.734C164.834 122.556 166.636 124.073 167.812 126.042" stroke="#263238" stroke-linecap="round" stroke-linejoin="round"/>
<path d="M158.914 129.426C159.123 129.037 159.193 128.588 159.112 128.154C159.112 128.154 160.408 127.914 160.264 126.768C160.264 126.768 162.184 126.534 160.942 124.266" stroke="#263238" stroke-linecap="round" stroke-linejoin="round"/>
<path d="M160.264 126.768C160.264 126.768 157.678 124.854 157.39 123.978" stroke="#263238" stroke-linecap="round" stroke-linejoin="round"/>
<path d="M159.112 128.154C159.112 128.154 156.358 126.474 156.31 125.496" stroke="#263238" stroke-linecap="round" stroke-linejoin="round"/>
<path d="M159.742 119.526C159.742 119.526 158.866 121.098 157.414 121.428" stroke="#263238" stroke-linecap="round" stroke-linejoin="round"/>
<path d="M159.304 120.138C159.764 120.378 160.199 120.666 160.6 120.996" stroke="#263238" stroke-linecap="round" stroke-linejoin="round"/>
<path d="M259.87 173.28C253.08 170.406 246.077 168.067 238.924 166.284C228.388 163.818 211.324 161.616 211.324 161.616C211.324 161.616 216.016 209.496 214.78 212.376C213.544 215.256 206.128 224.928 206.128 224.928C206.128 224.928 246.262 240.576 253.258 241.908C260.254 243.24 256.606 218.958 256.606 218.958C256.606 218.958 263.998 188.094 259.87 173.28Z" fill="#263238"/>
<path d="M245.464 168.138C245.464 168.138 246.418 169.938 243.91 170.88C237.412 173.28 230.488 171.162 231.226 168.618C231.508 167.646 233.116 168.618 233.026 165.018C232.982 164.463 232.833 163.921 232.588 163.422C232.129 162.448 231.577 161.522 230.938 160.656C230.244 159.692 229.501 158.765 228.712 157.878C228.712 157.878 239.026 151.278 246.676 157.878C246.664 157.848 243.82 159.288 245.464 168.138Z" fill="white" stroke="#263238" stroke-linecap="round" stroke-linejoin="round"/>
<path d="M258.244 253.416C254.182 260.016 233.572 263.142 222.322 262.848C211.072 262.554 178.702 247.248 176.506 243.984C174.472 240.984 169.474 231.042 177.178 225.036C177.831 224.531 178.526 224.082 179.254 223.692C184.528 220.836 219.604 229.842 219.604 229.842C219.604 229.842 221.776 228.468 222.574 228.57C225.022 228.882 226.774 230.862 231.718 232.272C235.18 233.262 244.63 229.458 250.666 232.728C251.336 233.086 251.953 233.534 252.502 234.06C258.142 239.448 262.3 246.798 258.244 253.416Z" fill="#00C2CB"/>
<mask id="mask1_763_2" style="mask-type:luminance" maskUnits="userSpaceOnUse" x="173" y="223" width="87" height="40">
<path d="M258.244 253.416C254.182 260.016 233.572 263.142 222.322 262.848C211.072 262.554 178.702 247.248 176.506 243.984C174.472 240.984 169.474 231.042 177.178 225.036C177.831 224.531 178.526 224.082 179.254 223.692C184.528 220.836 219.604 229.842 219.604 229.842C219.604 229.842 221.776 228.468 222.574 228.57C225.022 228.882 226.774 230.862 231.718 232.272C235.18 233.262 244.63 229.458 250.666 232.728C251.336 233.086 251.953 233.534 252.502 234.06C258.142 239.448 262.3 246.798 258.244 253.416Z" fill="white"/>
</mask>
<g mask="url(#mask1_763_2)">
<path opacity="0.3" d="M250.666 232.728C244.48 232.314 238.966 233.61 235.114 235.884C230.548 238.584 208.984 248.97 208.984 248.97C209.032 247.854 210.232 245.604 210.232 245.604C208.204 243.804 202.9 242.394 202.9 242.394C198.79 238.884 182.5 228.414 177.178 225.036C177.831 224.531 178.526 224.082 179.254 223.692C184.528 220.836 219.604 229.842 219.604 229.842C219.604 229.842 221.776 228.468 222.574 228.57C225.022 228.882 226.774 230.862 231.718 232.272C235.198 233.262 244.63 229.458 250.666 232.728Z" fill="black" fill-opacity="0.7"/>
</g>
<path d="M258.244 253.416C254.182 260.016 233.572 263.142 222.322 262.848C211.072 262.554 178.702 247.248 176.506 243.984C174.472 240.984 169.474 231.042 177.178 225.036C177.831 224.531 178.526 224.082 179.254 223.692C184.528 220.836 219.604 229.842 219.604 229.842C219.604 229.842 221.776 228.468 222.574 228.57C225.022 228.882 226.774 230.862 231.718 232.272C235.18 233.262 244.63 229.458 250.666 232.728C251.336 233.086 251.953 233.534 252.502 234.06C258.142 239.448 262.3 246.798 258.244 253.416Z" stroke="#263238" stroke-linecap="round" stroke-linejoin="round"/>
<path d="M251.92 259.392L252.436 261.654C252.436 261.654 251.056 265.566 244.99 266.208C238.924 266.85 235.33 268.188 232.39 268.362C230.853 268.483 229.308 268.459 227.776 268.29L227.176 267.402L251.92 259.392Z" fill="white" stroke="#263238" stroke-linecap="round" stroke-linejoin="round"/>
<path d="M216.694 259.152L227.206 267.402C232.272 266.969 237.306 266.215 242.278 265.146C247.258 263.994 251.608 262.344 251.842 260.076C252.208 256.632 248.524 255.69 244.15 255.822C243.334 255.822 242.494 255.906 241.648 255.99C234.646 256.74 225.742 252.876 225.742 252.876L216.694 259.152Z" fill="#263238"/>
<mask id="mask2_763_2" style="mask-type:luminance" maskUnits="userSpaceOnUse" x="216" y="252" width="36" height="16">
<path d="M216.694 259.152L227.206 267.402C232.272 266.969 237.306 266.215 242.278 265.146C247.258 263.994 251.608 262.344 251.842 260.076C252.208 256.632 248.524 255.69 244.15 255.822C243.334 255.822 242.494 255.906 241.648 255.99C234.646 256.74 225.742 252.876 225.742 252.876L216.694 259.152Z" fill="white"/>
</mask>
<g mask="url(#mask2_763_2)">
<path opacity="0.3" d="M251.848 259.992C249.807 260.751 247.849 261.716 246.004 262.872C246.004 262.872 236.242 267.894 221.236 262.722L216.694 259.152L225.742 252.87C225.742 252.87 234.64 256.74 241.648 255.984C242.494 255.894 243.334 255.834 244.15 255.816C248.494 255.684 252.148 256.608 251.848 259.992Z" fill="black" fill-opacity="0.7"/>
</g>
<path d="M216.694 259.152L227.206 267.402C232.272 266.969 237.306 266.215 242.278 265.146C247.258 263.994 251.608 262.344 251.842 260.076C252.208 256.632 248.524 255.69 244.15 255.822C243.334 255.822 242.494 255.906 241.648 255.99C234.646 256.74 225.742 252.876 225.742 252.876L216.694 259.152Z" stroke="#263238" stroke-linecap="round" stroke-linejoin="round"/>
<path d="M226.492 262.404C224.596 262.71 226.678 266.604 229.246 265.404C231.814 264.204 228.388 262.092 226.492 262.404Z" fill="white"/>
<mask id="mask3_763_2" style="mask-type:luminance" maskUnits="userSpaceOnUse" x="225" y="262" width="6" height="4">
<path d="M226.492 262.404C224.596 262.71 226.678 266.604 229.246 265.404C231.814 264.204 228.388 262.092 226.492 262.404Z" fill="white"/>
</mask>
<g mask="url(#mask3_763_2)">
<path opacity="0.2" d="M230.05 264.786C228.677 264.618 227.313 264.38 225.964 264.072C225.604 263.31 225.688 262.53 226.492 262.404C228.082 262.14 230.758 263.61 230.05 264.786Z" fill="black" fill-opacity="0.7"/>
</g>
<path d="M226.492 262.404C224.596 262.71 226.678 266.604 229.246 265.404C231.814 264.204 228.388 262.092 226.492 262.404Z" stroke="#263238" stroke-linecap="round" stroke-linejoin="round"/>
<path d="M242.278 265.14C247.258 263.988 251.608 262.338 251.842 260.07C252.208 256.626 248.524 255.684 244.15 255.816C243.958 256.002 239.716 260.1 242.278 265.14Z" fill="white"/>
<mask id="mask4_763_2" style="mask-type:luminance" maskUnits="userSpaceOnUse" x="241" y="255" width="11" height="11">
<path d="M242.278 265.14C247.258 263.988 251.608 262.338 251.842 260.07C252.208 256.626 248.524 255.684 244.15 255.816C243.958 256.002 239.716 260.1 242.278 265.14Z" fill="white"/>
</mask>
<g mask="url(#mask4_763_2)">
<path opacity="0.3" d="M251.848 259.992C249.807 260.751 247.849 261.716 246.004 262.872C244.689 263.48 243.31 263.941 241.894 264.246C240.214 259.626 243.97 255.99 244.15 255.816C248.494 255.684 252.148 256.608 251.848 259.992Z" fill="black" fill-opacity="0.7"/>
</g>
<path d="M242.278 265.14C247.258 263.988 251.608 262.338 251.842 260.07C252.208 256.626 248.524 255.684 244.15 255.816C243.958 256.002 239.716 260.1 242.278 265.14Z" stroke="#263238" stroke-linecap="round" stroke-linejoin="round"/>
<path d="M238.726 260.862H238.756C238.824 260.865 238.892 260.854 238.957 260.831C239.021 260.808 239.08 260.772 239.13 260.726C239.18 260.679 239.221 260.623 239.249 260.561C239.278 260.499 239.294 260.432 239.296 260.364C239.466 258.889 240.096 257.506 241.096 256.41C241.144 256.362 241.182 256.305 241.208 256.242C241.235 256.179 241.248 256.112 241.248 256.044C241.248 255.976 241.235 255.908 241.208 255.845C241.182 255.783 241.144 255.726 241.096 255.678C240.998 255.582 240.867 255.528 240.73 255.528C240.593 255.528 240.461 255.582 240.364 255.678C239.187 256.954 238.457 258.577 238.282 260.304C238.27 260.436 238.309 260.568 238.392 260.672C238.475 260.776 238.594 260.844 238.726 260.862Z" fill="white" stroke="#263238" stroke-linecap="round" stroke-linejoin="round"/>
<path d="M236.644 261H236.686C236.754 261.001 236.822 260.989 236.886 260.964C236.949 260.94 237.007 260.902 237.056 260.855C237.105 260.808 237.145 260.751 237.172 260.688C237.199 260.625 237.213 260.558 237.214 260.49C237.333 258.991 237.888 257.561 238.81 256.374C238.86 256.322 238.899 256.26 238.925 256.193C238.95 256.125 238.961 256.053 238.957 255.98C238.953 255.908 238.934 255.838 238.902 255.773C238.869 255.709 238.823 255.652 238.767 255.606C238.711 255.56 238.647 255.526 238.577 255.507C238.507 255.487 238.434 255.482 238.363 255.492C238.291 255.503 238.223 255.527 238.161 255.566C238.1 255.604 238.047 255.654 238.006 255.714C236.935 257.079 236.298 258.734 236.176 260.466C236.171 260.598 236.216 260.727 236.303 260.826C236.39 260.925 236.512 260.988 236.644 261Z" fill="white" stroke="#263238" stroke-linecap="round" stroke-linejoin="round"/>
<path d="M234.154 260.724C234.222 260.73 234.29 260.723 234.355 260.704C234.42 260.684 234.481 260.651 234.533 260.607C234.586 260.564 234.629 260.51 234.661 260.45C234.692 260.39 234.712 260.324 234.718 260.256C234.88 258.456 236.428 256.098 236.446 256.056C236.522 255.94 236.549 255.799 236.522 255.663C236.495 255.528 236.416 255.408 236.302 255.33C236.187 255.254 236.047 255.227 235.912 255.254C235.777 255.281 235.659 255.36 235.582 255.474C235.51 255.576 233.866 258.048 233.68 260.136C233.671 260.206 233.676 260.277 233.695 260.345C233.714 260.413 233.747 260.476 233.791 260.531C233.835 260.586 233.89 260.632 233.953 260.665C234.015 260.698 234.083 260.718 234.154 260.724Z" fill="white" stroke="#263238" stroke-linecap="round" stroke-linejoin="round"/>
<path d="M231.802 260.478C231.848 260.483 231.894 260.483 231.94 260.478C232.007 260.467 232.072 260.442 232.13 260.406C232.189 260.37 232.239 260.323 232.279 260.267C232.318 260.211 232.346 260.148 232.361 260.081C232.376 260.014 232.378 259.945 232.366 259.878C232 257.67 234.052 255.78 234.07 255.762C234.138 255.666 234.171 255.55 234.165 255.432C234.159 255.315 234.113 255.203 234.035 255.115C233.957 255.027 233.852 254.967 233.737 254.946C233.621 254.925 233.502 254.944 233.398 255C233.296 255.09 230.902 257.286 231.364 260.064C231.386 260.169 231.44 260.265 231.518 260.339C231.596 260.413 231.695 260.461 231.802 260.478Z" fill="white" stroke="#263238" stroke-linecap="round" stroke-linejoin="round"/>
<path d="M229.246 259.86C229.301 259.869 229.358 259.869 229.414 259.86C229.543 259.828 229.655 259.749 229.728 259.637C229.8 259.526 229.828 259.391 229.804 259.26C229.354 257.292 231.292 255.06 231.316 255.06C231.406 254.956 231.451 254.821 231.442 254.684C231.433 254.547 231.371 254.419 231.268 254.328C231.217 254.282 231.158 254.247 231.094 254.224C231.029 254.202 230.961 254.192 230.893 254.196C230.825 254.2 230.758 254.217 230.697 254.247C230.636 254.277 230.581 254.319 230.536 254.37C230.44 254.478 228.22 257.016 228.79 259.512C228.823 259.608 228.884 259.693 228.965 259.755C229.046 259.817 229.144 259.853 229.246 259.86Z" fill="white" stroke="#263238" stroke-linecap="round" stroke-linejoin="round"/>
<path d="M175.198 256.008L174.448 258.204C174.448 258.204 175.408 262.242 181.372 263.514C187.336 264.786 190.768 266.514 193.648 266.982C195.164 267.261 196.702 267.397 198.244 267.39L198.934 266.568L175.198 256.008Z" fill="white" stroke="#263238" stroke-linecap="round" stroke-linejoin="round"/>
<path d="M210.232 259.47L198.916 266.568C193.922 265.606 188.994 264.329 184.162 262.746C179.332 261.078 175.162 258.978 175.162 256.698C175.162 253.23 178.924 252.684 183.262 253.272C184.072 253.38 184.9 253.53 185.734 253.704C192.616 255.186 201.874 252.276 201.874 252.276L210.232 259.47Z" fill="#263238"/>
<mask id="mask5_763_2" style="mask-type:luminance" maskUnits="userSpaceOnUse" x="175" y="252" width="36" height="15">
<path d="M210.232 259.47L198.916 266.568C193.922 265.606 188.994 264.329 184.162 262.746C179.332 261.078 175.162 258.978 175.162 256.698C175.162 253.23 178.924 252.684 183.262 253.272C184.072 253.38 184.9 253.53 185.734 253.704C192.616 255.186 201.874 252.276 201.874 252.276L210.232 259.47Z" fill="white"/>
</mask>
<g mask="url(#mask5_763_2)">
<path opacity="0.3" d="M210.232 259.47L203.578 263.67C198.182 261.994 193.451 258.663 190.054 254.148C194.065 254.06 198.046 253.436 201.892 252.294L210.232 259.47Z" fill="black" fill-opacity="0.7"/>
</g>
<path d="M210.232 259.47L198.916 266.568C193.922 265.606 188.994 264.329 184.162 262.746C179.332 261.078 175.162 258.978 175.162 256.698C175.162 253.23 178.924 252.684 183.262 253.272C184.072 253.38 184.9 253.53 185.734 253.704C192.616 255.186 201.874 252.276 201.874 252.276L210.232 259.47Z" stroke="#263238" stroke-linecap="round" stroke-linejoin="round"/>
<path d="M184.162 262.74C179.332 261.072 175.162 258.972 175.162 256.692C175.162 253.224 178.924 252.678 183.262 253.266C183.454 253.47 187.24 258 184.162 262.74Z" fill="white" stroke="#263238" stroke-linecap="round" stroke-linejoin="round"/>
<path d="M188.146 258.858H188.116C187.978 258.848 187.849 258.785 187.757 258.682C187.665 258.579 187.617 258.444 187.624 258.306C187.614 256.824 187.138 255.384 186.262 254.19C186.211 254.137 186.171 254.075 186.146 254.006C186.121 253.937 186.11 253.864 186.115 253.791C186.12 253.718 186.14 253.647 186.174 253.582C186.208 253.518 186.256 253.461 186.313 253.415C186.371 253.37 186.437 253.338 186.508 253.32C186.579 253.302 186.653 253.299 186.725 253.311C186.797 253.324 186.866 253.351 186.927 253.392C186.987 253.433 187.039 253.486 187.078 253.548C188.113 254.933 188.669 256.618 188.662 258.348C188.66 258.483 188.605 258.613 188.509 258.709C188.412 258.804 188.282 258.858 188.146 258.858Z" fill="white" stroke="#263238" stroke-linecap="round" stroke-linejoin="round"/>
<path d="M190.198 259.2H190.15C190.012 259.187 189.885 259.121 189.796 259.016C189.708 258.91 189.664 258.773 189.676 258.636C189.719 257.136 189.32 255.657 188.53 254.382C188.49 254.325 188.463 254.261 188.448 254.193C188.433 254.126 188.432 254.056 188.444 253.988C188.456 253.92 188.482 253.855 188.519 253.797C188.557 253.739 188.605 253.689 188.662 253.65C188.719 253.61 188.782 253.582 188.85 253.568C188.917 253.553 188.987 253.552 189.055 253.564C189.123 253.576 189.188 253.602 189.246 253.639C189.304 253.676 189.354 253.725 189.394 253.782C190.321 255.251 190.781 256.966 190.714 258.702C190.708 258.835 190.651 258.961 190.555 259.053C190.459 259.146 190.331 259.198 190.198 259.2Z" fill="white" stroke="#263238" stroke-linecap="round" stroke-linejoin="round"/>
<path d="M192.706 259.2C192.568 259.197 192.437 259.14 192.34 259.041C192.244 258.942 192.19 258.81 192.19 258.672C192.226 256.842 190.93 254.364 190.912 254.34C190.848 254.216 190.836 254.073 190.877 253.94C190.919 253.808 191.011 253.697 191.134 253.632C191.256 253.569 191.399 253.556 191.531 253.598C191.662 253.64 191.772 253.732 191.836 253.854C191.896 253.962 193.27 256.59 193.234 258.69C193.231 258.827 193.173 258.958 193.075 259.053C192.976 259.149 192.843 259.201 192.706 259.2Z" fill="white" stroke="#263238" stroke-linecap="round" stroke-linejoin="round"/>
<path d="M195.07 259.2H194.932C194.799 259.162 194.687 259.073 194.619 258.953C194.552 258.833 194.535 258.69 194.572 258.558C195.172 256.404 193.33 254.304 193.312 254.286C193.26 254.236 193.219 254.176 193.191 254.11C193.163 254.043 193.149 253.972 193.15 253.9C193.151 253.828 193.167 253.757 193.197 253.692C193.226 253.626 193.269 253.568 193.323 253.52C193.376 253.471 193.439 253.435 193.508 253.412C193.576 253.39 193.648 253.381 193.72 253.388C193.791 253.394 193.861 253.416 193.924 253.451C193.987 253.485 194.042 253.533 194.086 253.59C194.176 253.692 196.33 256.128 195.574 258.84C195.538 258.945 195.471 259.037 195.38 259.101C195.29 259.166 195.181 259.2 195.07 259.2Z" fill="white" stroke="#263238" stroke-linecap="round" stroke-linejoin="round"/>
<path d="M197.68 258.858C197.622 258.86 197.565 258.85 197.512 258.828C197.446 258.807 197.386 258.773 197.334 258.728C197.282 258.683 197.24 258.629 197.209 258.567C197.179 258.505 197.162 258.438 197.158 258.37C197.154 258.301 197.164 258.232 197.188 258.168C197.842 256.26 196.144 253.842 196.132 253.818C196.083 253.763 196.046 253.699 196.023 253.629C196.001 253.558 195.993 253.484 196.002 253.411C196.01 253.338 196.033 253.268 196.071 253.204C196.108 253.141 196.158 253.086 196.218 253.043C196.278 253.001 196.347 252.972 196.419 252.957C196.491 252.943 196.565 252.944 196.637 252.961C196.709 252.977 196.776 253.008 196.835 253.053C196.894 253.097 196.942 253.153 196.978 253.218C197.062 253.332 199 256.092 198.178 258.516C198.14 258.617 198.072 258.704 197.983 258.765C197.894 258.826 197.788 258.859 197.68 258.858Z" fill="white" stroke="#263238" stroke-linecap="round" stroke-linejoin="round"/>
<path d="M200.146 261.672C202 262.182 199.546 265.812 197.092 264.372C194.638 262.932 198.298 261.168 200.146 261.672Z" fill="white" stroke="#263238" stroke-linecap="round" stroke-linejoin="round"/>
<path d="M178.75 242.4C181.528 246.294 189.766 250.596 197.95 254.142C199.413 256.566 201.14 258.822 203.098 260.868C208.15 266.064 210.208 263.154 210.208 263.154C210.208 263.154 213.4 262.794 218.11 262.152C218.306 262.609 218.648 262.988 219.082 263.23C219.516 263.472 220.018 263.563 220.51 263.49C221.11 263.394 222.31 262.518 223.636 261.36C235.534 259.56 251.68 256.56 256.036 253.068" fill="#00C2CB"/>
<path d="M178.75 242.4C181.528 246.294 189.766 250.596 197.95 254.142C199.413 256.566 201.14 258.822 203.098 260.868C208.15 266.064 210.208 263.154 210.208 263.154C210.208 263.154 213.4 262.794 218.11 262.152C218.306 262.609 218.648 262.988 219.082 263.23C219.516 263.472 220.018 263.563 220.51 263.49C221.11 263.394 222.31 262.518 223.636 261.36C235.534 259.56 251.68 256.56 256.036 253.068" stroke="#263238" stroke-linecap="round" stroke-linejoin="round"/>
<path d="M251.398 234.984C249.34 232.722 247.282 232.62 242.962 232.926C242.962 232.926 231.688 236.526 223.822 241.26C215.956 245.994 204.484 251.016 204.484 251.016C204.484 251.016 200.986 250.002 198.55 251.016C198.55 251.016 196.84 251.148 197.986 254.136" stroke="#263238" stroke-linecap="round" stroke-linejoin="round"/>
<path d="M256.63 248.502C256.63 248.502 256.69 251.988 251.746 254.4" stroke="#263238" stroke-linecap="round" stroke-linejoin="round"/>
<path d="M202.102 233.958C202.102 233.958 209.902 239.598 211.468 243.318C213.001 243.964 214.481 244.728 215.896 245.604" stroke="#263238" stroke-linecap="round" stroke-linejoin="round"/>
<path d="M212.032 238.644C212.604 240.265 212.7 242.016 212.308 243.69" stroke="#263238" stroke-linecap="round" stroke-linejoin="round"/>
<path d="M210.232 234.984C210.657 235.602 211.03 236.254 211.348 236.934" stroke="#263238" stroke-linecap="round" stroke-linejoin="round"/>
<path d="M221.344 234.468C221.344 234.468 223.954 237.96 224.602 240.792" stroke="#263238" stroke-linecap="round" stroke-linejoin="round"/>
<path d="M235.882 255.564C236.853 255.507 237.819 255.386 238.774 255.204" stroke="#263238" stroke-linecap="round" stroke-linejoin="round"/>
<path d="M211.396 253.062C218.792 254.527 226.294 255.387 233.83 255.636" stroke="#263238" stroke-linecap="round" stroke-linejoin="round"/>
<path d="M264.19 200.154C264.19 200.154 262.78 224.754 261.118 226.164C259.456 227.574 256.834 228.012 251.872 228.426C246.91 228.84 224.962 230.184 224.962 230.184L222.598 223.134C222.598 223.134 234.268 221.934 239.446 220.044C243.35 218.709 247.344 217.655 251.398 216.888C251.398 216.888 250.414 210.702 250.414 208.038V195.51" fill="white"/>
<path d="M264.19 200.154C264.19 200.154 262.78 224.754 261.118 226.164C259.456 227.574 256.834 228.012 251.872 228.426C246.91 228.84 224.962 230.184 224.962 230.184L222.598 223.134C222.598 223.134 234.268 221.934 239.446 220.044C243.35 218.709 247.344 217.655 251.398 216.888C251.398 216.888 250.414 210.702 250.414 208.038V195.51" stroke="#263238" stroke-linecap="round" stroke-linejoin="round"/>
<path d="M259.87 173.28C265.216 176.574 266.794 184.188 264.946 200.442C264.946 200.442 266.524 202.362 264.19 203.322C264.19 203.322 255.448 200.052 251.386 202.308C247.324 204.564 248.386 199.194 248.386 199.194C248.386 199.194 246.712 184.242 250.414 181.536" fill="#263238"/>
<path d="M249.922 179.25C249.922 179.25 244.78 184.596 249.322 198.108C249.035 199.211 248.835 200.334 248.722 201.468C248.722 202.374 249.964 202.842 249.964 202.842" stroke="white" stroke-linecap="round" stroke-linejoin="round"/>
<path d="M243.91 188.304C243.91 188.304 244.282 194.904 248.374 197.766" stroke="white" stroke-linecap="round" stroke-linejoin="round"/>
<path d="M245.23 172.98C245.23 172.98 237.256 176.034 230.914 172.65C227.152 170.646 228.7 167.424 228.7 167.424" stroke="white" stroke-linecap="round" stroke-linejoin="round"/>
<path d="M187.888 234.996H231.292C232.272 234.996 233.248 234.869 234.196 234.618L242.758 232.374C242.876 232.343 242.981 232.274 243.056 232.177C243.131 232.081 243.172 231.962 243.172 231.84C243.172 231.692 243.113 231.55 243.008 231.445C242.904 231.341 242.762 231.282 242.614 231.282H186.094C185.947 231.283 185.806 231.343 185.703 231.447C185.6 231.552 185.542 231.693 185.542 231.84V232.65C185.542 233.272 185.789 233.869 186.229 234.309C186.669 234.749 187.266 234.996 187.888 234.996Z" fill="#757575" stroke="#263238" stroke-linecap="round" stroke-linejoin="round"/>
<path d="M183.598 232.836H227.122C227.292 232.844 227.462 232.809 227.616 232.735C227.77 232.661 227.903 232.55 228.003 232.412C228.104 232.275 228.168 232.114 228.192 231.945C228.215 231.776 228.196 231.604 228.136 231.444L220.066 200.046C219.958 199.66 219.732 199.319 219.42 199.068C219.108 198.817 218.725 198.67 218.326 198.648H174.79C174.619 198.641 174.449 198.677 174.296 198.751C174.142 198.826 174.009 198.937 173.909 199.076C173.809 199.214 173.744 199.375 173.721 199.544C173.698 199.713 173.716 199.886 173.776 200.046L181.852 231.444C181.96 231.83 182.187 232.172 182.5 232.422C182.813 232.672 183.197 232.817 183.598 232.836Z" fill="#999999" stroke="#263238" stroke-linecap="round" stroke-linejoin="round"/>
<path d="M176.326 199.764H175.504" stroke="#263238" stroke-linecap="round" stroke-linejoin="round"/>
<path d="M182.704 199.764H178.456" stroke="#263238" stroke-linecap="round" stroke-linejoin="round"/>
<path d="M226.066 228.87L218.938 201.162C218.831 200.777 218.606 200.435 218.295 200.184C217.984 199.934 217.603 199.787 217.204 199.764H183.664" stroke="#263238" stroke-linecap="round" stroke-linejoin="round"/>
<path d="M226.684 231.282L226.504 230.592" stroke="#263238" stroke-linecap="round" stroke-linejoin="round"/>
<path d="M196.684 216.534C196.713 216.788 196.766 217.039 196.84 217.284C197.392 219.174 199.162 220.326 200.788 219.846C202.414 219.366 203.284 217.446 202.732 215.556C202.18 213.666 200.398 212.514 198.772 212.994C198.582 213.052 198.399 213.13 198.226 213.228C198.315 213.869 198.217 214.522 197.944 215.109C197.67 215.695 197.232 216.19 196.684 216.534Z" fill="white" stroke="#263238" stroke-linecap="round" stroke-linejoin="round"/>
<path d="M215.896 157.692C212.128 157.284 210.076 153.702 207.808 153.144C206.542 152.841 205.303 152.44 204.1 151.944C204.1 151.944 203.32 149.22 202.15 150.144C200.98 151.068 199.444 171.444 200.95 170.802C202.456 170.16 202.462 172.566 202.462 172.566L216.448 184.89L228.172 164.13C228.172 164.13 219.664 158.106 215.896 157.692Z" fill="#263238"/>
<path d="M101.926 85.134V84.834H102.226" stroke="#263238" stroke-linecap="round" stroke-linejoin="round"/>
<path d="M103.99 84.834H154.75" stroke="#263238" stroke-linecap="round" stroke-linejoin="round" stroke-dasharray="0.98 2.93"/>
<path d="M155.626 84.834H155.926V85.134" stroke="#263238" stroke-linecap="round" stroke-linejoin="round"/>
<path d="M155.932 86.9336V119.634" stroke="#263238" stroke-linecap="round" stroke-linejoin="round" stroke-dasharray="1 3"/>
<path d="M155.926 120.534V120.834H155.626" stroke="#263238" stroke-linecap="round" stroke-linejoin="round"/>
<path d="M153.868 120.834H103.108" stroke="#263238" stroke-linecap="round" stroke-linejoin="round" stroke-dasharray="0.98 2.93"/>
<path d="M102.226 120.834H101.926V120.534" stroke="#263238" stroke-linecap="round" stroke-linejoin="round"/>
<path d="M101.932 118.734V86.0337" stroke="#263238" stroke-linecap="round" stroke-linejoin="round" stroke-dasharray="1 3"/>
<path d="M128.932 85.7218C129.422 85.7218 129.82 85.3242 129.82 84.8338C129.82 84.3434 129.422 83.9458 128.932 83.9458C128.441 83.9458 128.044 84.3434 128.044 84.8338C128.044 85.3242 128.441 85.7218 128.932 85.7218Z" fill="#00C2CB" stroke="#263238" stroke-linecap="round" stroke-linejoin="round"/>
<path d="M101.932 103.722C102.422 103.722 102.82 103.324 102.82 102.834C102.82 102.343 102.422 101.946 101.932 101.946C101.441 101.946 101.044 102.343 101.044 102.834C101.044 103.324 101.441 103.722 101.932 103.722Z" fill="#00C2CB" stroke="#263238" stroke-linecap="round" stroke-linejoin="round"/>
<path d="M128.932 121.722C129.422 121.722 129.82 121.324 129.82 120.834C129.82 120.343 129.422 119.946 128.932 119.946C128.441 119.946 128.044 120.343 128.044 120.834C128.044 121.324 128.441 121.722 128.932 121.722Z" fill="#00C2CB" stroke="#263238" stroke-linecap="round" stroke-linejoin="round"/>
<path d="M155.932 103.722C156.422 103.722 156.82 103.324 156.82 102.834C156.82 102.343 156.422 101.946 155.932 101.946C155.441 101.946 155.044 102.343 155.044 102.834C155.044 103.324 155.441 103.722 155.932 103.722Z" fill="#00C2CB" stroke="#263238" stroke-linecap="round" stroke-linejoin="round"/>
<path d="M156.964 119.802H154.894V121.872H156.964V119.802Z" fill="#00C2CB" stroke="#263238" stroke-linecap="round" stroke-linejoin="round"/>
<path d="M156.964 83.8018H154.894V85.8718H156.964V83.8018Z" fill="#00C2CB" stroke="#263238" stroke-linecap="round" stroke-linejoin="round"/>
<path d="M102.964 119.802H100.894V121.872H102.964V119.802Z" fill="#00C2CB" stroke="#263238" stroke-linecap="round" stroke-linejoin="round"/>
<path d="M102.964 83.8018H100.894V85.8718H102.964V83.8018Z" fill="#00C2CB" stroke="#263238" stroke-linecap="round" stroke-linejoin="round"/>
<path d="M152.512 88.0195H105.514V117.882H152.512V88.0195Z" fill="white" stroke="#263238" stroke-linecap="round" stroke-linejoin="round"/>
<path d="M152.512 109.062L147.286 114.288L133.15 100.152L127.204 106.098L117.724 96.6177L105.514 108.822V117.882H152.512V109.062Z" fill="#00C2CB" stroke="#263238" stroke-linecap="round" stroke-linejoin="round"/>
<path d="M142.774 99.8157C144.606 99.8157 146.092 98.3302 146.092 96.4977C146.092 94.6652 144.606 93.1797 142.774 93.1797C140.941 93.1797 139.456 94.6652 139.456 96.4977C139.456 98.3302 140.941 99.8157 142.774 99.8157Z" fill="#00C2CB" stroke="#263238" stroke-linecap="round" stroke-linejoin="round"/>
<path d="M218.398 163.2C218.398 163.2 214.798 169.902 214.372 180.156" stroke="white" stroke-linecap="round" stroke-linejoin="round"/>
<path d="M207.814 167.838C207.814 167.838 208.888 173.538 212.014 177.666" stroke="white" stroke-linecap="round" stroke-linejoin="round"/>
<path d="M222.598 191.358C222.598 191.358 227.998 209.094 239.728 214.314" stroke="white" stroke-linecap="round" stroke-linejoin="round"/>
<path d="M236.806 159.252C236.806 159.252 236.296 163.122 232.576 163.392C232.117 162.418 231.565 161.492 230.926 160.626C232.858 160.054 234.821 159.596 236.806 159.252Z" fill="#263238"/>
<path d="M244.732 159.522C244.732 159.522 250.954 160.284 253.558 151.932C256.162 143.58 254.116 137.286 243.82 134.256C238.108 132.576 232.42 133.926 230.338 138.252C228.574 141.954 229.408 145.032 229.006 146.274C228.55 147.666 224.338 148.848 224.338 149.802C224.338 150.588 226.672 151.932 226.672 151.932L225.988 154.008L226.63 154.35C226.63 154.35 225.43 159.024 225.988 160.674C226.384 161.874 236.926 162.378 237.748 159.39" fill="white"/>
<path d="M244.732 159.522C244.732 159.522 250.954 160.284 253.558 151.932C256.162 143.58 254.116 137.286 243.82 134.256C238.108 132.576 232.42 133.926 230.338 138.252C228.574 141.954 229.408 145.032 229.006 146.274C228.55 147.666 224.338 148.848 224.338 149.802C224.338 150.588 226.672 151.932 226.672 151.932L225.988 154.008L226.63 154.35C226.63 154.35 225.43 159.024 225.988 160.674C226.384 161.874 236.926 162.378 237.748 159.39" stroke="#263238" stroke-linecap="round" stroke-linejoin="round"/>
<path d="M230.398 141.282C230.398 141.282 232.456 141.798 233.02 142.878" stroke="#263238" stroke-linecap="round" stroke-linejoin="round"/>
<path d="M230.758 146.028C230.668 146.628 230.806 147.15 231.07 147.186C231.334 147.222 231.61 146.766 231.7 146.16C231.79 145.554 231.646 145.038 231.388 145.002C231.13 144.966 230.848 145.422 230.758 146.028Z" fill="#263238"/>
<path d="M226.63 154.35C226.63 154.35 229.978 155.634 231.226 154.86" stroke="#263238" stroke-linecap="round" stroke-linejoin="round"/>
<path d="M227.806 145.548C227.56 146.892 227.86 148.068 228.478 148.182C229.096 148.296 229.804 147.306 230.05 145.968C230.296 144.63 230.002 143.442 229.378 143.328C228.754 143.214 228.058 144.21 227.806 145.548Z" stroke="#263238" stroke-linecap="round" stroke-linejoin="round"/>
<path d="M253.834 138.714C253.333 136.283 251.936 134.128 249.922 132.678C247.676 131.101 245.105 130.049 242.398 129.6C242.398 129.6 244.384 130.47 245.14 131.616C245.14 131.616 239.998 127.752 233.89 130.29C227.782 132.828 228.544 139.422 228.544 139.422L229.432 137.694C229.432 137.694 229.33 139.752 230.41 140.508C230.733 139.5 231.175 138.533 231.724 137.628C231.724 137.628 233.344 142.494 237.802 144.144C237.499 143.377 237.474 142.528 237.73 141.744C237.73 141.744 240.202 147.09 239.482 149.7L240.268 151.068C240.268 151.068 243.106 148.194 245.416 150.588C246.742 151.968 242.878 157.188 242.326 157.188L244.66 160.614C244.66 160.614 250.492 161.448 253.852 155.13C257.212 148.812 256.39 146.13 256.39 146.13C256.39 146.13 257.488 147.666 257.59 148.53C257.602 148.518 258.598 141.732 253.834 138.714Z" fill="#263238"/>
<path d="M240.112 151.674C240.112 151.674 241.912 145.626 245.74 147.756C249.568 149.886 246.838 153.114 245.464 154.356C244.09 155.598 243.064 157.854 242.17 157.854C241.276 157.854 241.078 156.756 241.078 156.756" fill="white"/>
<path d="M240.112 151.674C240.112 151.674 241.912 145.626 245.74 147.756C249.568 149.886 246.838 153.114 245.464 154.356C244.09 155.598 243.064 157.854 242.17 157.854C241.276 157.854 241.078 156.756 241.078 156.756" stroke="#263238" stroke-linecap="round" stroke-linejoin="round"/>
<path d="M230.05 145.968L240.73 148.182" stroke="#263238" stroke-linecap="round" stroke-linejoin="round"/>
</svg>
